SplineFontDB: 3.0
FontName: NimbusSanL-Custom
FullName: NimbusSanL
FamilyName: NimbusSanL
Weight: Regular
Copyright: (URW)++,Copyright 1999 by (URW)++ Design & Development
Version: 1.05
ItalicAngle: 0
UnderlinePosition: -360
UnderlineWidth: 102
Ascent: 1599
Descent: 449
InvalidEm: 0
sfntRevision: 0x00010ccc
LayerCount: 2
Layer: 0 1 "Back" 1
Layer: 1 1 "Fore" 0
HasVMetrics: 1
XUID: [1021 811 -685060043 27854]
StyleMap: 0x0040
FSType: 8
OS2Version: 1
OS2_WeightWidthSlopeOnly: 0
OS2_UseTypoMetrics: 0
CreationTime: 1014290988
ModificationTime: 1531624820
PfmFamily: 81
TTFWeight: 400
TTFWidth: 5
LineGap: 0
VLineGap: 0
Panose: 0 0 0 0 0 0 0 0 0 0
OS2TypoAscent: 1599
OS2TypoAOffset: 0
OS2TypoDescent: -449
OS2TypoDOffset: 0
OS2TypoLinegap: 0
OS2WinAscent: 1953
OS2WinAOffset: 0
OS2WinDescent: 451
OS2WinDOffset: 0
HheadAscent: 2007
HheadAOffset: 0
HheadDescent: -451
HheadDOffset: 0
OS2SubXSize: 1331
OS2SubYSize: 1331
OS2SubXOff: 0
OS2SubYOff: 307
OS2SupXSize: 1331
OS2SupYSize: 1331
OS2SupXOff: 0
OS2SupYOff: 983
OS2StrikeYSize: 102
OS2StrikeYPos: 485
OS2Vendor: 'URW '
OS2CodePages: 2000009f.00000000
OS2UnicodeRanges: 800003af.000078eb.00000000.00000000
MarkAttachClasses: 1
DEI: 91125
TtTable: prep
PUSHB_2
 48
 1
PUSHW_1
 329
RTG
SCANCTRL
SCANTYPE
SCVTCI
EndTTInstrs
TtTable: fpgm
NPUSHB
 15
 14
 13
 12
 11
 10
 9
 8
 7
 6
 5
 4
 3
 2
 1
 0
FDEF
SLOOP
MDAP[rnd]
ALIGNRP
ENDF
FDEF
MDAP[rnd]
ALIGNRP
ENDF
FDEF
SRP1
SRP2
IP
ENDF
FDEF
SRP1
SRP2
SLOOP
IP
ENDF
FDEF
SRP0
SLOOP
MIRP[rp0,min,rnd,black]
ALIGNRP
ENDF
FDEF
SRP0
SLOOP
MIRP[rp0,rnd,grey]
ALIGNRP
ENDF
FDEF
SRP0
SLOOP
MDRP[rp0,min,rnd,black]
ALIGNRP
ENDF
FDEF
SRP0
SLOOP
MDRP[rp0,rnd,grey]
ALIGNRP
ENDF
FDEF
SRP0
MIRP[rp0,min,rnd,black]
ENDF
FDEF
SRP0
MIRP[rp0,rnd,grey]
ENDF
FDEF
SRP0
MDRP[rp0,min,rnd,black]
ENDF
FDEF
SRP0
MDRP[rp0,rnd,grey]
ENDF
FDEF
MDRP[rnd,grey]
ENDF
FDEF
MDRP[grey]
ENDF
FDEF
SVTCA[y-axis]
NPUSHB
 10
 1
 0
 0
 1
 1
 2
 2
 3
 3
 0
SZPS
MIAP[rnd]
MIAP[rnd]
MIAP[rnd]
MIAP[rnd]
SZPS
ENDF
EndTTInstrs

StartChar: .notdef
Encoding: 1114112 -1 0
Width: 569
VWidth: 2458
Flags: W
LayerCount: 2
Fore
SplineSet
57 0 m 1,0,-1
 57 1493 l 1,1,-1
 512 1493 l 1,2,-1
 512 0 l 1,3,-1
 57 0 l 1,0,-1
455 57 m 1,4,-1
 455 1436 l 1,5,-1
 114 1436 l 1,6,-1
 114 57 l 1,7,-1
 455 57 l 1,4,-1
EndSplineSet
Validated: 1
EndChar

StartChar: exclam
Encoding: 33 33 4
Width: 569
VWidth: 2458
Flags: W
LayerCount: 2
Fore
SplineSet
425 1493 m 1,0,-1
 425 801 l 1,1,-1
 380 344 l 1,2,-1
 300 344 l 1,3,-1
 255 801 l 1,4,-1
 255 1493 l 1,5,-1
 425 1493 l 1,0,-1
426 213 m 1,6,-1
 426 0 l 1,7,-1
 254 0 l 1,8,-1
 254 213 l 1,9,-1
 426 213 l 1,6,-1
EndSplineSet
Validated: 1
EndChar

StartChar: quotedbl
Encoding: 34 34 5
Width: 727
VWidth: 2458
Flags: W
LayerCount: 2
Fore
SplineSet
106 1452 m 1,0,-1
 296 1452 l 1,1,-1
 296 1225 l 1,2,-1
 241 950 l 1,3,-1
 161 950 l 1,4,-1
 106 1225 l 1,5,-1
 106 1452 l 1,0,-1
434 1452 m 1,6,-1
 624 1452 l 1,7,-1
 624 1225 l 1,8,-1
 569 950 l 1,9,-1
 489 950 l 1,10,-1
 434 1225 l 1,11,-1
 434 1452 l 1,6,-1
EndSplineSet
Validated: 1
EndChar

StartChar: numbersign
Encoding: 35 35 6
Width: 1139
VWidth: 2458
Flags: W
LayerCount: 2
Fore
SplineSet
993 1427 m 1,0,-1
 921 1026 l 1,1,-1
 1110 1026 l 1,2,-1
 1110 887 l 1,3,-1
 894 887 l 1,4,-1
 830 530 l 1,5,-1
 1045 530 l 1,6,-1
 1045 391 l 1,7,-1
 804 391 l 1,8,-1
 726 -41 l 1,9,-1
 570 -41 l 1,10,-1
 648 391 l 1,11,-1
 393 391 l 1,12,-1
 315 -41 l 1,13,-1
 158 -41 l 1,14,-1
 237 391 l 1,15,-1
 29 391 l 1,16,-1
 29 530 l 1,17,-1
 263 530 l 1,18,-1
 327 887 l 1,19,-1
 105 887 l 1,20,-1
 105 1026 l 1,21,-1
 353 1026 l 1,22,-1
 426 1427 l 1,23,-1
 582 1427 l 1,24,-1
 509 1026 l 1,25,-1
 764 1026 l 1,26,-1
 837 1427 l 1,27,-1
 993 1427 l 1,0,-1
738 887 m 1,28,-1
 483 887 l 1,29,-1
 419 530 l 1,30,-1
 674 530 l 1,31,-1
 738 887 l 1,28,-1
EndSplineSet
Validated: 1
EndChar

StartChar: dollar
Encoding: 36 36 7
Width: 1139
VWidth: 2458
Flags: W
LayerCount: 2
Fore
SplineSet
499 1577 m 1,0,-1
 620 1577 l 1,1,-1
 620 1467 l 1,2,3
 790 1454 790 1454 894 1363 c 0,4,5
 1015 1253 1015 1253 1018 1063 c 1,6,-1
 855 1063 l 1,7,8
 852 1184 852 1184 778 1258 c 0,9,10
 713 1319 713 1319 620 1322 c 1,11,-1
 620 813 l 1,12,13
 830 750 830 750 888 716 c 0,14,15
 1063 614 1063 614 1063 400 c 0,16,17
 1063 261 1063 261 997 150 c 0,18,19
 892 -26 892 -26 620 -47 c 1,20,-1
 620 -258 l 1,21,-1
 499 -258 l 1,22,-1
 499 -47 l 1,23,24
 287 -34 287 -34 168 93 c 0,25,26
 106 162 106 162 87 239 c 0,27,28
 68 310 68 310 69 426 c 1,29,-1
 231 426 l 1,30,31
 238 348 238 348 245 305 c 0,32,33
 264 203 264 203 355 145 c 0,34,35
 416 107 416 107 499 95 c 1,36,-1
 499 651 l 1,37,38
 309 709 309 709 240 758 c 0,39,40
 95 862 95 862 95 1056 c 0,41,42
 95 1280 95 1280 265 1391 c 0,43,44
 354 1449 354 1449 499 1467 c 1,45,-1
 499 1577 l 1,0,-1
499 1322 m 1,46,47
 398 1307 398 1307 343 1260 c 0,48,49
 261 1191 261 1191 261 1077 c 0,50,51
 261 893 261 893 499 830 c 1,52,-1
 499 1322 l 1,46,47
620 95 m 1,53,54
 741 107 741 107 808 170 c 0,55,56
 895 253 895 253 895 374 c 0,57,58
 895 509 895 509 775 575 c 0,59,60
 725 602 725 602 620 632 c 1,61,-1
 620 95 l 1,53,54
EndSplineSet
Validated: 33
EndChar

StartChar: percent
Encoding: 37 37 8
Width: 1821
VWidth: 2458
Flags: W
LayerCount: 2
Fore
SplineSet
408 1403 m 0,0,1
 553 1403 553 1403 656 1300 c 0,2,3
 758 1198 758 1198 758 1048 c 0,4,5
 758 908 758 908 656 805 c 0,6,7
 553 702 553 702 409 702 c 0,8,9
 264 702 264 702 162 805 c 0,10,11
 59 908 59 908 59 1053 c 0,12,13
 59 1200 59 1200 162 1300 c 0,14,15
 266 1403 266 1403 408 1403 c 0,0,1
408 1260 m 0,16,17
 322 1260 322 1260 261 1199 c 256,18,19
 200 1138 200 1138 200 1053 c 0,20,21
 200 967 200 967 261 906 c 256,22,23
 322 845 322 845 409 845 c 0,24,25
 495 845 495 845 556 906 c 256,26,27
 617 967 617 967 617 1050 c 0,28,29
 617 1140 617 1140 556 1199 c 0,30,31
 493 1260 493 1260 408 1260 c 0,16,17
1246 1452 m 1,32,-1
 1382 1452 l 1,33,-1
 573 -41 l 1,34,-1
 437 -41 l 1,35,-1
 1246 1452 l 1,32,-1
1409 660 m 0,36,37
 1554 660 1554 660 1657 558 c 0,38,39
 1759 456 1759 456 1759 307 c 0,40,41
 1759 166 1759 166 1657 64 c 0,42,43
 1554 -39 1554 -39 1410 -39 c 0,44,45
 1265 -39 1265 -39 1162 64 c 0,46,47
 1060 166 1060 166 1060 311 c 0,48,49
 1060 458 1060 458 1162 558 c 0,50,51
 1267 660 1267 660 1409 660 c 0,36,37
1409 517 m 0,52,53
 1323 517 1323 517 1262 457 c 0,54,55
 1201 396 1201 396 1201 311 c 0,56,57
 1201 225 1201 225 1262 165 c 0,58,59
 1323 104 1323 104 1410 104 c 0,60,61
 1495 104 1495 104 1557 165 c 0,62,63
 1618 225 1618 225 1618 308 c 0,64,65
 1618 397 1618 397 1557 457 c 0,66,67
 1494 517 1494 517 1409 517 c 0,52,53
EndSplineSet
Validated: 1
EndChar

StartChar: ampersand
Encoding: 38 38 9
Width: 1366
VWidth: 2458
Flags: W
LayerCount: 2
Fore
SplineSet
1010 684 m 1,0,-1
 1173 684 l 1,1,2
 1173 492 1173 492 1054 308 c 1,3,-1
 1304 0 l 1,4,-1
 1081 0 l 1,5,-1
 953 159 l 1,6,7
 850 60 850 60 796 26 c 0,8,9
 682 -47 682 -47 527 -47 c 0,10,11
 329 -47 329 -47 210 77 c 0,12,13
 106 185 106 185 106 361 c 0,14,15
 106 486 106 486 163 573 c 0,16,17
 230 676 230 676 439 796 c 1,18,19
 373 879 373 879 339 932 c 0,20,21
 272 1038 272 1038 272 1131 c 0,22,23
 272 1267 272 1267 377 1361 c 0,24,25
 477 1452 477 1452 623 1452 c 0,26,27
 768 1452 768 1452 863 1361 c 0,28,29
 956 1271 956 1271 956 1131 c 0,30,31
 956 1001 956 1001 865 910 c 0,32,33
 802 848 802 848 674 775 c 1,34,-1
 946 440 l 1,35,36
 1013 562 1013 562 1010 684 c 1,0,-1
584 883 m 2,37,-1
 602 894 l 2,38,39
 659 930 659 930 690 956 c 0,40,41
 794 1041 794 1041 794 1134 c 0,42,43
 794 1213 794 1213 738 1265 c 0,44,45
 689 1309 689 1309 616 1309 c 0,46,47
 540 1309 540 1309 492 1265 c 0,48,49
 440 1216 440 1216 440 1133 c 0,50,51
 440 1071 440 1071 478 1015 c 0,52,53
 498 984 498 984 525 951 c 0,54,55
 583 882 583 882 584 883 c 2,37,-1
527 689 m 1,56,57
 427 626 427 626 377 578 c 0,58,59
 278 486 278 486 278 375 c 0,60,61
 278 278 278 278 348 200 c 0,62,63
 425 113 425 113 546 113 c 0,64,65
 695 113 695 113 856 280 c 1,66,-1
 527 689 l 1,56,57
EndSplineSet
Validated: 33
EndChar

StartChar: quotesingle
Encoding: 39 39 10
Width: 391
VWidth: 2458
Flags: W
LayerCount: 2
Fore
SplineSet
98 1452 m 1,0,-1
 291 1452 l 1,1,-1
 291 1225 l 1,2,-1
 236 950 l 1,3,-1
 153 950 l 1,4,-1
 98 1225 l 1,5,-1
 98 1452 l 1,0,-1
EndSplineSet
Validated: 1
EndChar

StartChar: parenleft
Encoding: 40 40 11
Width: 682
VWidth: 2458
Flags: W
LayerCount: 2
Fore
SplineSet
484 1493 m 1,0,-1
 596 1493 l 1,1,2
 496 1331 496 1331 425 1136 c 0,3,4
 316 836 316 836 316 529 c 0,5,6
 316 201 316 201 442 -122 c 0,7,8
 509 -292 509 -292 596 -434 c 1,9,-1
 484 -434 l 1,10,11
 364 -277 364 -277 276 -65 c 0,12,13
 150 238 150 238 150 529 c 0,14,15
 150 845 150 845 297 1173 c 0,16,17
 378 1355 378 1355 484 1493 c 1,0,-1
EndSplineSet
Validated: 1
EndChar

StartChar: parenright
Encoding: 41 41 12
Width: 682
VWidth: 2458
Flags: W
LayerCount: 2
Fore
SplineSet
191 -434 m 1,0,-1
 78 -434 l 1,1,2
 179 -271 179 -271 249 -77 c 0,3,4
 359 223 359 223 359 529 c 0,5,6
 359 858 359 858 232 1181 c 0,7,8
 167 1349 167 1349 78 1493 c 1,9,-1
 191 1493 l 1,10,11
 311 1336 311 1336 399 1124 c 0,12,13
 525 821 525 821 525 529 c 0,14,15
 525 214 525 214 378 -114 c 0,16,17
 297 -295 297 -295 191 -434 c 1,0,-1
EndSplineSet
Validated: 1
EndChar

StartChar: asterisk
Encoding: 42 42 13
Width: 797
VWidth: 2458
Flags: W
LayerCount: 2
Fore
SplineSet
329 1493 m 1,0,-1
 456 1493 l 1,1,-1
 447 1263 l 1,2,-1
 664 1342 l 1,3,-1
 703 1221 l 1,4,-1
 481 1158 l 1,5,-1
 624 978 l 1,6,-1
 521 903 l 1,7,-1
 393 1094 l 1,8,-1
 264 903 l 1,9,-1
 161 978 l 1,10,-1
 304 1158 l 1,11,-1
 82 1221 l 1,12,-1
 121 1342 l 1,13,-1
 338 1263 l 1,14,-1
 329 1493 l 1,0,-1
EndSplineSet
Validated: 1
EndChar

StartChar: plus
Encoding: 43 43 14
Width: 1196
VWidth: 2458
Flags: W
LayerCount: 2
Fore
SplineSet
1093 546 m 1,0,-1
 1093 403 l 1,1,-1
 669 403 l 1,2,-1
 669 -20 l 1,3,-1
 526 -20 l 1,4,-1
 526 403 l 1,5,-1
 102 403 l 1,6,-1
 102 546 l 1,7,-1
 526 546 l 1,8,-1
 526 971 l 1,9,-1
 669 971 l 1,10,-1
 669 546 l 1,11,-1
 1093 546 l 1,0,-1
EndSplineSet
Validated: 1
EndChar

StartChar: comma
Encoding: 44 44 15
Width: 569
VWidth: 2458
Flags: W
LayerCount: 2
Fore
SplineSet
178 213 m 1,0,-1
 393 213 l 1,1,-1
 393 -32 l 2,2,3
 391 -215 391 -215 288 -275 c 0,4,5
 242 -302 242 -302 178 -302 c 1,6,-1
 178 -224 l 1,7,8
 228 -222 228 -222 250 -205 c 0,9,10
 294 -172 294 -172 299 -91 c 0,11,12
 300 -66 300 -66 300 0 c 1,13,-1
 178 0 l 1,14,-1
 178 213 l 1,0,-1
EndSplineSet
Validated: 1
EndChar

StartChar: hyphen
Encoding: 45 45 16
Width: 682
VWidth: 2458
Flags: W
LayerCount: 2
Fore
SplineSet
581 639 m 1,0,-1
 581 492 l 1,1,-1
 94 492 l 1,2,-1
 94 639 l 1,3,-1
 581 639 l 1,0,-1
EndSplineSet
Validated: 2097153
EndChar

StartChar: period
Encoding: 46 46 17
Width: 569
VWidth: 2458
Flags: W
LayerCount: 2
Fore
SplineSet
391 213 m 1,0,-1
 391 0 l 1,1,-1
 178 0 l 1,2,-1
 178 213 l 1,3,-1
 391 213 l 1,0,-1
EndSplineSet
Validated: 1
EndChar

StartChar: slash
Encoding: 47 47 18
Width: 569
VWidth: 2458
Flags: W
LayerCount: 2
Fore
SplineSet
469 1493 m 1,0,-1
 582 1493 l 1,1,-1
 97 -41 l 1,2,-1
 -16 -41 l 1,3,-1
 469 1493 l 1,0,-1
EndSplineSet
Validated: 1
EndChar

StartChar: zero
Encoding: 48 48 19
Width: 1139
VWidth: 2458
Flags: W
LayerCount: 2
Fore
SplineSet
562 1452 m 0,0,1
 701 1452 701 1452 809 1376 c 0,2,3
 1038 1217 1038 1217 1038 691 c 0,4,5
 1038 305 1038 305 896 113 c 0,6,7
 837 32 837 32 738 -11 c 0,8,9
 657 -47 657 -47 563 -47 c 0,10,11
 426 -47 426 -47 317 29 c 0,12,13
 88 188 88 188 88 703 c 0,14,15
 88 1102 88 1102 230 1292 c 0,16,17
 291 1375 291 1375 388 1416 c 0,18,19
 470 1452 470 1452 562 1452 c 0,0,1
563 1292 m 256,20,21
 272 1292 272 1292 272 702 c 0,22,23
 272 103 272 103 559 103 c 0,24,25
 708 103 708 103 776 239 c 0,26,27
 854 397 854 397 854 707 c 0,28,29
 854 1292 854 1292 563 1292 c 256,20,21
EndSplineSet
Validated: 1
EndChar

StartChar: one
Encoding: 49 49 20
Width: 1139
VWidth: 2458
Flags: W
LayerCount: 2
Fore
SplineSet
531 1034 m 1,0,-1
 209 1034 l 1,1,-1
 209 1163 l 1,2,3
 320 1179 320 1179 380 1192 c 0,4,5
 497 1221 497 1221 544 1318 c 0,6,7
 569 1371 569 1371 592 1452 c 1,8,-1
 711 1452 l 1,9,-1
 711 0 l 1,10,-1
 531 0 l 1,11,-1
 531 1034 l 1,0,-1
EndSplineSet
Validated: 1
EndChar

StartChar: two
Encoding: 50 50 21
Width: 1139
VWidth: 2458
Flags: W
LayerCount: 2
Fore
SplineSet
1037 178 m 1,0,-1
 1037 0 l 1,1,-1
 70 0 l 1,2,3
 82 225 82 225 149 341 c 0,4,5
 201 433 201 433 296 509 c 0,6,7
 365 565 365 565 477 628 c 2,8,-1
 667 736 l 2,9,10
 863 847 863 847 863 1022 c 0,11,12
 863 1143 863 1143 775 1221 c 0,13,14
 694 1294 694 1294 576 1294 c 0,15,16
 480 1294 480 1294 406 1243 c 0,17,18
 320 1184 320 1184 295 1057 c 0,19,20
 287 1015 287 1015 283 948 c 1,21,-1
 103 948 l 1,22,23
 109 1155 109 1155 180 1263 c 0,24,25
 303 1452 303 1452 582 1452 c 0,26,27
 785 1452 785 1452 911 1338 c 0,28,29
 1047 1215 1047 1215 1047 1027 c 0,30,31
 1047 754 1047 754 741 588 c 2,32,-1
 536 477 l 2,33,34
 377 388 377 388 327 312 c 0,35,36
 285 254 285 254 274 178 c 1,37,-1
 1037 178 l 1,0,-1
EndSplineSet
Validated: 1
EndChar

StartChar: three
Encoding: 51 51 22
Width: 1139
VWidth: 2458
Flags: W
LayerCount: 2
Fore
SplineSet
453 667 m 1,0,-1
 453 820 l 1,1,2
 625 821 625 821 693 849 c 0,3,4
 810 898 810 898 810 1047 c 0,5,6
 810 1171 810 1171 734 1236 c 0,7,8
 664 1295 664 1295 553 1295 c 0,9,10
 451 1295 451 1295 379 1246 c 0,11,12
 304 1194 304 1194 285 1085 c 0,13,14
 278 1047 278 1047 277 983 c 1,15,-1
 97 983 l 1,16,17
 101 1170 101 1170 172 1278 c 0,18,19
 287 1452 287 1452 552 1452 c 0,20,21
 754 1452 754 1452 874 1348 c 0,22,23
 994 1245 994 1245 994 1052 c 0,24,25
 994 926 994 926 920 841 c 0,26,27
 870 784 870 784 791 752 c 1,28,29
 895 716 895 716 948 662 c 0,30,31
 1037 572 1037 572 1037 405 c 0,32,33
 1037 197 1037 197 897 72 c 0,34,35
 764 -47 764 -47 546 -47 c 0,36,37
 242 -47 242 -47 129 164 c 0,38,39
 78 259 78 259 66 422 c 1,40,-1
 247 422 l 1,41,42
 254 295 254 295 300 227 c 0,43,44
 378 113 378 113 552 113 c 0,45,46
 699 113 699 113 778 195 c 0,47,48
 853 274 853 274 853 404 c 0,49,50
 853 541 853 541 763 611 c 0,51,52
 689 668 689 668 552 668 c 2,53,-1
 475 666 l 2,54,55
 470 666 470 666 453 667 c 1,0,-1
EndSplineSet
Validated: 1
EndChar

StartChar: four
Encoding: 52 52 23
Width: 1139
VWidth: 2458
Flags: W
LayerCount: 2
Fore
SplineSet
670 348 m 1,0,-1
 57 348 l 1,1,-1
 57 539 l 1,2,-1
 716 1452 l 1,3,-1
 850 1452 l 1,4,-1
 850 510 l 1,5,-1
 1065 510 l 1,6,-1
 1065 348 l 1,7,-1
 850 348 l 1,8,-1
 850 0 l 1,9,-1
 670 0 l 1,10,-1
 670 348 l 1,0,-1
670 510 m 1,11,-1
 670 1144 l 1,12,-1
 215 510 l 1,13,-1
 670 510 l 1,11,-1
EndSplineSet
Validated: 1
EndChar

StartChar: five
Encoding: 53 53 24
Width: 1139
VWidth: 2458
Flags: W
LayerCount: 2
Fore
SplineSet
975 1452 m 1,0,-1
 975 1274 l 1,1,-1
 370 1274 l 1,2,-1
 314 869 l 1,3,4
 435 957 435 957 582 957 c 0,5,6
 784 957 784 957 915 828 c 0,7,8
 1051 694 1051 694 1051 472 c 0,9,10
 1051 261 1051 261 928 116 c 0,11,12
 790 -48 790 -48 553 -48 c 0,13,14
 409 -48 409 -48 295 13 c 0,15,16
 151 90 151 90 101 238 c 0,17,18
 87 282 87 282 72 356 c 1,19,-1
 253 356 l 1,20,21
 315 112 315 112 549 112 c 0,22,23
 707 112 707 112 792 213 c 0,24,25
 867 303 867 303 867 449 c 0,26,27
 867 613 867 613 777 708 c 0,28,29
 694 797 694 797 550 797 c 0,30,31
 451 797 451 797 378 751 c 0,32,33
 335 724 335 724 282 662 c 1,34,-1
 118 662 l 1,35,-1
 226 1452 l 1,36,-1
 975 1452 l 1,0,-1
EndSplineSet
Validated: 1
EndChar

StartChar: six
Encoding: 54 54 25
Width: 1139
VWidth: 2458
Flags: W
LayerCount: 2
Fore
SplineSet
1021 1073 m 1,0,-1
 840 1073 l 1,1,2
 822 1163 822 1163 774 1216 c 0,3,4
 704 1292 704 1292 596 1292 c 0,5,6
 403 1292 403 1292 318 1067 c 0,7,8
 273 948 273 948 272 741 c 1,9,10
 391 903 391 903 607 903 c 0,11,12
 793 903 793 903 913 787 c 0,13,14
 971 731 971 731 1007 652 c 0,15,16
 1051 554 1051 554 1051 443 c 0,17,18
 1051 246 1051 246 932 107 c 0,19,20
 799 -47 799 -47 576 -47 c 0,21,22
 332 -47 332 -47 210 134 c 0,23,24
 133 248 133 248 110 386 c 0,25,26
 88 515 88 515 88 661 c 0,27,28
 88 931 88 931 145 1093 c 0,29,30
 213 1285 213 1285 350 1376 c 0,31,32
 465 1452 465 1452 608 1452 c 0,33,34
 815 1452 815 1452 935 1294 c 0,35,36
 1000 1209 1000 1209 1021 1073 c 1,0,-1
584 743 m 0,37,38
 445 743 445 743 359 650 c 0,39,40
 283 567 283 567 283 438 c 0,41,42
 283 301 283 301 362 211 c 0,43,44
 448 113 448 113 578 113 c 0,45,46
 672 113 672 113 748 169 c 0,47,48
 812 216 812 216 842 298 c 0,49,50
 866 361 866 361 866 428 c 0,51,52
 866 555 866 555 805 640 c 0,53,54
 731 743 731 743 584 743 c 0,37,38
EndSplineSet
Validated: 1
EndChar

StartChar: seven
Encoding: 55 55 26
Width: 1139
VWidth: 2458
Flags: W
LayerCount: 2
Fore
SplineSet
1065 1452 m 1,0,-1
 1065 1301 l 1,1,2
 926 1109 926 1109 865 1012 c 0,3,4
 562 520 562 520 475 0 c 1,5,-1
 283 0 l 1,6,7
 332 201 332 201 361 297 c 0,8,9
 462 619 462 619 669 958 c 0,10,11
 745 1081 745 1081 878 1274 c 1,12,-1
 94 1274 l 1,13,-1
 94 1452 l 1,14,-1
 1065 1452 l 1,0,-1
EndSplineSet
Validated: 1
EndChar

StartChar: eight
Encoding: 56 56 27
Width: 1139
VWidth: 2458
Flags: W
LayerCount: 2
Fore
SplineSet
802 764 m 1,0,1
 1051 643 1051 643 1051 403 c 0,2,3
 1051 218 1051 218 931 94 c 0,4,5
 795 -47 795 -47 563 -47 c 0,6,7
 332 -47 332 -47 196 94 c 0,8,9
 76 218 76 218 76 403 c 0,10,11
 76 644 76 644 325 764 c 1,12,13
 232 821 232 821 194 865 c 0,14,15
 127 943 127 943 127 1066 c 0,16,17
 127 1235 127 1235 251 1346 c 0,18,19
 369 1452 369 1452 564 1452 c 0,20,21
 757 1452 757 1452 876 1346 c 0,22,23
 1000 1235 1000 1235 1000 1065 c 0,24,25
 1000 933 1000 933 921 852 c 0,26,27
 884 814 884 814 802 764 c 1,0,1
563 1292 m 0,28,29
 447 1292 447 1292 379 1229 c 256,30,31
 311 1166 311 1166 311 1063 c 0,32,33
 311 961 311 961 379 898 c 256,34,35
 447 835 447 835 564 835 c 0,36,37
 680 835 680 835 748 898 c 0,38,39
 816 960 816 960 816 1060 c 0,40,41
 816 1168 816 1168 748 1229 c 0,42,43
 678 1292 678 1292 563 1292 c 0,28,29
564 684 m 0,44,45
 432 684 432 684 348 608 c 0,46,47
 260 529 260 529 260 399 c 256,48,49
 260 269 260 269 348 189 c 0,50,51
 432 113 432 113 559 113 c 0,52,53
 696 113 696 113 779 189 c 0,54,55
 867 268 867 268 867 399 c 0,56,57
 867 531 867 531 779 608 c 0,58,59
 694 684 694 684 564 684 c 0,44,45
EndSplineSet
Validated: 1
EndChar

StartChar: nine
Encoding: 57 57 28
Width: 1139
VWidth: 2458
Flags: W
LayerCount: 2
Fore
SplineSet
108 332 m 1,0,-1
 288 332 l 1,1,2
 307 242 307 242 355 189 c 0,3,4
 424 113 424 113 533 113 c 0,5,6
 725 113 725 113 810 338 c 0,7,8
 855 457 855 457 856 664 c 1,9,10
 721 502 721 502 523 502 c 0,11,12
 335 502 335 502 215 618 c 0,13,14
 157 674 157 674 121 753 c 0,15,16
 77 851 77 851 77 962 c 0,17,18
 77 1159 77 1159 197 1298 c 0,19,20
 329 1452 329 1452 553 1452 c 0,21,22
 798 1452 798 1452 920 1272 c 0,23,24
 997 1157 997 1157 1021 1019 c 0,25,26
 1043 890 1043 890 1043 743 c 0,27,28
 1043 474 1043 474 985 311 c 0,29,30
 917 120 917 120 780 29 c 0,31,32
 665 -47 665 -47 521 -47 c 0,33,34
 314 -47 314 -47 194 111 c 0,35,36
 129 196 129 196 108 332 c 1,0,-1
550 1294 m 0,37,38
 457 1294 457 1294 381 1238 c 0,39,40
 315 1190 315 1190 285 1109 c 0,41,42
 262 1045 262 1045 262 978 c 0,43,44
 262 852 262 852 323 766 c 0,45,46
 396 662 396 662 545 662 c 0,47,48
 685 662 685 662 771 758 c 0,49,50
 846 841 846 841 846 967 c 0,51,52
 846 1108 846 1108 767 1195 c 0,53,54
 678 1294 678 1294 550 1294 c 0,37,38
EndSplineSet
Validated: 1
EndChar

StartChar: colon
Encoding: 58 58 29
Width: 569
VWidth: 2458
Flags: W
LayerCount: 2
Fore
SplineSet
438 213 m 1,0,-1
 438 0 l 1,1,-1
 225 0 l 1,2,-1
 225 213 l 1,3,-1
 438 213 l 1,0,-1
438 1073 m 1,4,-1
 438 860 l 1,5,-1
 225 860 l 1,6,-1
 225 1073 l 1,7,-1
 438 1073 l 1,4,-1
EndSplineSet
Validated: 1
EndChar

StartChar: semicolon
Encoding: 59 59 30
Width: 569
VWidth: 2458
Flags: W
LayerCount: 2
Fore
SplineSet
440 1073 m 1,0,-1
 440 860 l 1,1,-1
 227 860 l 1,2,-1
 227 1073 l 1,3,-1
 440 1073 l 1,0,-1
225 213 m 1,4,-1
 440 213 l 1,5,-1
 440 -32 l 2,6,7
 438 -215 438 -215 335 -275 c 0,8,9
 289 -302 289 -302 225 -302 c 1,10,-1
 225 -224 l 1,11,12
 275 -222 275 -222 297 -205 c 0,13,14
 341 -172 341 -172 346 -91 c 0,15,16
 347 -66 347 -66 347 0 c 1,17,-1
 225 0 l 1,18,-1
 225 213 l 1,4,-1
EndSplineSet
Validated: 2097153
EndChar

StartChar: less
Encoding: 60 60 31
Width: 1196
VWidth: 2458
Flags: W
LayerCount: 2
Fore
SplineSet
92 406 m 1,0,-1
 92 547 l 1,1,-1
 1093 971 l 1,2,-1
 1093 808 l 1,3,-1
 286 479 l 1,4,-1
 1093 144 l 1,5,-1
 1093 -18 l 1,6,-1
 92 406 l 1,0,-1
EndSplineSet
Validated: 1
EndChar

StartChar: equal
Encoding: 61 61 32
Width: 1196
VWidth: 2458
Flags: W
LayerCount: 2
Fore
SplineSet
1093 723 m 1,0,-1
 1093 580 l 1,1,-1
 102 580 l 1,2,-1
 102 723 l 1,3,-1
 1093 723 l 1,0,-1
1093 370 m 1,4,-1
 1093 227 l 1,5,-1
 102 227 l 1,6,-1
 102 370 l 1,7,-1
 1093 370 l 1,4,-1
EndSplineSet
Validated: 1
EndChar

StartChar: greater
Encoding: 62 62 33
Width: 1196
VWidth: 2458
Flags: W
LayerCount: 2
Fore
SplineSet
1103 546 m 1,0,-1
 1103 406 l 1,1,-1
 102 -18 l 1,2,-1
 102 144 l 1,3,-1
 909 473 l 1,4,-1
 102 808 l 1,5,-1
 102 971 l 1,6,-1
 1103 546 l 1,0,-1
EndSplineSet
Validated: 1
EndChar

StartChar: question
Encoding: 63 63 34
Width: 1139
VWidth: 2458
Flags: W
LayerCount: 2
Fore
SplineSet
677 408 m 1,0,-1
 493 408 l 1,1,-1
 493 520 l 2,2,3
 494 600 494 600 520 651 c 0,4,5
 548 705 548 705 610 765 c 0,6,7
 656 807 656 807 706 853 c 0,8,9
 788 926 788 926 825 991 c 0,10,11
 860 1051 860 1051 860 1124 c 0,12,13
 860 1236 860 1236 779 1301 c 0,14,15
 709 1358 709 1358 598 1358 c 0,16,17
 430 1358 430 1358 368 1239 c 0,18,19
 333 1171 333 1171 333 1038 c 1,20,-1
 159 1038 l 2,21,22
 159 1041 159 1041 159 1052 c 0,23,24
 158 1105 158 1105 171 1178 c 0,25,26
 202 1351 202 1351 319 1437 c 0,27,28
 429 1518 429 1518 608 1518 c 0,29,30
 813 1518 813 1518 931 1406 c 0,31,32
 1044 1298 1044 1298 1044 1124 c 0,33,34
 1044 1014 1044 1014 995 934 c 0,35,36
 948 855 948 855 839 757 c 0,37,38
 766 690 766 690 748 671.5 c 128,-1,39
 730 653 730 653 710 622 c 0,40,41
 677 571 677 571 677 504 c 2,42,-1
 677 408 l 1,0,-1
677 213 m 1,43,-1
 677 0 l 1,44,-1
 493 0 l 1,45,-1
 493 213 l 1,46,-1
 677 213 l 1,43,-1
EndSplineSet
Validated: 33
EndChar

StartChar: at
Encoding: 64 64 35
Width: 2079
VWidth: 2458
Flags: W
LayerCount: 2
Fore
SplineSet
1363 1026 m 1,0,-1
 1532 1026 l 1,1,-1
 1347 453 l 2,2,3
 1323 377 1323 377 1323 350 c 0,4,5
 1323 316 1323 316 1351 289 c 0,6,7
 1380 260 1380 260 1425 260 c 0,8,9
 1534 260 1534 260 1636 372 c 0,10,11
 1705 447 1705 447 1741 557 c 0,12,13
 1770 644 1770 644 1770 731 c 0,14,15
 1770 908 1770 908 1661 1060 c 0,16,17
 1557 1207 1557 1207 1376 1288 c 0,18,19
 1214 1360 1214 1360 1049 1360 c 0,20,21
 845 1360 845 1360 655 1252 c 0,22,23
 457 1139 457 1139 346 938 c 0,24,25
 244 754 244 754 244 559 c 0,26,27
 244 267 244 267 462 70 c 0,28,29
 574 -31 574 -31 723 -84 c 0,30,31
 861 -133 861 -133 1011 -133 c 0,32,33
 1168 -133 1168 -133 1407 -68 c 1,34,-1
 1464 -204 l 1,35,36
 1236 -291 1236 -291 1001 -291 c 0,37,38
 732 -291 732 -291 505 -165 c 0,39,40
 277 -39 277 -39 162 172 c 0,41,42
 70 339 70 339 70 529 c 0,43,44
 70 822 70 822 243 1079 c 0,45,46
 398 1309 398 1309 659 1426 c 0,47,48
 866 1518 866 1518 1077 1518 c 0,49,50
 1320 1518 1320 1518 1538 1399 c 0,51,52
 1767 1275 1767 1275 1875 1060 c 0,53,54
 1948 915 1948 915 1948 756 c 0,55,56
 1948 616 1948 616 1888 483 c 0,57,58
 1798 283 1798 283 1649 189 c 0,59,60
 1534 117 1534 117 1392 117 c 0,61,62
 1194 117 1194 117 1166 275 c 1,63,64
 1032 127 1032 127 875 127 c 0,65,66
 741 127 741 127 647 222 c 0,67,68
 541 330 541 330 541 502 c 0,69,70
 541 666 541 666 638 817 c 0,71,72
 733 963 733 963 887 1030 c 0,73,74
 980 1069 980 1069 1068 1069 c 0,75,76
 1238 1069 1238 1069 1318 891 c 1,77,-1
 1363 1026 l 1,0,-1
1056 938 m 0,78,79
 930 938 930 938 833 815 c 0,80,81
 786 756 786 756 757 675 c 0,82,83
 725 586 725 586 725 500 c 0,84,85
 725 393 725 393 790 323 c 0,86,87
 849 258 849 258 929 258 c 0,88,89
 1046 258 1046 258 1136 391 c 0,90,91
 1177 451 1177 451 1213 569 c 0,92,93
 1245 669 1245 669 1248 740 c 0,94,95
 1252 828 1252 828 1195 884 c 0,96,97
 1140 938 1140 938 1056 938 c 0,78,79
EndSplineSet
Validated: 33
EndChar

StartChar: A
Encoding: 65 65 36
Width: 1366
VWidth: 2458
Flags: W
LayerCount: 2
Fore
SplineSet
972 449 m 1,0,-1
 395 449 l 1,1,-1
 238 0 l 1,2,-1
 35 0 l 1,3,-1
 568 1493 l 1,4,-1
 814 1493 l 1,5,-1
 1338 0 l 1,6,-1
 1125 0 l 1,7,-1
 972 449 l 1,0,-1
918 609 m 1,8,-1
 688 1288 l 1,9,-1
 443 609 l 1,10,-1
 918 609 l 1,8,-1
EndSplineSet
Validated: 1
EndChar

StartChar: B
Encoding: 66 66 37
Width: 1366
VWidth: 2458
Flags: W
LayerCount: 2
Fore
SplineSet
162 0 m 1,0,-1
 162 1493 l 1,1,-1
 768 1493 l 2,2,3
 976 1493 976 1493 1092 1388 c 0,4,5
 1210 1282 1210 1282 1210 1113 c 0,6,7
 1210 883 1210 883 1003 789 c 1,8,9
 1104 750 1104 750 1160 701 c 0,10,11
 1276 600 1276 600 1276 425 c 0,12,13
 1276 246 1276 246 1161 124 c 0,14,15
 1043 0 1043 0 834 0 c 2,16,-1
 162 0 l 1,0,-1
352 850 m 1,17,-1
 721 850 l 2,18,19
 833 850 833 850 887 874 c 0,20,21
 1019 930 1019 930 1019 1087 c 0,22,23
 1019 1211 1019 1211 937 1273 c 0,24,25
 896 1303 896 1303 851 1313 c 0,26,27
 795 1325 795 1325 721 1325 c 2,28,-1
 352 1325 l 1,29,-1
 352 850 l 1,17,-1
352 168 m 1,30,-1
 816 168 l 2,31,32
 950 168 950 168 1017 239 c 0,33,34
 1086 312 1086 312 1086 425 c 256,35,36
 1086 538 1086 538 1017 611 c 0,37,38
 950 682 950 682 816 682 c 2,39,-1
 352 682 l 1,40,-1
 352 168 l 1,30,-1
EndSplineSet
Validated: 1
EndChar

StartChar: C
Encoding: 67 67 38
Width: 1479
VWidth: 2458
Flags: W
LayerCount: 2
Fore
SplineSet
1356 1030 m 1,0,-1
 1160 1030 l 1,1,2
 1130 1184 1130 1184 1053 1255 c 0,3,4
 1002 1302 1002 1302 917 1327 c 0,5,6
 840 1349 840 1349 758 1349 c 0,7,8
 540 1349 540 1349 422 1195 c 0,9,10
 288 1018 288 1018 288 732 c 0,11,12
 288 456 288 456 418 287 c 0,13,14
 477 211 477 211 569 166 c 0,15,16
 663 121 663 121 773 121 c 0,17,18
 917 121 917 121 1022 193 c 0,19,20
 1117 259 1117 259 1164 423 c 0,21,22
 1178 473 1178 473 1190 545 c 1,23,-1
 1386 545 l 1,24,25
 1317 -47 1317 -47 772 -47 c 0,26,27
 484 -47 484 -47 314 128 c 0,28,29
 98 350 98 350 98 729 c 0,30,31
 98 1102 98 1102 306 1332 c 0,32,33
 475 1518 475 1518 780 1518 c 0,34,35
 1101 1518 1101 1518 1245 1312 c 0,36,37
 1324 1199 1324 1199 1356 1030 c 1,0,-1
EndSplineSet
Validated: 1
EndChar

StartChar: D
Encoding: 68 68 39
Width: 1479
VWidth: 2458
Flags: W
LayerCount: 2
Fore
SplineSet
182 0 m 1,0,-1
 182 1493 l 1,1,-1
 757 1493 l 2,2,3
 1023 1493 1023 1493 1182 1316 c 0,4,5
 1365 1113 1365 1113 1365 747 c 0,6,7
 1365 380 1365 380 1182 177 c 0,8,9
 1022 0 1022 0 757 0 c 2,10,-1
 182 0 l 1,0,-1
372 168 m 1,11,-1
 724 168 l 2,12,13
 945 168 945 168 1062 318 c 0,14,15
 1175 465 1175 465 1175 746 c 0,16,17
 1175 1029 1175 1029 1062 1175 c 0,18,19
 945 1325 945 1325 724 1325 c 2,20,-1
 372 1325 l 1,21,-1
 372 168 l 1,11,-1
EndSplineSet
Validated: 1
EndChar

StartChar: E
Encoding: 69 69 40
Width: 1366
VWidth: 2458
Flags: W
LayerCount: 2
Fore
SplineSet
374 680 m 1,0,-1
 374 168 l 1,1,-1
 1255 168 l 1,2,-1
 1255 0 l 1,3,-1
 184 0 l 1,4,-1
 184 1493 l 1,5,-1
 1218 1493 l 1,6,-1
 1218 1325 l 1,7,-1
 374 1325 l 1,8,-1
 374 848 l 1,9,-1
 1188 848 l 1,10,-1
 1188 680 l 1,11,-1
 374 680 l 1,0,-1
EndSplineSet
Validated: 1
EndChar

StartChar: F
Encoding: 70 70 41
Width: 1251
VWidth: 2458
Flags: W
LayerCount: 2
Fore
SplineSet
374 680 m 1,0,-1
 374 0 l 1,1,-1
 184 0 l 1,2,-1
 184 1493 l 1,3,-1
 1185 1493 l 1,4,-1
 1185 1325 l 1,5,-1
 374 1325 l 1,6,-1
 374 848 l 1,7,-1
 1087 848 l 1,8,-1
 1087 680 l 1,9,-1
 374 680 l 1,0,-1
EndSplineSet
Validated: 1
EndChar

StartChar: G
Encoding: 71 71 42
Width: 1593
VWidth: 2458
Flags: W
LayerCount: 2
Fore
SplineSet
1452 788 m 1,0,-1
 1452 -8 l 1,1,-1
 1332 -8 l 1,2,-1
 1284 190 l 1,3,4
 1070 -47 1070 -47 774 -47 c 0,5,6
 495 -47 495 -47 308 139 c 0,7,8
 197 250 197 250 142 411 c 0,9,10
 90 565 90 565 90 732 c 0,11,12
 90 1015 90 1015 223 1219 c 0,13,14
 417 1518 417 1518 807 1518 c 0,15,16
 1131 1518 1131 1518 1305 1318 c 0,17,18
 1402 1206 1402 1206 1432 1040 c 1,19,-1
 1237 1040 l 1,20,21
 1210 1165 1210 1165 1120 1243 c 0,22,23
 997 1350 997 1350 804 1350 c 0,24,25
 585 1350 585 1350 446 1208 c 0,26,27
 369 1129 369 1129 328 1016 c 0,28,29
 280 886 280 886 280 742 c 0,30,31
 280 546 280 546 360 387 c 0,32,33
 435 238 435 238 575 172 c 0,34,35
 684 121 684 121 815 121 c 0,36,37
 1024 121 1024 121 1155 254 c 0,38,39
 1284 387 1284 387 1284 580 c 2,40,-1
 1284 620 l 1,41,-1
 829 620 l 1,42,-1
 829 788 l 1,43,-1
 1452 788 l 1,0,-1
EndSplineSet
Validated: 1
EndChar

StartChar: H
Encoding: 72 72 43
Width: 1479
VWidth: 2458
Flags: W
LayerCount: 2
Fore
SplineSet
1129 680 m 1,0,-1
 363 680 l 1,1,-1
 363 0 l 1,2,-1
 170 0 l 1,3,-1
 170 1493 l 1,4,-1
 360 1493 l 1,5,-1
 360 848 l 1,6,-1
 1129 848 l 1,7,-1
 1129 1493 l 1,8,-1
 1319 1493 l 1,9,-1
 1319 0 l 1,10,-1
 1129 0 l 1,11,-1
 1129 680 l 1,0,-1
EndSplineSet
Validated: 1
EndChar

StartChar: I
Encoding: 73 73 44
Width: 569
VWidth: 2458
Flags: W
LayerCount: 2
Fore
SplineSet
398 1493 m 1,0,-1
 398 0 l 1,1,-1
 205 0 l 1,2,-1
 205 1493 l 1,3,-1
 398 1493 l 1,0,-1
EndSplineSet
Validated: 1
EndChar

StartChar: J
Encoding: 74 74 45
Width: 1024
VWidth: 2458
Flags: W
LayerCount: 2
Fore
SplineSet
683 1493 m 1,0,-1
 873 1493 l 1,1,-1
 873 372 l 2,2,3
 873 183 873 183 761 70 c 0,4,5
 646 -47 646 -47 451 -47 c 0,6,7
 261 -47 261 -47 148 60 c 0,8,9
 35 168 35 168 35 348 c 2,10,-1
 35 479 l 1,11,-1
 230 479 l 1,12,-1
 230 383 l 2,13,14
 230 258 230 258 281 192 c 0,15,16
 342 113 342 113 453 113 c 0,17,18
 536 113 536 113 597 162 c 0,19,20
 653 207 653 207 671 290 c 0,21,22
 683 345 683 345 683 442 c 2,23,-1
 683 1493 l 1,0,-1
EndSplineSet
Validated: 1
EndChar

StartChar: K
Encoding: 75 75 46
Width: 1366
VWidth: 2458
Flags: W
LayerCount: 2
Fore
SplineSet
352 523 m 1,0,-1
 352 0 l 1,1,-1
 162 0 l 1,2,-1
 162 1493 l 1,3,-1
 352 1493 l 1,4,-1
 352 738 l 1,5,-1
 1096 1493 l 1,6,-1
 1342 1493 l 1,7,-1
 732 885 l 1,8,-1
 1347 0 l 1,9,-1
 1121 0 l 1,10,-1
 596 766 l 1,11,-1
 352 523 l 1,0,-1
EndSplineSet
Validated: 1
EndChar

StartChar: L
Encoding: 76 76 47
Width: 1139
VWidth: 2458
Flags: W
LayerCount: 2
Fore
SplineSet
354 1493 m 1,0,-1
 354 168 l 1,1,-1
 1092 168 l 1,2,-1
 1092 0 l 1,3,-1
 164 0 l 1,4,-1
 164 1493 l 1,5,-1
 354 1493 l 1,0,-1
EndSplineSet
Validated: 1
EndChar

StartChar: M
Encoding: 77 77 48
Width: 1706
VWidth: 2458
Flags: W
LayerCount: 2
Fore
SplineSet
959 0 m 1,0,-1
 759 0 l 1,1,-1
 334 1252 l 1,2,-1
 334 0 l 1,3,-1
 154 0 l 1,4,-1
 154 1493 l 1,5,-1
 417 1493 l 1,6,-1
 861 193 l 1,7,-1
 1295 1493 l 1,8,-1
 1559 1493 l 1,9,-1
 1559 0 l 1,10,-1
 1379 0 l 1,11,-1
 1379 1252 l 1,12,-1
 959 0 l 1,0,-1
EndSplineSet
Validated: 2097153
EndChar

StartChar: N
Encoding: 78 78 49
Width: 1479
VWidth: 2458
Flags: W
LayerCount: 2
Fore
SplineSet
1323 1493 m 1,0,-1
 1323 0 l 1,1,-1
 1109 0 l 1,2,-1
 336 1211 l 1,3,-1
 336 0 l 1,4,-1
 156 0 l 1,5,-1
 156 1493 l 1,6,-1
 363 1493 l 1,7,-1
 1143 273 l 1,8,-1
 1143 1493 l 1,9,-1
 1323 1493 l 1,0,-1
EndSplineSet
Validated: 1
EndChar

StartChar: O
Encoding: 79 79 50
Width: 1593
VWidth: 2458
Flags: W
LayerCount: 2
Fore
SplineSet
798 1518 m 0,0,1
 1075 1518 1075 1518 1262 1359 c 0,2,3
 1394 1248 1394 1248 1459 1076 c 0,4,5
 1520 914 1520 914 1520 724 c 0,6,7
 1520 469 1520 469 1397 270 c 0,8,9
 1286 88 1286 88 1092 8 c 0,10,11
 959 -47 959 -47 799 -47 c 0,12,13
 522 -47 522 -47 336 112 c 0,14,15
 205 223 205 223 139 395 c 0,16,17
 78 556 78 556 78 736 c 0,18,19
 78 1002 78 1002 201 1201 c 0,20,21
 314 1385 314 1385 506 1463 c 0,22,23
 640 1518 640 1518 798 1518 c 0,0,1
798 1350 m 0,24,25
 654 1350 654 1350 532 1280 c 0,26,27
 397 1202 397 1202 330 1049 c 0,28,29
 268 908 268 908 268 736 c 0,30,31
 268 533 268 533 351 380 c 0,32,33
 427 239 427 239 570 171 c 0,34,35
 676 121 676 121 799 121 c 0,36,37
 1022 121 1022 121 1166 268 c 0,38,39
 1243 348 1243 348 1285 465 c 0,40,41
 1330 593 1330 593 1330 727 c 0,42,43
 1330 1034 1330 1034 1166 1203 c 0,44,45
 1093 1278 1093 1278 989 1316 c 0,46,47
 897 1350 897 1350 798 1350 c 0,24,25
EndSplineSet
Validated: 1
EndChar

StartChar: P
Encoding: 80 80 51
Width: 1366
VWidth: 2458
Flags: W
LayerCount: 2
Fore
SplineSet
376 633 m 1,0,-1
 376 0 l 1,1,-1
 186 0 l 1,2,-1
 186 1493 l 1,3,-1
 803 1493 l 2,4,5
 999 1493 999 1493 1116 1401 c 0,6,7
 1263 1286 1263 1286 1263 1056 c 0,8,9
 1263 858 1263 858 1134 740 c 0,10,11
 1017 633 1017 633 844 633 c 2,12,-1
 376 633 l 1,0,-1
376 801 m 1,13,-1
 774 801 l 2,14,15
 918 801 918 801 992 875 c 0,16,17
 1064 948 1064 948 1064 1063 c 256,18,19
 1064 1178 1064 1178 992 1250 c 0,20,21
 918 1325 918 1325 774 1325 c 2,22,-1
 376 1325 l 1,23,-1
 376 801 l 1,13,-1
EndSplineSet
Validated: 1
EndChar

StartChar: Q
Encoding: 81 81 52
Width: 1593
VWidth: 2458
Flags: W
LayerCount: 2
Fore
SplineSet
1501 -1 m 1,0,-1
 1405 -121 l 1,1,-1
 1189 58 l 1,2,3
 1016 -47 1016 -47 798 -47 c 0,4,5
 522 -47 522 -47 336 112 c 0,6,7
 204 223 204 223 139 395 c 0,8,9
 78 557 78 557 78 736 c 0,10,11
 78 1002 78 1002 201 1201 c 0,12,13
 313 1383 313 1383 506 1463 c 0,14,15
 639 1518 639 1518 799 1518 c 0,16,17
 1076 1518 1076 1518 1262 1359 c 0,18,19
 1393 1248 1393 1248 1459 1076 c 0,20,21
 1520 916 1520 916 1520 739 c 0,22,23
 1520 543 1520 543 1450 372 c 0,24,25
 1403 258 1403 258 1310 155 c 1,26,-1
 1501 -1 l 1,0,-1
985 420 m 1,27,-1
 1168 271 l 1,28,29
 1330 454 1330 454 1330 737 c 0,30,31
 1330 937 1330 937 1248 1090 c 0,32,33
 1172 1232 1172 1232 1028 1299 c 0,34,35
 921 1350 921 1350 799 1350 c 0,36,37
 576 1350 576 1350 432 1203 c 0,38,39
 354 1123 354 1123 313 1006 c 0,40,41
 268 877 268 877 268 736 c 0,42,43
 268 534 268 534 350 380 c 0,44,45
 426 239 426 239 569 171 c 0,46,47
 676 121 676 121 798 121 c 256,48,49
 920 121 920 121 1044 178 c 1,50,-1
 890 305 l 1,51,-1
 985 420 l 1,27,-1
EndSplineSet
Validated: 1
EndChar

StartChar: R
Encoding: 82 82 53
Width: 1479
VWidth: 2458
Flags: W
LayerCount: 2
Fore
SplineSet
380 643 m 1,0,-1
 380 0 l 1,1,-1
 190 0 l 1,2,-1
 190 1493 l 1,3,-1
 877 1493 l 2,4,5
 1081 1493 1081 1493 1197 1405 c 0,6,7
 1333 1300 1333 1300 1333 1093 c 0,8,9
 1333 973 1333 973 1290 902 c 0,10,11
 1230 803 1230 803 1096 737 c 1,12,13
 1194 699 1194 699 1245 630 c 0,14,15
 1278 583 1278 583 1289 509 c 0,16,17
 1297 464 1297 464 1300 348 c 0,18,19
 1304 181 1304 181 1324 129 c 0,20,21
 1346 77 1346 77 1390 48 c 1,22,-1
 1390 0 l 1,23,-1
 1159 0 l 1,24,25
 1115 97 1115 97 1115 243 c 2,26,-1
 1118 377 l 2,27,28
 1118 512 1118 512 1062 575 c 0,29,30
 1003 643 1003 643 871 643 c 2,31,-1
 380 643 l 1,0,-1
380 811 m 1,32,-1
 840 811 l 2,33,34
 990 811 990 811 1057 868 c 0,35,36
 1134 934 1134 934 1134 1068 c 256,37,38
 1134 1202 1134 1202 1057 1268 c 0,39,40
 990 1325 990 1325 840 1325 c 2,41,-1
 380 1325 l 1,42,-1
 380 811 l 1,32,-1
EndSplineSet
Validated: 1
EndChar

StartChar: S
Encoding: 83 83 54
Width: 1366
VWidth: 2458
Flags: W
LayerCount: 2
Fore
SplineSet
1221 1055 m 1,0,-1
 1041 1055 l 1,1,2
 1038 1183 1038 1183 965 1258 c 0,3,4
 867 1358 867 1358 668 1358 c 0,5,6
 516 1358 516 1358 427 1290 c 0,7,8
 334 1219 334 1219 334 1106 c 0,9,10
 334 1012 334 1012 401 960 c 0,11,12
 454 918 454 918 580 885 c 2,13,-1
 953 784 l 2,14,15
 1107 743 1107 743 1187 649 c 0,16,17
 1272 549 1272 549 1272 410 c 0,18,19
 1272 279 1272 279 1194 163 c 0,20,21
 1054 -47 1054 -47 689 -47 c 0,22,23
 341 -47 341 -47 185 166 c 0,24,25
 102 281 102 281 98 475 c 1,26,-1
 278 475 l 1,27,28
 277 340 277 340 356 247 c 0,29,30
 462 121 462 121 701 121 c 0,31,32
 884 121 884 121 975 184 c 0,33,34
 1025 218 1025 218 1055 279 c 0,35,36
 1082 333 1082 333 1082 391 c 0,37,38
 1082 477 1082 477 1015 538 c 0,39,40
 951 595 951 595 807 633 c 2,41,-1
 435 730 l 2,42,43
 143 807 143 807 143 1081 c 0,44,45
 143 1276 143 1276 279 1396 c 0,46,47
 418 1518 418 1518 673 1518 c 0,48,49
 1000 1518 1000 1518 1140 1325 c 0,50,51
 1221 1213 1221 1213 1221 1082 c 0,52,53
 1221 1070 1221 1070 1221 1055 c 1,0,-1
EndSplineSet
Validated: 33
EndChar

StartChar: T
Encoding: 84 84 55
Width: 1251
VWidth: 2458
Flags: W
LayerCount: 2
Fore
SplineSet
725 1325 m 1,0,-1
 725 0 l 1,1,-1
 535 0 l 1,2,-1
 535 1325 l 1,3,-1
 43 1325 l 1,4,-1
 43 1493 l 1,5,-1
 1214 1493 l 1,6,-1
 1214 1325 l 1,7,-1
 725 1325 l 1,0,-1
EndSplineSet
Validated: 1
EndChar

StartChar: U
Encoding: 85 85 56
Width: 1479
VWidth: 2458
Flags: W
LayerCount: 2
Fore
SplineSet
1131 1493 m 1,0,-1
 1321 1493 l 1,1,-1
 1321 445 l 2,2,3
 1321 206 1321 206 1146 72 c 0,4,5
 990 -47 990 -47 745 -47 c 0,6,7
 499 -47 499 -47 344 72 c 0,8,9
 174 203 174 203 174 445 c 2,10,-1
 174 1493 l 1,11,-1
 364 1493 l 1,12,-1
 364 445 l 2,13,14
 364 281 364 281 473 200 c 0,15,16
 579 121 579 121 745 121 c 0,17,18
 910 121 910 121 1017 200 c 0,19,20
 1131 284 1131 284 1131 445 c 2,21,-1
 1131 1493 l 1,0,-1
EndSplineSet
Validated: 1
EndChar

StartChar: V
Encoding: 86 86 57
Width: 1366
VWidth: 2458
Flags: W
LayerCount: 2
Fore
SplineSet
803 0 m 1,0,-1
 597 0 l 1,1,-1
 61 1493 l 1,2,-1
 266 1493 l 1,3,-1
 705 228 l 1,4,-1
 1118 1493 l 1,5,-1
 1321 1493 l 1,6,-1
 803 0 l 1,0,-1
EndSplineSet
Validated: 2097153
EndChar

StartChar: W
Encoding: 87 87 58
Width: 1933
VWidth: 2458
Flags: W
LayerCount: 2
Fore
SplineSet
1524 0 m 1,0,-1
 1314 0 l 1,1,-1
 970 1227 l 1,2,-1
 636 0 l 1,3,-1
 427 0 l 1,4,-1
 45 1493 l 1,5,-1
 258 1493 l 1,6,-1
 538 281 l 1,7,-1
 870 1493 l 1,8,-1
 1076 1493 l 1,9,-1
 1415 281 l 1,10,-1
 1690 1493 l 1,11,-1
 1903 1493 l 1,12,-1
 1524 0 l 1,0,-1
EndSplineSet
Validated: 1
EndChar

StartChar: X
Encoding: 88 88 59
Width: 1366
VWidth: 2458
Flags: W
LayerCount: 2
Fore
SplineSet
800 766 m 1,0,-1
 1329 0 l 1,1,-1
 1093 0 l 1,2,-1
 687 623 l 1,3,-1
 276 0 l 1,4,-1
 45 0 l 1,5,-1
 574 766 l 1,6,-1
 78 1493 l 1,7,-1
 309 1493 l 1,8,-1
 692 907 l 1,9,-1
 1077 1493 l 1,10,-1
 1305 1493 l 1,11,-1
 800 766 l 1,0,-1
EndSplineSet
Validated: 1
EndChar

StartChar: Y
Encoding: 89 89 60
Width: 1366
VWidth: 2458
Flags: W
LayerCount: 2
Fore
SplineSet
792 585 m 1,0,-1
 792 0 l 1,1,-1
 602 0 l 1,2,-1
 602 585 l 1,3,-1
 27 1493 l 1,4,-1
 261 1493 l 1,5,-1
 701 766 l 1,6,-1
 1125 1493 l 1,7,-1
 1353 1493 l 1,8,-1
 792 585 l 1,0,-1
EndSplineSet
Validated: 1
EndChar

StartChar: Z
Encoding: 90 90 61
Width: 1251
VWidth: 2458
Flags: W
LayerCount: 2
Fore
SplineSet
1190 1493 m 1,0,-1
 1190 1321 l 1,1,-1
 296 168 l 1,2,-1
 1194 168 l 1,3,-1
 1194 0 l 1,4,-1
 57 0 l 1,5,-1
 57 168 l 1,6,-1
 954 1325 l 1,7,-1
 114 1325 l 1,8,-1
 114 1493 l 1,9,-1
 1190 1493 l 1,0,-1
EndSplineSet
Validated: 1
EndChar

StartChar: bracketleft
Encoding: 91 91 62
Width: 569
VWidth: 2458
Flags: W
LayerCount: 2
Fore
SplineSet
512 1493 m 1,0,-1
 512 1346 l 1,1,-1
 301 1346 l 1,2,-1
 301 -287 l 1,3,-1
 512 -287 l 1,4,-1
 512 -434 l 1,5,-1
 131 -434 l 1,6,-1
 131 1493 l 1,7,-1
 512 1493 l 1,0,-1
EndSplineSet
Validated: 1
EndChar

StartChar: backslash
Encoding: 92 92 63
Width: 569
VWidth: 2458
Flags: W
LayerCount: 2
Fore
SplineSet
97 1493 m 1,0,-1
 582 -41 l 1,1,-1
 469 -41 l 1,2,-1
 -16 1493 l 1,3,-1
 97 1493 l 1,0,-1
EndSplineSet
Validated: 1
EndChar

StartChar: bracketright
Encoding: 93 93 64
Width: 569
VWidth: 2458
Flags: W
LayerCount: 2
Fore
SplineSet
47 -434 m 1,0,-1
 47 -287 l 1,1,-1
 258 -287 l 1,2,-1
 258 1346 l 1,3,-1
 47 1346 l 1,4,-1
 47 1493 l 1,5,-1
 428 1493 l 1,6,-1
 428 -434 l 1,7,-1
 47 -434 l 1,0,-1
EndSplineSet
Validated: 1
EndChar

StartChar: asciicircum
Encoding: 94 94 65
Width: 961
VWidth: 2458
Flags: W
LayerCount: 2
Fore
SplineSet
403 1452 m 1,0,-1
 554 1452 l 1,1,-1
 870 674 l 1,2,-1
 728 674 l 1,3,-1
 478 1289 l 1,4,-1
 231 674 l 1,5,-1
 90 674 l 1,6,-1
 403 1452 l 1,0,-1
EndSplineSet
Validated: 1
EndChar

StartChar: underscore
Encoding: 95 95 66
Width: 1139
VWidth: 2458
Flags: W
LayerCount: 2
Fore
SplineSet
1184 -258 m 1,0,-1
 1184 -360 l 1,1,-1
 -45 -360 l 1,2,-1
 -45 -258 l 1,3,-1
 1184 -258 l 1,0,-1
EndSplineSet
Validated: 1
EndChar

StartChar: grave
Encoding: 96 96 67
Width: 682
VWidth: 2458
Flags: W
LayerCount: 2
Fore
SplineSet
276 1516 m 1,0,-1
 473 1212 l 1,1,-1
 350 1212 l 1,2,-1
 45 1516 l 1,3,-1
 276 1516 l 1,0,-1
EndSplineSet
Validated: 1
EndChar

StartChar: a
Encoding: 97 97 68
Width: 1139
VWidth: 2458
Flags: W
LayerCount: 2
Fore
SplineSet
1096 101 m 1,0,-1
 1096 -28 l 1,1,2
 1024 -47 1024 -47 979 -47 c 0,3,4
 819 -47 819 -47 803 111 c 1,5,6
 723 37 723 37 645 -1 c 0,7,8
 551 -47 551 -47 438 -47 c 0,9,10
 274 -47 274 -47 177 41 c 0,11,12
 86 124 86 124 86 271 c 0,13,14
 86 479 86 479 276 558 c 0,15,16
 338 584 338 584 465 603 c 0,17,18
 481 605 481 605 619 623 c 0,19,20
 730 637 730 637 762 663 c 0,21,22
 796 688 796 688 797 741 c 2,23,-1
 797 786 l 2,24,25
 797 872 797 872 724 911 c 0,26,27
 659 946 659 946 556 946 c 0,28,29
 325 946 325 946 306 756 c 1,30,-1
 134 756 l 1,31,32
 140 903 140 903 207 978 c 0,33,34
 320 1104 320 1104 563 1104 c 0,35,36
 787 1104 787 1104 888 1011 c 0,37,38
 967 938 967 938 967 810 c 2,39,-1
 967 181 l 2,40,41
 967 96 967 96 1059 96 c 0,42,43
 1073 96 1073 96 1096 101 c 1,0,-1
797 530 m 1,44,45
 753 510 753 510 698 498 c 0,46,47
 650 489 650 489 522 470 c 0,48,49
 389 451 389 451 330 409 c 0,50,51
 264 362 264 362 264 274 c 0,52,53
 264 202 264 202 313 154 c 0,54,55
 366 102 366 102 476 102 c 0,56,57
 625 102 625 102 730 199 c 0,58,59
 780 245 780 245 792 289 c 0,60,61
 797 307 797 307 797 338 c 2,62,-1
 797 530 l 1,44,45
EndSplineSet
Validated: 1
EndChar

StartChar: b
Encoding: 98 98 69
Width: 1139
VWidth: 2458
Flags: W
LayerCount: 2
Fore
SplineSet
111 1493 m 1,0,-1
 281 1493 l 1,1,-1
 281 928 l 1,2,3
 398 1104 398 1104 612 1104 c 0,4,5
 740 1104 740 1104 847 1041 c 0,6,7
 968 970 968 970 1025 822 c 0,8,9
 1072 699 1072 699 1072 540 c 0,10,11
 1072 280 1072 280 948 117 c 0,12,13
 881 29 881 29 775 -15 c 0,14,15
 696 -47 696 -47 605 -47 c 0,16,17
 383 -47 383 -47 265 138 c 1,18,-1
 265 0 l 1,19,-1
 111 0 l 1,20,-1
 111 1493 l 1,0,-1
581 944 m 0,21,22
 433 944 433 944 354 819 c 0,23,24
 281 702 281 702 281 529 c 256,25,26
 281 356 281 356 354 239 c 0,27,28
 432 113 432 113 581 113 c 0,29,30
 681 113 681 113 759 176 c 0,31,32
 834 236 834 236 869 349 c 0,33,34
 894 429 894 429 894 523 c 0,35,36
 894 706 894 706 817 819 c 0,37,38
 731 944 731 944 581 944 c 0,21,22
EndSplineSet
Validated: 1
EndChar

StartChar: c
Encoding: 99 99 70
Width: 1024
VWidth: 2458
Flags: W
LayerCount: 2
Fore
SplineSet
964 713 m 1,0,-1
 792 713 l 1,1,2
 780 808 780 808 730 867 c 0,3,4
 662 947 662 947 539 947 c 0,5,6
 406 947 406 947 331 849 c 0,7,8
 241 732 241 732 241 519 c 0,9,10
 241 325 241 325 325 215 c 0,11,12
 404 111 404 111 542 111 c 0,13,14
 761 111 761 111 804 369 c 1,15,-1
 976 369 l 1,16,17
 965 223 965 223 897 124 c 0,18,19
 781 -47 781 -47 538 -47 c 0,20,21
 338 -47 338 -47 215 81 c 0,22,23
 63 239 63 239 63 518 c 0,24,25
 63 788 63 788 198 950 c 0,26,27
 325 1104 325 1104 541 1104 c 0,28,29
 674 1104 674 1104 778 1045 c 0,30,31
 903 974 903 974 944 834 c 0,32,33
 958 785 958 785 964 713 c 1,0,-1
EndSplineSet
Validated: 1
EndChar

StartChar: d
Encoding: 100 100 71
Width: 1139
VWidth: 2458
Flags: W
LayerCount: 2
Fore
SplineSet
1014 1493 m 1,0,-1
 1014 0 l 1,1,-1
 862 0 l 1,2,-1
 862 141 l 1,3,4
 733 -47 733 -47 520 -47 c 0,5,6
 381 -47 381 -47 270 25 c 0,7,8
 143 107 143 107 89 283 c 0,9,10
 53 399 53 399 53 540 c 0,11,12
 53 814 53 814 193 966 c 0,13,14
 320 1104 320 1104 514 1104 c 0,15,16
 733 1104 733 1104 844 939 c 1,17,-1
 844 1493 l 1,18,-1
 1014 1493 l 1,0,-1
543 944 m 0,19,20
 444 944 444 944 366 881 c 0,21,22
 231 772 231 772 231 529 c 0,23,24
 231 354 231 354 309 239 c 0,25,26
 349 178 349 178 414 144 c 0,27,28
 474 113 474 113 544 113 c 0,29,30
 693 113 693 113 771 239 c 0,31,32
 844 356 844 356 844 523 c 0,33,34
 844 704 844 704 771 819 c 0,35,36
 691 944 691 944 543 944 c 0,19,20
EndSplineSet
Validated: 1
EndChar

StartChar: e
Encoding: 101 101 72
Width: 1139
VWidth: 2458
Flags: W
LayerCount: 2
Fore
SplineSet
1051 479 m 1,0,-1
 260 479 l 1,1,2
 262 334 262 334 317 250 c 0,3,4
 408 111 408 111 575 111 c 0,5,6
 784 111 784 111 857 326 c 1,7,-1
 1029 326 l 1,8,9
 1005 197 1005 197 928 104 c 0,10,11
 802 -47 802 -47 570 -47 c 0,12,13
 342 -47 342 -47 210 109 c 0,14,15
 82 259 82 259 82 521 c 0,16,17
 82 797 82 797 223 953 c 0,18,19
 359 1104 359 1104 574 1104 c 0,20,21
 749 1104 749 1104 877 1002 c 0,22,23
 1021 886 1021 886 1044 645 c 0,24,25
 1051 578 1051 578 1051 479 c 1,0,-1
867 618 m 1,26,27
 868 624 868 624 868 630 c 0,28,29
 868 734 868 734 810 820 c 0,30,31
 725 946 725 946 571 946 c 0,32,33
 403 946 403 946 318 800 c 0,34,35
 272 723 272 723 265 618 c 1,36,-1
 867 618 l 1,26,27
EndSplineSet
Validated: 1
EndChar

StartChar: f
Encoding: 102 102 73
Width: 569
VWidth: 2458
Flags: W
LayerCount: 2
Fore
SplineSet
529 1073 m 1,0,-1
 529 934 l 1,1,-1
 350 934 l 1,2,-1
 350 0 l 1,3,-1
 180 0 l 1,4,-1
 180 934 l 1,5,-1
 37 934 l 1,6,-1
 37 1073 l 1,7,-1
 180 1073 l 1,8,-1
 180 1255 l 2,9,10
 180 1378 180 1378 257 1443 c 0,11,12
 323 1499 323 1499 432 1499 c 0,13,14
 476 1499 476 1499 529 1489 c 1,15,-1
 529 1347 l 1,16,-1
 510 1348 l 2,17,18
 481 1349 481 1349 470 1349 c 0,19,20
 350 1349 350 1349 350 1241 c 2,21,-1
 350 1073 l 1,22,-1
 529 1073 l 1,0,-1
EndSplineSet
Validated: 1
EndChar

StartChar: g
Encoding: 103 103 74
Width: 1139
VWidth: 2458
Flags: W
LayerCount: 2
Fore
SplineSet
843 1073 m 1,0,-1
 1001 1073 l 1,1,-1
 1001 175 l 2,2,3
 1001 -50 1001 -50 965 -165 c 0,4,5
 876 -446 876 -446 521 -446 c 0,6,7
 278 -446 278 -446 165 -306 c 0,8,9
 104 -230 104 -230 95 -123 c 1,10,-1
 269 -123 l 1,11,12
 282 -206 282 -206 332 -246 c 0,13,14
 406 -303 406 -303 528 -303 c 0,15,16
 694 -303 694 -303 765 -203 c 0,17,18
 827 -117 827 -117 827 91 c 2,19,-1
 827 146 l 1,20,21
 773 70 773 70 726 32 c 0,22,23
 628 -47 628 -47 502 -47 c 0,24,25
 383 -47 383 -47 278 24 c 0,26,27
 59 171 59 171 59 517 c 0,28,29
 59 803 59 803 204 966 c 0,30,31
 259 1027 259 1027 336 1063 c 0,32,33
 421 1104 421 1104 515 1104 c 0,34,35
 627 1104 627 1104 719 1045 c 0,36,37
 785 1004 785 1004 843 917 c 1,38,-1
 843 1073 l 1,0,-1
535 947 m 0,39,40
 436 947 436 947 358 880 c 0,41,42
 237 776 237 776 237 529 c 0,43,44
 237 348 237 348 307 236 c 0,45,46
 341 181 341 181 400 147 c 0,47,48
 462 111 462 111 535 111 c 0,49,50
 636 111 636 111 711 177 c 0,51,52
 827 280 827 280 827 523 c 0,53,54
 827 711 827 711 760 822 c 0,55,56
 726 877 726 877 670 910 c 0,57,58
 607 947 607 947 535 947 c 0,39,40
EndSplineSet
Validated: 1
EndChar

StartChar: h
Encoding: 104 104 75
Width: 1139
VWidth: 2458
Flags: W
LayerCount: 2
Fore
SplineSet
143 1493 m 1,0,-1
 313 1493 l 1,1,-1
 313 926 l 1,2,3
 370 1000 370 1000 418 1035 c 0,4,5
 515 1104 515 1104 657 1104 c 0,6,7
 801 1104 801 1104 889 1039 c 0,8,9
 995 960 995 960 995 812 c 2,10,-1
 995 0 l 1,11,-1
 825 0 l 1,12,-1
 825 743 l 2,13,14
 825 854 825 854 756 906 c 0,15,16
 692 954 692 954 605 954 c 0,17,18
 485 954 485 954 402 866 c 0,19,20
 313 771 313 771 313 591 c 2,21,-1
 313 0 l 1,22,-1
 143 0 l 1,23,-1
 143 1493 l 1,0,-1
EndSplineSet
Validated: 1
EndChar

StartChar: i
Encoding: 105 105 76
Width: 455
VWidth: 2458
Flags: W
LayerCount: 2
Fore
SplineSet
306 1073 m 1,0,-1
 306 0 l 1,1,-1
 136 0 l 1,2,-1
 136 1073 l 1,3,-1
 306 1073 l 1,0,-1
307 1493 m 1,4,-1
 307 1278 l 1,5,-1
 135 1278 l 1,6,-1
 135 1493 l 1,7,-1
 307 1493 l 1,4,-1
EndSplineSet
Validated: 1
EndChar

StartChar: j
Encoding: 106 106 77
Width: 455
VWidth: 2458
Flags: W
LayerCount: 2
Fore
SplineSet
143 1073 m 1,0,-1
 313 1073 l 1,1,-1
 313 -224 l 2,2,3
 313 -336 313 -336 236 -391 c 256,4,5
 159 -446 159 -446 21 -446 c 0,6,7
 -12 -446 -12 -446 -37 -441 c 1,8,-1
 -37 -295 l 1,9,10
 -1 -297 -1 -297 4 -297 c 0,11,12
 94 -297 94 -297 124 -252 c 0,13,14
 143 -225 143 -225 143 -155 c 2,15,-1
 143 1073 l 1,0,-1
313 1493 m 1,16,-1
 313 1278 l 1,17,-1
 143 1278 l 1,18,-1
 143 1493 l 1,19,-1
 313 1493 l 1,16,-1
EndSplineSet
Validated: 1
EndChar

StartChar: k
Encoding: 107 107 78
Width: 1024
VWidth: 2458
Flags: W
LayerCount: 2
Fore
SplineSet
289 1493 m 1,0,-1
 289 618 l 1,1,-1
 743 1073 l 1,2,-1
 964 1073 l 1,3,-1
 589 703 l 1,4,-1
 1028 0 l 1,5,-1
 818 0 l 1,6,-1
 455 582 l 1,7,-1
 289 419 l 1,8,-1
 289 0 l 1,9,-1
 119 0 l 1,10,-1
 119 1493 l 1,11,-1
 289 1493 l 1,0,-1
EndSplineSet
Validated: 1
EndChar

StartChar: l
Encoding: 108 108 79
Width: 455
VWidth: 2458
Flags: W
LayerCount: 2
Fore
SplineSet
311 1493 m 1,0,-1
 311 0 l 1,1,-1
 139 0 l 1,2,-1
 139 1493 l 1,3,-1
 311 1493 l 1,0,-1
EndSplineSet
Validated: 1
EndChar

StartChar: m
Encoding: 109 109 80
Width: 1706
VWidth: 2458
Flags: W
LayerCount: 2
Fore
SplineSet
144 1073 m 1,0,-1
 302 1073 l 1,1,-1
 302 921 l 1,2,3
 359 1004 359 1004 419 1043 c 0,4,5
 510 1104 510 1104 632 1104 c 0,6,7
 769 1104 769 1104 852 1031 c 0,8,9
 888 999 888 999 921 940 c 1,10,11
 977 1007 977 1007 1021 1039 c 0,12,13
 1115 1104 1115 1104 1251 1104 c 0,14,15
 1407 1104 1407 1104 1490 1017 c 0,16,17
 1561 943 1561 943 1561 804 c 2,18,-1
 1561 0 l 1,19,-1
 1389 0 l 1,20,-1
 1389 739 l 2,21,22
 1389 849 1389 849 1332 902 c 0,23,24
 1275 954 1275 954 1190 954 c 0,25,26
 1085 954 1085 954 1012 870 c 0,27,28
 939 788 939 788 939 674 c 2,29,-1
 939 0 l 1,30,-1
 767 0 l 1,31,-1
 767 739 l 2,32,33
 767 849 767 849 711 902 c 0,34,35
 655 954 655 954 568 954 c 0,36,37
 462 954 462 954 389 870 c 0,38,39
 316 788 316 788 316 674 c 2,40,-1
 316 0 l 1,41,-1
 144 0 l 1,42,-1
 144 1073 l 1,0,-1
EndSplineSet
Validated: 1
EndChar

StartChar: n
Encoding: 110 110 81
Width: 1139
VWidth: 2458
Flags: W
LayerCount: 2
Fore
SplineSet
143 1073 m 1,0,-1
 301 1073 l 1,1,-1
 301 894 l 1,2,3
 358 985 358 985 419 1030 c 0,4,5
 518 1104 518 1104 657 1104 c 0,6,7
 795 1104 795 1104 887 1039 c 0,8,9
 997 960 997 960 997 812 c 2,10,-1
 997 0 l 1,11,-1
 827 0 l 1,12,-1
 827 743 l 2,13,14
 827 851 827 851 757 906 c 0,15,16
 695 954 695 954 606 954 c 0,17,18
 486 954 486 954 404 866 c 0,19,20
 315 771 315 771 315 591 c 2,21,-1
 315 0 l 1,22,-1
 143 0 l 1,23,-1
 143 1073 l 1,0,-1
EndSplineSet
Validated: 1
EndChar

StartChar: o
Encoding: 111 111 82
Width: 1139
VWidth: 2458
Flags: W
LayerCount: 2
Fore
SplineSet
558 1104 m 0,0,1
 793 1104 793 1104 923 943 c 0,2,3
 1045 792 1045 792 1045 521 c 0,4,5
 1045 267 1045 267 923 114 c 0,6,7
 794 -47 794 -47 559 -47 c 0,8,9
 325 -47 325 -47 196 114 c 0,10,11
 74 267 74 267 74 529 c 0,12,13
 74 790 74 790 196 943 c 0,14,15
 325 1104 325 1104 558 1104 c 0,0,1
559 946 m 0,16,17
 450 946 450 946 369 873 c 0,18,19
 252 768 252 768 252 529 c 0,20,21
 252 359 252 359 316 249 c 0,22,23
 351 188 351 188 414 150 c 0,24,25
 480 111 480 111 559 111 c 0,26,27
 669 111 669 111 750 184 c 0,28,29
 867 289 867 289 867 523 c 0,30,31
 867 700 867 700 803 808 c 0,32,33
 767 870 767 870 705 907 c 0,34,35
 639 946 639 946 559 946 c 0,16,17
EndSplineSet
Validated: 1
EndChar

StartChar: p
Encoding: 112 112 83
Width: 1139
VWidth: 2458
Flags: W
LayerCount: 2
Fore
SplineSet
111 -446 m 1,0,-1
 111 1073 l 1,1,-1
 269 1073 l 1,2,-1
 269 912 l 1,3,4
 388 1104 388 1104 612 1104 c 0,5,6
 745 1104 745 1104 856 1032 c 0,7,8
 982 950 982 950 1036 774 c 0,9,10
 1072 658 1072 658 1072 518 c 0,11,12
 1072 246 1072 246 932 91 c 0,13,14
 808 -47 808 -47 613 -47 c 0,15,16
 412 -47 412 -47 283 113 c 1,17,-1
 283 -446 l 1,18,-1
 111 -446 l 1,0,-1
582 944 m 0,19,20
 485 944 485 944 410 881 c 0,21,22
 340 822 340 822 307 708 c 0,23,24
 283 625 283 625 283 528 c 0,25,26
 283 356 283 356 356 238 c 0,27,28
 434 113 434 113 583 113 c 0,29,30
 682 113 682 113 760 175 c 0,31,32
 834 235 834 235 869 349 c 0,33,34
 894 429 894 429 894 523 c 0,35,36
 894 705 894 705 817 819 c 0,37,38
 732 944 732 944 582 944 c 0,19,20
EndSplineSet
Validated: 1
EndChar

StartChar: q
Encoding: 113 113 84
Width: 1139
VWidth: 2458
Flags: W
LayerCount: 2
Fore
SplineSet
1014 -446 m 1,0,-1
 844 -446 l 1,1,-1
 844 124 l 1,2,3
 791 46 791 46 731 10 c 0,4,5
 639 -47 639 -47 512 -47 c 256,6,7
 385 -47 385 -47 278 16 c 0,8,9
 156 88 156 88 100 235 c 0,10,11
 53 358 53 358 53 517 c 0,12,13
 53 777 53 777 177 940 c 0,14,15
 244 1028 244 1028 351 1072 c 0,16,17
 429 1104 429 1104 521 1104 c 0,18,19
 651 1104 651 1104 759 1031 c 0,20,21
 819 991 819 991 862 929 c 1,22,-1
 862 1073 l 1,23,-1
 1014 1073 l 1,24,-1
 1014 -446 l 1,0,-1
544 944 m 0,25,26
 446 944 446 944 367 881 c 0,27,28
 231 773 231 773 231 528 c 0,29,30
 231 354 231 354 309 238 c 0,31,32
 349 178 349 178 415 144 c 0,33,34
 475 113 475 113 544 113 c 0,35,36
 693 113 693 113 771 238 c 0,37,38
 844 355 844 355 844 523 c 0,39,40
 844 704 844 704 771 819 c 0,41,42
 691 944 691 944 544 944 c 0,25,26
EndSplineSet
Validated: 1
EndChar

StartChar: r
Encoding: 114 114 85
Width: 682
VWidth: 2458
Flags: W
LayerCount: 2
Fore
SplineSet
141 1073 m 1,0,-1
 299 1073 l 1,1,-1
 299 878 l 1,2,3
 355 971 355 971 408 1022 c 0,4,5
 492 1104 492 1104 591 1104 c 0,6,7
 617 1104 617 1104 657 1098 c 1,8,-1
 657 924 l 1,9,10
 505 923 505 923 434 871 c 0,11,12
 365 821 365 821 336 732 c 0,13,14
 313 660 313 660 313 557 c 2,15,-1
 313 0 l 1,16,-1
 141 0 l 1,17,-1
 141 1073 l 1,0,-1
EndSplineSet
Validated: 1
EndChar

StartChar: s
Encoding: 115 115 86
Width: 1024
VWidth: 2458
Flags: W
LayerCount: 2
Fore
SplineSet
898 774 m 1,0,-1
 718 774 l 1,1,2
 714 857 714 857 666 896 c 0,3,4
 606 946 606 946 503 946 c 0,5,6
 407 946 407 946 343 908 c 0,7,8
 274 867 274 867 274 785 c 0,9,10
 274 718 274 718 330 684 c 0,11,12
 385 651 385 651 473 630 c 2,13,-1
 637 591 l 2,14,15
 788 556 788 556 855 497 c 0,16,17
 941 421 941 421 941 293 c 0,18,19
 941 133 941 133 812 38 c 0,20,21
 695 -48 695 -48 499 -48 c 0,22,23
 240 -48 240 -48 136 92 c 0,24,25
 75 175 75 175 70 319 c 1,26,-1
 250 319 l 1,27,28
 264 221 264 221 300 182 c 0,29,30
 367 110 367 110 512 110 c 0,31,32
 613 110 613 110 683 149 c 0,33,34
 763 194 763 194 763 279 c 0,35,36
 763 336 763 336 720 375 c 0,37,38
 686 407 686 407 597 428 c 2,39,-1
 437 467 l 2,40,41
 251 512 251 512 179 573 c 0,42,43
 96 643 96 643 96 776 c 0,44,45
 96 932 96 932 214 1019 c 0,46,47
 330 1104 330 1104 508 1104 c 0,48,49
 728 1104 728 1104 829 985 c 0,50,51
 897 906 897 906 898 774 c 1,0,-1
EndSplineSet
Validated: 1
EndChar

StartChar: t
Encoding: 116 116 87
Width: 569
VWidth: 2458
Flags: W
LayerCount: 2
Fore
SplineSet
521 1073 m 1,0,-1
 521 934 l 1,1,-1
 344 934 l 1,2,-1
 344 199 l 2,3,4
 344 139 344 139 364 122 c 0,5,6
 387 103 387 103 439 103 c 0,7,8
 487 103 487 103 521 111 c 1,9,-1
 521 -32 l 1,10,11
 439 -47 439 -47 381 -47 c 0,12,13
 281 -47 281 -47 227 -2 c 0,14,15
 174 42 174 42 174 123 c 2,16,-1
 174 934 l 1,17,-1
 29 934 l 1,18,-1
 29 1073 l 1,19,-1
 174 1073 l 1,20,-1
 174 1368 l 1,21,-1
 344 1368 l 1,22,-1
 344 1073 l 1,23,-1
 521 1073 l 1,0,-1
EndSplineSet
Validated: 1
EndChar

StartChar: u
Encoding: 117 117 88
Width: 1139
VWidth: 2458
Flags: W
LayerCount: 2
Fore
SplineSet
987 0 m 1,0,-1
 833 0 l 1,1,-1
 833 149 l 1,2,3
 773 63 773 63 713 21 c 0,4,5
 613 -48 613 -48 475 -48 c 0,6,7
 333 -48 333 -48 243 17 c 0,8,9
 133 97 133 97 133 245 c 2,10,-1
 133 1073 l 1,11,-1
 303 1073 l 1,12,-1
 303 314 l 2,13,14
 303 205 303 205 374 150 c 0,15,16
 436 102 436 102 525 102 c 0,17,18
 645 102 645 102 728 190 c 0,19,20
 817 285 817 285 817 466 c 2,21,-1
 817 1073 l 1,22,-1
 987 1073 l 1,23,-1
 987 0 l 1,0,-1
EndSplineSet
Validated: 1
EndChar

StartChar: v
Encoding: 118 118 89
Width: 1024
VWidth: 2458
Flags: W
LayerCount: 2
Fore
SplineSet
583 0 m 1,0,-1
 397 0 l 1,1,-1
 20 1073 l 1,2,-1
 213 1073 l 1,3,-1
 499 204 l 1,4,-1
 803 1073 l 1,5,-1
 995 1073 l 1,6,-1
 583 0 l 1,0,-1
EndSplineSet
Validated: 1
EndChar

StartChar: w
Encoding: 119 119 90
Width: 1479
VWidth: 2458
Flags: W
LayerCount: 2
Fore
SplineSet
1133 0 m 1,0,-1
 940 0 l 1,1,-1
 722 842 l 1,2,-1
 516 0 l 1,3,-1
 323 0 l 1,4,-1
 12 1073 l 1,5,-1
 200 1073 l 1,6,-1
 420 238 l 1,7,-1
 625 1073 l 1,8,-1
 834 1073 l 1,9,-1
 1044 238 l 1,10,-1
 1258 1073 l 1,11,-1
 1450 1073 l 1,12,-1
 1133 0 l 1,0,-1
EndSplineSet
Validated: 1
EndChar

StartChar: x
Encoding: 120 120 91
Width: 1024
VWidth: 2458
Flags: W
LayerCount: 2
Fore
SplineSet
599 554 m 1,0,-1
 969 0 l 1,1,-1
 771 0 l 1,2,-1
 502 412 l 1,3,-1
 229 0 l 1,4,-1
 35 0 l 1,5,-1
 414 547 l 1,6,-1
 55 1073 l 1,7,-1
 251 1073 l 1,8,-1
 508 685 l 1,9,-1
 767 1073 l 1,10,-1
 959 1073 l 1,11,-1
 599 554 l 1,0,-1
EndSplineSet
Validated: 1
EndChar

StartChar: y
Encoding: 121 121 92
Width: 1024
VWidth: 2458
Flags: W
LayerCount: 2
Fore
SplineSet
796 1073 m 1,0,-1
 979 1073 l 1,1,-1
 501 -225 l 2,2,3
 420 -446 420 -446 225 -446 c 0,4,5
 161 -446 161 -446 111 -419 c 1,6,-1
 111 -266 l 1,7,8
 163 -278 163 -278 202 -278 c 0,9,10
 258 -278 258 -278 292 -250 c 0,11,12
 319 -228 319 -228 339 -174 c 2,13,-1
 403 -3 l 1,14,-1
 41 1073 l 1,15,-1
 225 1073 l 1,16,-1
 498 237 l 1,17,-1
 796 1073 l 1,0,-1
EndSplineSet
Validated: 1
EndChar

StartChar: z
Encoding: 122 122 93
Width: 1024
VWidth: 2458
Flags: W
LayerCount: 2
Fore
SplineSet
907 1073 m 1,0,-1
 907 921 l 1,1,-1
 269 150 l 1,2,-1
 935 150 l 1,3,-1
 935 0 l 1,4,-1
 63 0 l 1,5,-1
 63 154 l 1,6,-1
 704 923 l 1,7,-1
 106 923 l 1,8,-1
 106 1073 l 1,9,-1
 907 1073 l 1,0,-1
EndSplineSet
Validated: 1
EndChar

StartChar: braceleft
Encoding: 123 123 94
Width: 684
VWidth: 2458
Flags: W
LayerCount: 2
Fore
SplineSet
565 1493 m 1,0,-1
 565 1359 l 1,1,-1
 534 1359 l 2,2,3
 463 1358 463 1358 435 1333 c 0,4,5
 407 1307 407 1307 406 1222 c 2,6,-1
 406 851 l 2,7,8
 405 705 405 705 360 626 c 0,9,10
 321 562 321 562 237 529 c 1,11,12
 404 465 404 465 406 208 c 2,13,-1
 406 -163 l 2,14,15
 407 -248 407 -248 435 -274 c 0,16,17
 463 -299 463 -299 534 -300 c 2,18,-1
 565 -300 l 1,19,-1
 565 -434 l 1,20,-1
 471 -434 l 2,21,22
 359 -434 359 -434 296 -348 c 0,23,24
 249 -284 249 -284 248 -165 c 2,25,-1
 248 177 l 2,26,27
 248 333 248 333 203 393 c 0,28,29
 162 445 162 445 88 459 c 1,30,-1
 88 599 l 1,31,32
 170 615 170 615 212 679 c 0,33,34
 248 740 248 740 248 882 c 2,35,-1
 248 1223 l 2,36,37
 249 1343 249 1343 296 1407 c 0,38,39
 359 1492 359 1492 471 1493 c 2,40,-1
 565 1493 l 1,0,-1
EndSplineSet
Validated: 1
EndChar

StartChar: bar
Encoding: 124 124 95
Width: 532
VWidth: 2458
Flags: W
LayerCount: 2
Fore
SplineSet
205 1493 m 1,0,-1
 328 1493 l 1,1,-1
 328 -434 l 1,2,-1
 205 -434 l 1,3,-1
 205 1493 l 1,0,-1
EndSplineSet
Validated: 1
EndChar

StartChar: braceright
Encoding: 125 125 96
Width: 684
VWidth: 2458
Flags: W
LayerCount: 2
Fore
SplineSet
59 -434 m 1,0,-1
 59 -300 l 1,1,-1
 91 -300 l 2,2,3
 165 -299 165 -299 193 -274 c 0,4,5
 222 -248 222 -248 223 -163 c 2,6,-1
 223 208 l 2,7,8
 225 465 225 465 392 529 c 1,9,10
 225 595 225 595 223 851 c 2,11,-1
 223 1222 l 2,12,13
 222 1307 222 1307 193 1333 c 0,14,15
 165 1358 165 1358 91 1359 c 2,16,-1
 59 1359 l 1,17,-1
 59 1493 l 1,18,-1
 156 1493 l 2,19,20
 270 1492 270 1492 333 1407 c 0,21,22
 380 1343 380 1343 381 1223 c 2,23,-1
 381 882 l 2,24,25
 381 727 381 727 424 666 c 0,26,27
 464 614 464 614 536 600 c 1,28,-1
 536 460 l 1,29,30
 457 444 457 444 416 380 c 0,31,32
 381 319 381 319 381 177 c 2,33,-1
 381 -164 l 2,34,35
 380 -284 380 -284 333 -348 c 0,36,37
 270 -433 270 -433 156 -434 c 2,38,-1
 59 -434 l 1,0,-1
EndSplineSet
Validated: 1
EndChar

StartChar: asciitilde
Encoding: 126 126 97
Width: 1196
VWidth: 2458
Flags: W
LayerCount: 2
Fore
SplineSet
932 842 m 1,0,-1
 1040 842 l 1,1,2
 1041 818 1041 818 1041 810 c 0,3,4
 1041 698 1041 698 989 629 c 0,5,6
 928 549 928 549 826 549 c 0,7,8
 743 549 743 549 660 603 c 2,9,-1
 460 730 l 2,10,11
 447 739 447 739 413 751 c 0,12,13
 388 760 388 760 371 760 c 0,14,15
 310 760 310 760 280 688 c 0,16,17
 269 662 269 662 262 600 c 1,18,-1
 154 600 l 1,19,20
 160 707 160 707 188 769 c 0,21,22
 247 897 247 897 375 897 c 0,23,24
 433 897 433 897 486 865 c 2,25,-1
 725 724 l 2,26,27
 785 688 785 688 828 688 c 0,28,29
 933 688 933 688 933 816 c 0,30,31
 933 826 933 826 932 842 c 1,0,-1
EndSplineSet
Validated: 1
EndChar

StartChar: Adieresis
Encoding: 196 196 98
Width: 1366
VWidth: 2458
Flags: W
LayerCount: 2
Fore
SplineSet
972 449 m 1,0,-1
 395 449 l 1,1,-1
 238 0 l 1,2,-1
 35 0 l 1,3,-1
 568 1493 l 1,4,-1
 814 1493 l 1,5,-1
 1338 0 l 1,6,-1
 1125 0 l 1,7,-1
 972 449 l 1,0,-1
918 609 m 1,8,-1
 688 1288 l 1,9,-1
 443 609 l 1,10,-1
 918 609 l 1,8,-1
627 1871 m 1,11,-1
 627 1660 l 1,12,-1
 414 1660 l 1,13,-1
 414 1871 l 1,14,-1
 627 1871 l 1,11,-1
959 1871 m 1,15,-1
 959 1660 l 1,16,-1
 746 1660 l 1,17,-1
 746 1871 l 1,18,-1
 959 1871 l 1,15,-1
EndSplineSet
Validated: 1
EndChar

StartChar: Ccedilla
Encoding: 199 199 100
Width: 1479
VWidth: 2458
Flags: W
LayerCount: 2
Fore
SplineSet
776 -48 m 1,0,-1
 750 -114 l 1,1,2
 783 -110 783 -110 806 -110 c 0,3,4
 888 -110 888 -110 930 -150 c 0,5,6
 968 -185 968 -185 968 -247 c 0,7,8
 968 -336 968 -336 903 -386 c 0,9,10
 835 -438 835 -438 716 -438 c 0,11,12
 633 -438 633 -438 549 -406 c 0,13,14
 515 -393 515 -393 461 -369 c 1,15,-1
 504 -286 l 1,16,17
 513 -290 513 -290 522 -295 c 0,18,19
 639 -354 639 -354 704 -354 c 0,20,21
 754 -354 754 -354 786 -325 c 0,22,23
 814 -299 814 -299 814 -262 c 0,24,25
 814 -186 814 -186 721 -186 c 0,26,27
 690 -186 690 -186 657 -201 c 1,28,-1
 634 -188 l 1,29,-1
 697 -46 l 1,30,31
 581 -29 581 -29 519.5 -8 c 128,-1,32
 458 13 458 13 394 59 c 0,33,34
 257 156 257 156 180 326 c 0,35,36
 98 504 98 504 98 729 c 0,37,38
 98 1102 98 1102 306 1332 c 0,39,40
 475 1518 475 1518 780 1518 c 0,41,42
 1101 1518 1101 1518 1245 1312 c 0,43,44
 1324 1199 1324 1199 1356 1030 c 1,45,-1
 1160 1030 l 1,46,47
 1130 1184 1130 1184 1053 1255 c 0,48,49
 1002 1302 1002 1302 917 1327 c 0,50,51
 841 1349 841 1349 758 1349 c 0,52,53
 540 1349 540 1349 422 1195 c 0,54,55
 288 1018 288 1018 288 731 c 0,56,57
 288 454 288 454 418 285 c 0,58,59
 477 209 477 209 569 164 c 0,60,61
 663 119 663 119 773 119 c 0,62,63
 917 119 917 119 1022 192 c 0,64,65
 1146 278 1146 278 1190 545 c 1,66,-1
 1386 545 l 1,67,68
 1319 -46 1319 -46 776 -48 c 1,0,-1
EndSplineSet
Validated: 1
EndChar

StartChar: ccedilla
Encoding: 231 231 111
Width: 1024
VWidth: 2458
Flags: W
LayerCount: 2
Fore
SplineSet
540 -48 m 1,0,-1
 514 -114 l 1,1,2
 549 -110 549 -110 572 -110 c 0,3,4
 652 -110 652 -110 695 -150 c 0,5,6
 733 -185 733 -185 733 -247 c 0,7,8
 733 -336 733 -336 668 -386 c 0,9,10
 600 -438 600 -438 481 -438 c 0,11,12
 397 -438 397 -438 313 -406 c 0,13,14
 282 -394 282 -394 225 -369 c 1,15,-1
 268 -286 l 1,16,-1
 286 -295 l 2,17,18
 402 -354 402 -354 469 -354 c 0,19,20
 519 -354 519 -354 550 -325 c 0,21,22
 579 -299 579 -299 579 -262 c 0,23,24
 579 -186 579 -186 485 -186 c 0,25,26
 453 -186 453 -186 421 -202 c 1,27,-1
 398 -188 l 1,28,-1
 461 -43 l 1,29,30
 344 -21 344 -21 270 33 c 0,31,32
 167 106 167 106 114 235 c 0,33,34
 63 359 63 359 63 518 c 0,35,36
 63 787 63 787 198 950 c 0,37,38
 325 1104 325 1104 541 1104 c 0,39,40
 674 1104 674 1104 778 1045 c 0,41,42
 903 974 903 974 944 834 c 0,43,44
 958 785 958 785 964 713 c 1,45,-1
 792 713 l 1,46,47
 780 808 780 808 730 867 c 0,48,49
 662 947 662 947 539 947 c 0,50,51
 406 947 406 947 331 849 c 0,52,53
 241 732 241 732 241 518 c 0,54,55
 241 323 241 323 325 213 c 0,56,57
 404 109 404 109 542 109 c 0,58,59
 761 109 761 109 804 369 c 1,60,-1
 976 369 l 1,61,62
 968 246 968 246 915 151 c 0,63,64
 832 4 832 4 652 -36 c 0,65,66
 598 -47 598 -47 540 -48 c 1,0,-1
EndSplineSet
Validated: 1
EndChar

StartChar: dagger
Encoding: 8224 8224 130
Width: 1139
VWidth: 2458
Flags: W
LayerCount: 2
Fore
SplineSet
1051 1028 m 1,0,-1
 1051 860 l 1,1,-1
 653 860 l 1,2,-1
 653 -362 l 1,3,-1
 473 -362 l 1,4,-1
 473 860 l 1,5,-1
 78 860 l 1,6,-1
 78 1028 l 1,7,-1
 473 1028 l 1,8,-1
 473 1452 l 1,9,-1
 653 1452 l 1,10,-1
 653 1028 l 1,11,-1
 1051 1028 l 1,0,-1
EndSplineSet
Validated: 1
EndChar

StartChar: degree
Encoding: 176 176 131
Width: 1241
VWidth: 2458
Flags: W
LayerCount: 2
Fore
SplineSet
620 1405 m 0,0,1
 748 1405 748 1405 839 1314 c 256,2,3
 930 1223 930 1223 930 1095 c 0,4,5
 930 966 930 966 839 875 c 256,6,7
 748 784 748 784 616 784 c 0,8,9
 492 784 492 784 400 875 c 0,10,11
 309 966 309 966 309 1095 c 0,12,13
 309 1225 309 1225 400 1314 c 0,14,15
 494 1405 494 1405 620 1405 c 0,0,1
620 1288 m 0,16,17
 539 1288 539 1288 483 1231 c 0,18,19
 426 1174 426 1174 426 1095 c 0,20,21
 426 1015 426 1015 483 958 c 256,22,23
 540 901 540 901 617 901 c 0,24,25
 699 901 699 901 756 958 c 0,26,27
 813 1014 813 1014 813 1095 c 256,28,29
 813 1176 813 1176 756 1231 c 0,30,31
 698 1288 698 1288 620 1288 c 0,16,17
EndSplineSet
Validated: 1
EndChar

StartChar: cent
Encoding: 162 162 132
Width: 1139
VWidth: 2458
Flags: W
LayerCount: 2
Fore
SplineSet
639 947 m 1,0,-1
 639 110 l 1,1,2
 835 129 835 129 872 369 c 1,3,-1
 1045 369 l 1,4,5
 1034 185 1034 185 925 73 c 0,6,7
 816 -37 816 -37 639 -47 c 1,8,-1
 639 -246 l 1,9,-1
 553 -246 l 1,10,-1
 553 -46 l 1,11,12
 420 -34 420 -34 323 32 c 0,13,14
 215 107 215 107 160 235 c 0,15,16
 106 359 106 359 106 517 c 0,17,18
 106 730 106 730 195 879 c 0,19,20
 314 1077 314 1077 553 1102 c 1,21,-1
 553 1286 l 1,22,-1
 639 1286 l 1,23,-1
 639 1103 l 1,24,25
 793 1095 793 1095 897 1010 c 0,26,27
 1018 912 1018 912 1033 713 c 1,28,-1
 860 713 l 1,29,30
 849 828 849 828 775 893 c 0,31,32
 720 940 720 940 639 947 c 1,0,-1
553 945 m 1,33,34
 474 930 474 930 420 888 c 0,35,36
 284 783 284 783 284 518 c 0,37,38
 284 259 284 259 434 159 c 0,39,40
 488 122 488 122 553 112 c 1,41,-1
 553 945 l 1,33,34
EndSplineSet
Validated: 1
EndChar

StartChar: sterling
Encoding: 163 163 133
Width: 1139
VWidth: 2458
Flags: W
LayerCount: 2
Fore
SplineSet
749 770 m 1,0,-1
 749 657 l 1,1,-1
 471 657 l 1,2,3
 502 569 502 569 502 511 c 0,4,5
 502 411 502 411 413 295 c 0,6,7
 361 226 361 226 261 124 c 1,8,9
 379 205 379 205 509 205 c 0,10,11
 577 205 577 205 678 174 c 0,12,13
 791 140 791 140 839 140 c 0,14,15
 919 140 919 140 1009 203 c 1,16,-1
 1095 68 l 1,17,18
 980 -48 980 -48 826 -48 c 0,19,20
 735 -48 735 -48 527 24 c 0,21,22
 460 47 460 47 393 47 c 0,23,24
 287 47 287 47 170 -29 c 1,25,-1
 71 107 l 1,26,27
 173 194 173 194 226 255 c 0,28,29
 328 375 328 375 328 498 c 0,30,31
 328 576 328 576 278 657 c 1,32,-1
 53 657 l 1,33,-1
 53 770 l 1,34,-1
 219 770 l 1,35,36
 166 858 166 858 147 896 c 0,37,38
 110 970 110 970 110 1055 c 0,39,40
 110 1249 110 1249 264 1377 c 0,41,42
 404 1493 404 1493 598 1493 c 0,43,44
 750 1493 750 1493 863 1422 c 0,45,46
 1003 1333 1003 1333 1036 1157 c 0,47,48
 1047 1101 1047 1101 1048 1018 c 1,49,-1
 868 1018 l 1,50,51
 858 1333 858 1333 588 1333 c 0,52,53
 469 1333 469 1333 385 1266 c 0,54,55
 300 1199 300 1199 300 1072 c 0,56,57
 300 988 300 988 344 907 c 0,58,59
 358 882 358 882 390 828 c 0,60,61
 401 809 401 809 422 770 c 1,62,-1
 749 770 l 1,0,-1
EndSplineSet
Validated: 1
EndChar

StartChar: section
Encoding: 167 167 134
Width: 1139
VWidth: 2458
Flags: W
LayerCount: 2
Fore
SplineSet
951 1073 m 1,0,-1
 780 1073 l 1,1,-1
 780 1091 l 1,2,-1
 780 1127 l 2,3,4
 780 1222 780 1222 726 1278 c 0,5,6
 671 1335 671 1335 582 1335 c 0,7,8
 502 1335 502 1335 452 1287 c 0,9,10
 399 1236 399 1236 399 1161 c 0,11,12
 399 1108 399 1108 438 1065 c 0,13,14
 461 1040 461 1040 517 1004 c 2,15,-1
 815 812 l 2,16,17
 929 738 929 738 977 670 c 0,18,19
 1036 586 1036 586 1036 468 c 0,20,21
 1036 233 1036 233 816 149 c 1,22,23
 861 96 861 96 881 60 c 0,24,25
 922 -11 922 -11 922 -93 c 0,26,27
 922 -240 922 -240 812 -340 c 0,28,29
 706 -436 706 -436 540 -436 c 0,30,31
 400 -436 400 -436 303 -366 c 0,32,33
 159 -261 159 -261 159 -54 c 0,34,35
 159 -44 159 -44 159 -29 c 1,36,-1
 334 -29 l 1,37,38
 334 -135 334 -135 370 -189 c 0,39,40
 430 -278 430 -278 542 -278 c 0,41,42
 628 -278 628 -278 681 -232 c 0,43,44
 738 -182 738 -182 738 -102 c 0,45,46
 738 0 738 0 626 77 c 2,47,-1
 279 318 l 2,48,49
 177 388 177 388 134 462 c 0,50,51
 90 539 90 539 90 639 c 0,52,53
 90 768 90 768 179 857 c 0,54,55
 224 903 224 903 306 946 c 1,56,57
 215 1047 215 1047 215 1154 c 0,58,59
 215 1302 215 1302 334 1402 c 0,60,61
 441 1493 441 1493 593 1493 c 256,62,63
 745 1493 745 1493 845 1399 c 0,64,65
 951 1299 951 1299 951 1130 c 2,66,-1
 951 1090 l 1,67,-1
 951 1073 l 1,0,-1
727 217 m 1,68,69
 778 245 778 245 811 280 c 0,70,71
 874 348 874 348 874 426 c 0,72,73
 874 554 874 554 726 655 c 2,74,-1
 397 879 l 1,75,76
 348 847 348 847 317 817 c 0,77,78
 252 756 252 756 252 672 c 0,79,80
 252 603 252 603 292 550 c 0,81,82
 313 523 313 523 386 469 c 2,83,-1
 727 217 l 1,68,69
EndSplineSet
Validated: 1
EndChar

StartChar: bullet
Encoding: 8226 8226 135
Width: 717
VWidth: 2458
Flags: W
LayerCount: 2
Fore
SplineSet
357 962 m 0,0,1
 464 962 464 962 539 887 c 256,2,3
 614 812 614 812 614 703 c 0,4,5
 614 601 614 601 539 525 c 0,6,7
 464 450 464 450 358 450 c 256,8,9
 252 450 252 450 177 525 c 0,10,11
 102 601 102 601 102 706 c 0,12,13
 102 813 102 813 177 887 c 0,14,15
 254 962 254 962 357 962 c 0,0,1
EndSplineSet
Validated: 1
EndChar

StartChar: paragraph
Encoding: 182 182 136
Width: 1100
VWidth: 2458
Flags: W
LayerCount: 2
Fore
SplineSet
1069 1493 m 1,0,-1
 1069 1362 l 1,1,-1
 952 1362 l 1,2,-1
 952 -362 l 1,3,-1
 821 -362 l 1,4,-1
 821 1362 l 1,5,-1
 653 1362 l 1,6,-1
 653 -363 l 1,7,-1
 522 -363 l 1,8,-1
 522 531 l 1,9,10
 366 539 366 539 265 622 c 0,11,12
 187 686 187 686 143 786 c 0,13,14
 98 888 98 888 98 1002 c 0,15,16
 98 1213 98 1213 233 1355 c 0,17,18
 365 1493 365 1493 556 1493 c 2,19,-1
 1069 1493 l 1,0,-1
EndSplineSet
Validated: 1
EndChar

StartChar: germandbls
Encoding: 223 223 137
Width: 1251
VWidth: 2458
Flags: W
LayerCount: 2
Fore
SplineSet
618 715 m 1,0,-1
 618 884 l 1,1,2
 632 883 632 883 636 883 c 0,3,4
 740 883 740 883 821 934 c 0,5,6
 917 994 917 994 917 1111 c 0,7,8
 917 1213 917 1213 841 1277 c 0,9,10
 776 1333 776 1333 676 1333 c 0,11,12
 567 1333 567 1333 496 1270 c 0,13,14
 428 1210 428 1210 428 1103 c 2,15,-1
 428 0 l 1,16,-1
 258 0 l 1,17,-1
 258 1103 l 2,18,19
 258 1287 258 1287 365 1380 c 0,20,21
 496 1493 496 1493 689 1493 c 0,22,23
 871 1493 871 1493 984 1388 c 0,24,25
 1095 1285 1095 1285 1095 1116 c 0,26,27
 1095 904 1095 904 871 820 c 1,28,29
 997 778 997 778 1062 710 c 0,30,31
 1159 609 1159 609 1159 448 c 0,32,33
 1159 241 1159 241 1051 110 c 0,34,35
 927 -41 927 -41 699 -41 c 0,36,37
 654 -41 654 -41 610 -33 c 1,38,-1
 610 127 l 1,39,-1
 627 127 l 2,40,41
 656 127 656 127 683 127 c 0,42,43
 822 127 822 127 906 222 c 0,44,45
 981 308 981 308 981 436 c 0,46,47
 981 583 981 583 891 655 c 0,48,49
 820 712 820 712 680 715 c 0,50,51
 665 715 665 715 618 715 c 1,0,-1
EndSplineSet
Validated: 1
EndChar

StartChar: registered
Encoding: 174 174 138
Width: 1509
VWidth: 2458
Flags: W
LayerCount: 2
Fore
SplineSet
556 665 m 1,0,-1
 556 287 l 1,1,-1
 413 287 l 1,2,-1
 413 1198 l 1,3,-1
 835 1198 l 2,4,5
 1124 1198 1124 1198 1124 940 c 0,6,7
 1124 870 1124 870 1100.5 826.5 c 128,-1,8
 1077 783 1077 783 1014 736 c 1,9,10
 1070 700 1070 700 1086 660 c 0,11,12
 1103 616 1103 616 1106 507 c 0,13,14
 1109 411 1109 411 1118 383 c 0,15,16
 1128 355 1128 355 1153 337 c 1,17,-1
 1153 287 l 1,18,-1
 992 287 l 1,19,20
 960 354 960 354 960 444 c 2,21,-1
 962 526 l 2,22,23
 962 597 962 597 933 630 c 0,24,25
 903 665 903 665 831 665 c 2,26,-1
 556 665 l 1,0,-1
556 795 m 1,27,-1
 821 795 l 2,28,29
 899 795 899 795 934 825 c 0,30,31
 974 859 974 859 974 931 c 256,32,33
 974 1003 974 1003 934 1038 c 0,34,35
 900 1068 900 1068 821 1068 c 2,36,-1
 556 1068 l 1,37,-1
 556 795 l 1,27,-1
756 1520 m 0,38,39
 975 1520 975 1520 1164 1404 c 0,40,41
 1353 1289 1353 1289 1453 1093 c 0,42,43
 1538 925 1538 925 1538 739 c 0,44,45
 1538 517 1538 517 1423 329 c 256,46,47
 1308 141 1308 141 1111 41 c 0,48,49
 943 -45 943 -45 746 -45 c 0,50,51
 536 -45 536 -45 347 71 c 0,52,53
 159 186 159 186 59 383 c 0,54,55
 -27 551 -27 551 -27 738 c 0,56,57
 -27 957 -27 957 88 1147 c 0,58,59
 201 1332 201 1332 401 1435 c 0,60,61
 567 1520 567 1520 756 1520 c 0,38,39
756 1393 m 0,62,63
 490 1393 490 1393 301 1201 c 0,64,65
 211 1109 211 1109 162 988 c 0,66,67
 112 867 112 867 112 738 c 0,68,69
 112 554 112 554 207 395 c 0,70,71
 302 238 302 238 464 154 c 0,72,73
 602 82 602 82 748 82 c 0,74,75
 1021 82 1021 82 1210 274 c 256,76,77
 1399 466 1399 466 1399 739 c 0,78,79
 1399 922 1399 922 1305 1080 c 0,80,81
 1212 1235 1212 1235 1048 1321 c 0,82,83
 911 1393 911 1393 756 1393 c 0,62,63
EndSplineSet
Validated: 1
EndChar

StartChar: copyright
Encoding: 169 169 139
Width: 1509
VWidth: 2458
Flags: W
LayerCount: 2
Fore
SplineSet
1114 895 m 1,0,-1
 968 895 l 1,1,2
 945 988 945 988 907 1028 c 0,3,4
 853 1085 853 1085 768 1085 c 0,5,6
 653 1085 653 1085 587 999 c 0,7,8
 511 899 511 899 511 733 c 0,9,10
 511 572 511 572 585 478 c 0,11,12
 617 437 617 437 669 410 c 0,13,14
 719 385 719 385 768 385 c 0,15,16
 837 385 837 385 893 434 c 0,17,18
 961 493 961 493 984 639 c 1,19,-1
 1131 639 l 1,20,21
 1098 476 1098 476 1046 402 c 0,22,23
 944 258 944 258 767 258 c 0,24,25
 607 258 607 258 502 366 c 0,26,27
 370 501 370 501 370 732 c 0,28,29
 370 959 370 959 497 1098 c 0,30,31
 601 1212 601 1212 773 1212 c 0,32,33
 950 1212 950 1212 1040 1080 c 0,34,35
 1088 1010 1088 1010 1114 895 c 1,0,-1
756 1520 m 0,36,37
 975 1520 975 1520 1164 1404 c 0,38,39
 1353 1289 1353 1289 1453 1093 c 0,40,41
 1538 925 1538 925 1538 739 c 0,42,43
 1538 517 1538 517 1423 329 c 256,44,45
 1308 141 1308 141 1111 41 c 0,46,47
 943 -45 943 -45 746 -45 c 0,48,49
 536 -45 536 -45 347 71 c 0,50,51
 159 186 159 186 59 383 c 0,52,53
 -27 551 -27 551 -27 738 c 0,54,55
 -27 957 -27 957 88 1147 c 0,56,57
 201 1332 201 1332 401 1435 c 0,58,59
 567 1520 567 1520 756 1520 c 0,36,37
756 1393 m 0,60,61
 490 1393 490 1393 301 1201 c 0,62,63
 211 1109 211 1109 162 988 c 0,64,65
 112 867 112 867 112 738 c 0,66,67
 112 554 112 554 207 395 c 0,68,69
 302 238 302 238 464 154 c 0,70,71
 602 82 602 82 748 82 c 0,72,73
 1021 82 1021 82 1210 274 c 256,74,75
 1399 466 1399 466 1399 739 c 0,76,77
 1399 922 1399 922 1305 1080 c 0,78,79
 1212 1235 1212 1235 1048 1321 c 0,80,81
 911 1393 911 1393 756 1393 c 0,60,61
EndSplineSet
Validated: 1
EndChar

StartChar: trademark
Encoding: 8482 8482 140
Width: 2048
VWidth: 2458
Flags: W
LayerCount: 2
Fore
SplineSet
583 1380 m 1,0,-1
 583 598 l 1,1,-1
 444 598 l 1,2,-1
 444 1380 l 1,3,-1
 129 1380 l 1,4,-1
 129 1493 l 1,5,-1
 897 1493 l 1,6,-1
 897 1380 l 1,7,-1
 583 1380 l 1,0,-1
1532 598 m 1,8,-1
 1388 598 l 1,9,-1
 1140 1297 l 1,10,-1
 1140 598 l 1,11,-1
 1003 598 l 1,12,-1
 1003 1493 l 1,13,-1
 1195 1493 l 1,14,-1
 1465 751 l 1,15,-1
 1736 1493 l 1,16,-1
 1921 1493 l 1,17,-1
 1921 598 l 1,18,-1
 1784 598 l 1,19,-1
 1784 1297 l 1,20,-1
 1532 598 l 1,8,-1
EndSplineSet
Validated: 1
EndChar

StartChar: acute
Encoding: 180 180 141
Width: 682
VWidth: 2458
Flags: W
LayerCount: 2
Fore
SplineSet
385 1516 m 1,0,-1
 616 1516 l 1,1,-1
 311 1212 l 1,2,-1
 188 1212 l 1,3,-1
 385 1516 l 1,0,-1
EndSplineSet
Validated: 1
EndChar

StartChar: dieresis
Encoding: 168 168 142
Width: 682
VWidth: 2458
Flags: W
LayerCount: 2
Fore
SplineSet
274 1464 m 1,0,-1
 274 1253 l 1,1,-1
 61 1253 l 1,2,-1
 61 1464 l 1,3,-1
 274 1464 l 1,0,-1
606 1464 m 1,4,-1
 606 1253 l 1,5,-1
 393 1253 l 1,6,-1
 393 1464 l 1,7,-1
 606 1464 l 1,4,-1
EndSplineSet
Validated: 1
EndChar

StartChar: notequal
Encoding: 8800 8800 143
Width: 1122
VWidth: 2458
Flags: W
LayerCount: 2
Fore
SplineSet
322 227 m 1,0,-1
 66 227 l 1,1,-1
 66 370 l 1,2,-1
 402 370 l 1,3,-1
 519 580 l 1,4,-1
 66 580 l 1,5,-1
 66 723 l 1,6,-1
 599 723 l 1,7,-1
 754 996 l 1,8,-1
 857 937 l 1,9,-1
 736 723 l 1,10,-1
 1057 723 l 1,11,-1
 1057 580 l 1,12,-1
 656 580 l 1,13,-1
 539 370 l 1,14,-1
 1057 370 l 1,15,-1
 1057 227 l 1,16,-1
 458 227 l 1,17,-1
 303 -51 l 1,18,-1
 199 8 l 1,19,-1
 322 227 l 1,0,-1
EndSplineSet
Validated: 1
EndChar

StartChar: AE
Encoding: 198 198 144
Width: 2048
VWidth: 2458
Flags: W
LayerCount: 2
Fore
SplineSet
959 438 m 1,0,-1
 407 438 l 1,1,-1
 233 0 l 1,2,-1
 23 0 l 1,3,-1
 636 1493 l 1,4,-1
 1909 1493 l 1,5,-1
 1909 1325 l 1,6,-1
 1149 1325 l 1,7,-1
 1149 848 l 1,8,-1
 1870 848 l 1,9,-1
 1870 680 l 1,10,-1
 1149 680 l 1,11,-1
 1149 168 l 1,12,-1
 1946 168 l 1,13,-1
 1946 0 l 1,14,-1
 959 0 l 1,15,-1
 959 438 l 1,0,-1
959 606 m 1,16,-1
 959 1325 l 1,17,-1
 754 1325 l 1,18,-1
 472 606 l 1,19,-1
 959 606 l 1,16,-1
EndSplineSet
Validated: 1
EndChar

StartChar: Oslash
Encoding: 216 216 145
Width: 1593
VWidth: 2458
Flags: W
LayerCount: 2
Fore
SplineSet
227 220 m 1,0,1
 71 439 71 439 71 737 c 0,2,3
 71 1001 71 1001 194 1201 c 0,4,5
 306 1383 306 1383 499 1463 c 0,6,7
 632 1518 632 1518 793 1518 c 0,8,9
 1071 1518 1071 1518 1264 1352 c 1,10,-1
 1442 1546 l 1,11,-1
 1523 1473 l 1,12,-1
 1340 1273 l 1,13,14
 1387 1214 1387 1214 1419 1152 c 0,15,16
 1513 965 1513 965 1513 733 c 0,17,18
 1513 469 1513 469 1390 270 c 0,19,20
 1278 88 1278 88 1085 8 c 0,21,22
 952 -47 952 -47 792 -47 c 0,23,24
 499 -47 499 -47 299 138 c 1,25,-1
 141 -35 l 1,26,-1
 61 39 l 1,27,-1
 227 220 l 1,0,1
356 361 m 1,28,-1
 1142 1219 l 1,29,30
 993 1350 993 1350 791 1350 c 0,31,32
 568 1350 568 1350 425 1202 c 0,33,34
 348 1123 348 1123 306 1005 c 0,35,36
 261 877 261 877 261 737 c 0,37,38
 261 524 261 524 356 361 c 1,28,-1
1213 1135 m 1,39,-1
 422 272 l 1,40,41
 574 121 574 121 793 121 c 0,42,43
 1016 121 1016 121 1160 269 c 0,44,45
 1236 348 1236 348 1278 465 c 0,46,47
 1323 594 1323 594 1323 734 c 0,48,49
 1323 966 1323 966 1213 1135 c 1,39,-1
EndSplineSet
Validated: 1
EndChar

StartChar: infinity
Encoding: 8734 8734 146
Width: 1456
VWidth: 2458
Flags: W
LayerCount: 2
Fore
SplineSet
728 609 m 1,0,1
 835 703 835 703 875 734 c 0,2,3
 998 828 998 828 1120 828 c 0,4,5
 1240 828 1240 828 1326 739 c 0,6,7
 1407 656 1407 656 1407 541 c 0,8,9
 1407 409 1407 409 1306 323 c 0,10,11
 1224 254 1224 254 1120 254 c 0,12,13
 998 254 998 254 875 348 c 0,14,15
 835 379 835 379 728 473 c 1,16,17
 621 379 621 379 580 348 c 0,18,19
 457 254 457 254 336 254 c 256,20,21
 215 254 215 254 130 342 c 0,22,23
 49 425 49 425 49 541 c 0,24,25
 49 673 49 673 150 758 c 0,26,27
 232 828 232 828 336 828 c 0,28,29
 457 828 457 828 580 734 c 0,30,31
 622 703 622 703 728 609 c 1,0,1
801 541 m 1,32,33
 809 533 809 533 819 523 c 0,34,35
 847 494 847 494 892 460 c 0,36,37
 954 414 954 414 1003 389 c 0,38,39
 1062 358 1062 358 1118 358 c 0,40,41
 1197 358 1197 358 1249 415 c 0,42,43
 1300 471 1300 471 1300 540 c 0,44,45
 1300 621 1300 621 1236 678 c 0,46,47
 1186 722 1186 722 1118 722 c 0,48,49
 990 722 990 722 801 541 c 1,32,33
655 541 m 1,50,51
 647 549 647 549 637 558 c 0,52,53
 605 590 605 590 564 621 c 0,54,55
 503 666 503 666 453 692 c 0,56,57
 395 722 395 722 339 722 c 0,58,59
 259 722 259 722 207 665 c 0,60,61
 156 610 156 610 156 541 c 0,62,63
 156 460 156 460 220 404 c 0,64,65
 270 360 270 360 338 360 c 0,66,67
 466 360 466 360 655 541 c 1,50,51
EndSplineSet
Validated: 1
EndChar

StartChar: plusminus
Encoding: 177 177 147
Width: 1196
VWidth: 2458
Flags: W
LayerCount: 2
Fore
SplineSet
1093 852 m 1,0,-1
 1093 709 l 1,1,-1
 669 709 l 1,2,-1
 669 285 l 1,3,-1
 526 285 l 1,4,-1
 526 709 l 1,5,-1
 102 709 l 1,6,-1
 102 852 l 1,7,-1
 526 852 l 1,8,-1
 526 1276 l 1,9,-1
 669 1276 l 1,10,-1
 669 852 l 1,11,-1
 1093 852 l 1,0,-1
1093 120 m 1,12,-1
 1093 -23 l 1,13,-1
 102 -23 l 1,14,-1
 102 120 l 1,15,-1
 1093 120 l 1,12,-1
EndSplineSet
Validated: 1
EndChar

StartChar: lessequal
Encoding: 8804 8804 148
Width: 1196
VWidth: 2458
Flags: W
LayerCount: 2
Fore
SplineSet
1093 114 m 1,0,-1
 1093 -23 l 1,1,-1
 92 -23 l 1,2,-1
 92 114 l 1,3,-1
 1093 114 l 1,0,-1
92 744 m 1,4,-1
 92 884 l 1,5,-1
 1093 1308 l 1,6,-1
 1093 1146 l 1,7,-1
 286 817 l 1,8,-1
 1093 482 l 1,9,-1
 1093 319 l 1,10,-1
 92 744 l 1,4,-1
EndSplineSet
Validated: 1
EndChar

StartChar: greaterequal
Encoding: 8805 8805 149
Width: 1196
VWidth: 2458
Flags: W
LayerCount: 2
Fore
SplineSet
1093 114 m 1,0,-1
 1093 -23 l 1,1,-1
 92 -23 l 1,2,-1
 92 114 l 1,3,-1
 1093 114 l 1,0,-1
1093 884 m 1,4,-1
 1093 743 l 1,5,-1
 92 319 l 1,6,-1
 92 482 l 1,7,-1
 899 811 l 1,8,-1
 92 1146 l 1,9,-1
 92 1308 l 1,10,-1
 1093 884 l 1,4,-1
EndSplineSet
Validated: 1
EndChar

StartChar: yen
Encoding: 165 165 150
Width: 1139
VWidth: 2458
Flags: W
LayerCount: 2
Fore
SplineSet
1015 725 m 1,0,-1
 1015 621 l 1,1,-1
 666 621 l 1,2,-1
 666 462 l 1,3,-1
 1015 462 l 1,4,-1
 1015 358 l 1,5,-1
 666 358 l 1,6,-1
 666 0 l 1,7,-1
 486 0 l 1,8,-1
 486 358 l 1,9,-1
 134 358 l 1,10,-1
 134 462 l 1,11,-1
 486 462 l 1,12,-1
 486 621 l 1,13,-1
 134 621 l 1,14,-1
 134 725 l 1,15,-1
 443 725 l 1,16,-1
 23 1452 l 1,17,-1
 198 1452 l 1,18,-1
 576 793 l 1,19,-1
 944 1452 l 1,20,-1
 1117 1452 l 1,21,-1
 704 725 l 1,22,-1
 1015 725 l 1,0,-1
EndSplineSet
Validated: 1
EndChar

StartChar: mu
Encoding: 181 181 151
Width: 1139
VWidth: 2458
Flags: W
LayerCount: 2
Fore
SplineSet
1114 -29 m 1,0,1
 1043 -47 1043 -47 998 -47 c 0,2,3
 828 -47 828 -47 821 124 c 1,4,5
 698 -47 698 -47 488 -47 c 0,6,7
 379 -47 379 -47 303 6 c 1,8,-1
 303 -451 l 1,9,-1
 133 -451 l 1,10,-1
 133 1073 l 1,11,-1
 303 1073 l 1,12,-1
 303 314 l 2,13,14
 303 205 303 205 373 150 c 0,15,16
 435 102 435 102 523 102 c 0,17,18
 643 102 643 102 726 190 c 0,19,20
 815 286 815 286 815 466 c 2,21,-1
 815 1073 l 1,22,-1
 985 1073 l 1,23,-1
 985 180 l 2,24,25
 985 96 985 96 1077 96 c 0,26,27
 1088 96 1088 96 1114 100 c 1,28,-1
 1114 -29 l 1,0,1
EndSplineSet
Validated: 2097153
EndChar

StartChar: partialdiff
Encoding: 8706 8706 152
Width: 1004
VWidth: 2458
Flags: W
LayerCount: 2
Fore
SplineSet
126 1479 m 1,0,1
 254 1536 254 1536 397 1536 c 0,2,3
 544 1536 544 1536 670 1446 c 0,4,5
 820 1340 820 1340 888 1146 c 0,6,7
 938 1002 938 1002 938 829 c 0,8,9
 938 642 938 642 885 433 c 0,10,11
 823 185 823 185 696 71 c 0,12,13
 583 -31 583 -31 435 -31 c 0,14,15
 289 -31 289 -31 179 64 c 0,16,17
 45 181 45 181 45 367 c 0,18,19
 45 507 45 507 121 634 c 0,20,21
 241 836 241 836 446 836 c 0,22,23
 530 836 530 836 594 807 c 0,24,25
 651 782 651 782 754 703 c 1,26,27
 776 858 776 858 776 933 c 0,28,29
 776 1102 776 1102 714 1244 c 0,30,31
 628 1440 628 1440 439 1440 c 0,32,33
 367 1440 367 1440 312 1418 c 0,34,35
 297 1413 297 1413 225 1380 c 0,36,37
 219 1378 219 1378 209 1373 c 1,38,-1
 126 1479 l 1,0,1
740 623 m 1,39,40
 659 752 659 752 524 752 c 0,41,42
 396 752 396 752 309 618 c 0,43,44
 223 486 223 486 223 317 c 0,45,46
 223 205 223 205 257 132 c 0,47,48
 277 90 277 90 319 61 c 0,49,50
 360 34 360 34 406 34 c 0,51,52
 501 34 501 34 578 120 c 0,53,54
 651 203 651 203 698 394 c 0,55,56
 713 456 713 456 729 553 c 0,57,58
 740 623 740 623 740 623 c 1,39,40
EndSplineSet
Validated: 1
EndChar

StartChar: summation
Encoding: 8721 8721 153
Width: 1457
VWidth: 2458
Flags: W
LayerCount: 2
Fore
SplineSet
1261 1542 m 1,0,-1
 1275 1216 l 1,1,-1
 1231 1216 l 1,2,3
 1197 1347 1197 1347 1149 1390 c 0,4,5
 1087 1447 1087 1447 928 1448 c 2,6,-1
 393 1448 l 1,7,-1
 945 722 l 1,8,-1
 351 35 l 1,9,-1
 1050 35 l 2,10,11
 1171 35 1171 35 1218 52 c 0,12,13
 1290 77 1290 77 1334 176 c 0,14,15
 1341 192 1341 192 1360 239 c 0,16,17
 1364 248 1364 248 1371 266 c 1,18,-1
 1422 266 l 1,19,20
 1365 55 1365 55 1334 -199 c 1,21,22
 1284 -183 1284 -183 1170 -180 c 2,23,-1
 189 -180 l 2,24,25
 108 -180 108 -180 35 -187 c 1,26,-1
 741 633 l 1,27,-1
 35 1557 l 1,28,29
 140 1543 140 1543 266 1542 c 2,30,-1
 1261 1542 l 1,0,-1
EndSplineSet
Validated: 1
EndChar

StartChar: product
Encoding: 8719 8719 154
Width: 1665
VWidth: 2458
Flags: W
LayerCount: 2
Fore
SplineSet
39 1504 m 1,0,-1
 39 1556 l 1,1,-1
 1626 1556 l 1,2,-1
 1626 1504 l 1,3,4
 1541 1502 1541 1502 1497 1481 c 0,5,6
 1458 1462 1458 1462 1444 1423 c 0,7,8
 1430 1386 1430 1386 1430 1299 c 2,9,-1
 1430 78 l 2,10,11
 1431 -39 1431 -39 1457 -70 c 0,12,13
 1495 -123 1495 -123 1626 -126 c 1,14,-1
 1626 -178 l 1,15,-1
 1000 -178 l 1,16,-1
 1000 -126 l 1,17,18
 1084 -124 1084 -124 1129 -103 c 0,19,20
 1169 -85 1169 -85 1183 -46 c 0,21,22
 1197 -9 1197 -9 1197 78 c 2,23,-1
 1197 1445 l 1,24,-1
 469 1445 l 1,25,-1
 469 78 l 2,26,27
 470 -39 470 -39 496 -70 c 0,28,29
 535 -123 535 -123 666 -126 c 1,30,-1
 666 -178 l 1,31,-1
 39 -178 l 1,32,-1
 39 -126 l 1,33,34
 124 -124 124 -124 168 -103 c 0,35,36
 208 -84 208 -84 223 -46 c 0,37,38
 236 -10 236 -10 236 78 c 2,39,-1
 236 1299 l 2,40,41
 235 1417 235 1417 209 1448 c 0,42,43
 170 1501 170 1501 39 1504 c 1,0,-1
EndSplineSet
Validated: 1
EndChar

StartChar: pi
Encoding: 960 960 155
Width: 1223
VWidth: 2458
Flags: W
LayerCount: 2
Fore
SplineSet
1182 1073 m 1,0,-1
 1182 921 l 1,1,-1
 1029 921 l 1,2,-1
 1029 0 l 1,3,-1
 857 0 l 1,4,-1
 857 921 l 1,5,-1
 367 921 l 1,6,-1
 367 0 l 1,7,-1
 195 0 l 1,8,-1
 195 921 l 1,9,-1
 41 921 l 1,10,-1
 41 1073 l 1,11,-1
 1182 1073 l 1,0,-1
EndSplineSet
Validated: 1
EndChar

StartChar: integral
Encoding: 8747 8747 156
Width: 559
VWidth: 2458
Flags: W
LayerCount: 2
Fore
SplineSet
385 1071 m 2,0,-1
 385 603 l 2,1,2
 385 313 385 313 373 160 c 0,3,4
 357 -41 357 -41 299 -136 c 0,5,6
 250 -215 250 -215 160 -215 c 0,7,8
 98 -215 98 -215 60 -175 c 0,9,10
 30 -143 30 -143 30 -103 c 0,11,12
 30 -61 30 -61 61 -30 c 0,13,14
 88 -2 88 -2 129 -2 c 0,15,16
 169 -2 169 -2 199 -32 c 0,17,18
 225 -58 225 -58 239 -58 c 0,19,20
 276 -58 276 -58 276 -1 c 0,21,22
 276 31 276 31 264 156 c 0,23,24
 235 457 235 457 235 585 c 2,25,-1
 235 1053 l 2,26,27
 235 1345 235 1345 247 1495 c 0,28,29
 263 1696 263 1696 321 1791 c 0,30,31
 369 1870 369 1870 460 1870 c 0,32,33
 520 1870 520 1870 558 1830 c 0,34,35
 588 1799 588 1799 588 1759 c 0,36,37
 588 1716 588 1716 558 1685 c 0,38,39
 531 1657 531 1657 490 1657 c 0,40,41
 448 1657 448 1657 419 1687 c 0,42,43
 393 1713 393 1713 378 1713 c 0,44,45
 342 1713 342 1713 342 1656 c 0,46,47
 342 1623 342 1623 354 1499 c 0,48,49
 385 1191 385 1191 385 1071 c 2,0,-1
EndSplineSet
Validated: 1
EndChar

StartChar: ordfeminine
Encoding: 170 170 157
Width: 758
VWidth: 2458
Flags: W
LayerCount: 2
Fore
SplineSet
656 725 m 1,0,-1
 656 621 l 1,1,-1
 88 621 l 1,2,-1
 88 725 l 1,3,-1
 656 725 l 1,0,-1
682 919 m 1,4,-1
 682 830 l 1,5,6
 648 816 648 816 617 816 c 0,7,8
 564 816 564 816 535 840 c 0,9,10
 513 859 513 859 503 905 c 1,11,12
 405 816 405 816 289 816 c 0,13,14
 190 816 190 816 132 871 c 0,15,16
 76 923 76 923 76 1013 c 0,17,18
 76 1143 76 1143 192 1191 c 0,19,20
 252 1216 252 1216 398 1229 c 0,21,22
 462 1235 462 1235 478 1248 c 0,23,24
 498 1262 498 1262 498 1295 c 2,25,-1
 498 1322 l 2,26,27
 498 1413 498 1413 361 1413 c 0,28,29
 275 1413 275 1413 245 1370 c 0,30,31
 230 1349 230 1349 221 1298 c 1,32,-1
 101 1298 l 1,33,34
 108 1520 108 1520 364 1520 c 0,35,36
 500 1520 500 1520 565 1461 c 0,37,38
 615 1416 615 1416 615 1326 c 2,39,-1
 615 959 l 2,40,41
 615 912 615 912 661 912 c 0,42,43
 671 912 671 912 682 919 c 1,4,-1
498 1163 m 1,44,45
 463 1148 463 1148 342 1131 c 0,46,47
 265 1120 265 1120 231 1095 c 0,48,49
 195 1069 195 1069 195 1019 c 0,50,51
 195 978 195 978 222 952 c 0,52,53
 251 922 251 922 313 922 c 0,54,55
 399 922 399 922 460 979 c 0,56,57
 498 1014 498 1014 498 1057 c 2,58,-1
 498 1163 l 1,44,45
EndSplineSet
Validated: 1
EndChar

StartChar: ordmasculine
Encoding: 186 186 158
Width: 748
VWidth: 2458
Flags: W
LayerCount: 2
Fore
SplineSet
643 725 m 1,0,-1
 643 621 l 1,1,-1
 105 621 l 1,2,-1
 105 725 l 1,3,-1
 643 725 l 1,0,-1
372 1520 m 0,4,5
 517 1520 517 1520 593 1422 c 0,6,7
 664 1331 664 1331 664 1164 c 0,8,9
 664 1008 664 1008 593 915 c 0,10,11
 518 817 518 817 373 817 c 0,12,13
 227 817 227 817 153 915 c 0,14,15
 82 1009 82 1009 82 1169 c 256,16,17
 82 1329 82 1329 153 1422 c 0,18,19
 228 1520 228 1520 372 1520 c 0,4,5
373 1414 m 0,20,21
 282 1414 282 1414 237 1334 c 0,22,23
 201 1270 201 1270 201 1169 c 0,24,25
 201 1069 201 1069 237 1004 c 0,26,27
 281 924 281 924 373 924 c 0,28,29
 464 924 464 924 509 1004 c 0,30,31
 545 1069 545 1069 545 1166 c 0,32,33
 545 1271 545 1271 509 1334 c 0,34,35
 463 1414 463 1414 373 1414 c 0,20,21
EndSplineSet
Validated: 1
EndChar

StartChar: Omega
Encoding: 8486 8486 159
Width: 1560
VWidth: 2458
Flags: W
LayerCount: 2
Fore
SplineSet
1096 168 m 1,0,-1
 1508 168 l 1,1,-1
 1508 0 l 1,2,-1
 892 0 l 1,3,-1
 892 159 l 1,4,5
 1051 246 1051 246 1132 337 c 0,6,7
 1301 524 1301 524 1301 790 c 0,8,9
 1301 1032 1301 1032 1140 1199 c 0,10,11
 1070 1273 1070 1273 994 1308 c 0,12,13
 903 1350 903 1350 780 1350 c 0,14,15
 614 1350 614 1350 503 1271 c 0,16,17
 379 1184 379 1184 314 1051 c 0,18,19
 259 939 259 939 259 790 c 0,20,21
 259 505 259 505 451 312 c 0,22,23
 526 236 526 236 667 159 c 1,24,-1
 667 0 l 1,25,-1
 51 0 l 1,26,-1
 51 168 l 1,27,-1
 463 168 l 1,28,29
 302 260 302 260 207 381 c 0,30,31
 68 556 68 556 68 814 c 0,32,33
 68 1133 68 1133 303 1341 c 0,34,35
 504 1518 504 1518 780 1518 c 0,36,37
 1055 1518 1055 1518 1256 1341 c 0,38,39
 1491 1133 1491 1133 1491 814 c 0,40,41
 1491 539 1491 539 1331 355 c 0,42,43
 1240 250 1240 250 1096 168 c 1,0,-1
EndSplineSet
Validated: 2097153
EndChar

StartChar: ae
Encoding: 230 230 160
Width: 1821
VWidth: 2458
Flags: W
LayerCount: 2
Fore
SplineSet
858 179 m 1,0,1
 762 81 762 81 680 30 c 0,2,3
 559 -47 559 -47 414 -47 c 0,4,5
 258 -47 258 -47 161 41 c 0,6,7
 70 123 70 123 70 271 c 0,8,9
 70 478 70 478 260 558 c 0,10,11
 356 598 356 598 603 621 c 0,12,13
 715 632 715 632 746 656 c 0,14,15
 780 681 780 681 781 741 c 2,16,-1
 781 787 l 2,17,18
 781 946 781 946 540 946 c 0,19,20
 309 946 309 946 290 756 c 1,21,-1
 118 756 l 1,22,23
 124 903 124 903 191 978 c 0,24,25
 304 1104 304 1104 543 1104 c 0,26,27
 806 1104 806 1104 901 937 c 1,28,29
 942 993 942 993 1000 1031 c 0,30,31
 1113 1104 1113 1104 1257 1104 c 0,32,33
 1430 1104 1430 1104 1557 1002 c 0,34,35
 1702 886 1702 886 1725 645 c 0,36,37
 1732 578 1732 578 1731 479 c 1,38,-1
 941 479 l 1,39,40
 943 334 943 334 998 250 c 0,41,42
 1089 111 1089 111 1256 111 c 0,43,44
 1465 111 1465 111 1538 326 c 1,45,-1
 1710 326 l 1,46,47
 1686 197 1686 197 1609 104 c 0,48,49
 1483 -47 1483 -47 1253 -47 c 0,50,51
 1075 -47 1075 -47 958 49 c 0,52,53
 903 94 903 94 858 179 c 1,0,1
781 529 m 1,54,55
 738 509 738 509 682 498 c 0,56,57
 634 488 634 488 506 469 c 0,58,59
 372 450 372 450 314 408 c 0,60,61
 248 361 248 361 248 274 c 0,62,63
 248 202 248 202 297 155 c 0,64,65
 350 103 350 103 452 103 c 0,66,67
 579 103 579 103 680 181 c 0,68,69
 781 258 781 258 781 322 c 2,70,-1
 781 529 l 1,54,55
1547 618 m 1,71,72
 1547 737 1547 737 1490 821 c 0,73,74
 1406 947 1406 947 1252 947 c 0,75,76
 1084 947 1084 947 998 801 c 0,77,78
 953 723 953 723 946 618 c 1,79,-1
 1547 618 l 1,71,72
EndSplineSet
Validated: 33
EndChar

StartChar: oslash
Encoding: 248 248 161
Width: 1251
VWidth: 2458
Flags: W
LayerCount: 2
Fore
SplineSet
954 901 m 1,0,1
 1045 752 1045 752 1045 528 c 0,2,3
 1045 267 1045 267 923 114 c 0,4,5
 795 -47 795 -47 562 -47 c 0,6,7
 352 -47 352 -47 227 79 c 1,8,-1
 103 -61 l 1,9,-1
 37 -5 l 1,10,-1
 172 148 l 1,11,12
 74 294 74 294 74 529 c 0,13,14
 74 790 74 790 196 943 c 0,15,16
 325 1104 325 1104 560 1104 c 0,17,18
 765 1104 765 1104 900 970 c 1,19,-1
 1018 1103 l 1,20,-1
 1084 1047 l 1,21,-1
 954 901 l 1,0,1
829 759 m 1,22,-1
 342 210 l 1,23,24
 429 111 429 111 560 111 c 0,25,26
 670 111 670 111 750 184 c 0,27,28
 867 289 867 289 867 529 c 0,29,30
 867 661 867 661 829 759 c 1,22,-1
296 288 m 1,31,-1
 784 839 l 1,32,33
 700 946 700 946 559 946 c 0,34,35
 450 946 450 946 369 873 c 0,36,37
 252 767 252 767 252 528 c 0,38,39
 252 389 252 389 296 288 c 1,31,-1
EndSplineSet
Validated: 1
EndChar

StartChar: questiondown
Encoding: 191 191 162
Width: 1251
VWidth: 2458
Flags: W
LayerCount: 2
Fore
SplineSet
564 666 m 1,0,-1
 748 666 l 1,1,-1
 748 554 l 2,2,3
 747 474 747 474 720 423 c 0,4,5
 693 369 693 369 631 308 c 0,6,7
 607 286 607 286 582 264 c 0,8,9
 558 242 558 242 533 220 c 0,10,11
 451 147 451 147 414 82 c 0,12,13
 379 23 379 23 379 -50 c 0,14,15
 379 -162 379 -162 461 -227 c 0,16,17
 531 -284 531 -284 643 -284 c 0,18,19
 811 -284 811 -284 873 -165 c 0,20,21
 908 -97 908 -97 908 35 c 1,22,-1
 1082 35 l 1,23,24
 1082 28 1082 28 1082 21 c 0,25,26
 1082 -152 1082 -152 1015 -262 c 0,27,28
 905 -444 905 -444 633 -444 c 0,29,30
 427 -444 427 -444 309 -332 c 0,31,32
 195 -225 195 -225 195 -50 c 0,33,34
 195 59 195 59 244 140 c 0,35,36
 292 218 292 218 401 317 c 0,37,38
 479 388 479 388 497 407 c 0,39,40
 564 484 564 484 564 570 c 2,41,-1
 564 666 l 1,0,-1
564 860 m 1,42,-1
 564 1073 l 1,43,-1
 748 1073 l 1,44,-1
 748 860 l 1,45,-1
 564 860 l 1,42,-1
EndSplineSet
Validated: 1
EndChar

StartChar: exclamdown
Encoding: 161 161 163
Width: 682
VWidth: 2458
Flags: W
LayerCount: 2
Fore
SplineSet
249 -420 m 1,0,-1
 249 272 l 1,1,-1
 294 729 l 1,2,-1
 374 729 l 1,3,-1
 419 272 l 1,4,-1
 419 -420 l 1,5,-1
 249 -420 l 1,0,-1
248 860 m 1,6,-1
 248 1073 l 1,7,-1
 420 1073 l 1,8,-1
 420 860 l 1,9,-1
 248 860 l 1,6,-1
EndSplineSet
Validated: 1
EndChar

StartChar: logicalnot
Encoding: 172 172 164
Width: 1196
VWidth: 2458
Flags: W
LayerCount: 2
Fore
SplineSet
82 768 m 1,0,-1
 1114 768 l 1,1,-1
 1114 176 l 1,2,-1
 971 176 l 1,3,-1
 971 625 l 1,4,-1
 82 625 l 1,5,-1
 82 768 l 1,0,-1
EndSplineSet
Validated: 1
EndChar

StartChar: radical
Encoding: 8730 8730 165
Width: 1110
VWidth: 2458
Flags: W
LayerCount: 2
Fore
SplineSet
975 1870 m 1,0,-1
 1048 1860 l 1,1,-1
 737 -74 l 1,2,-1
 244 945 l 1,3,-1
 51 849 l 1,4,-1
 14 918 l 1,5,-1
 317 1067 l 1,6,-1
 713 257 l 1,7,-1
 975 1870 l 1,0,-1
EndSplineSet
Validated: 1
EndChar

StartChar: florin
Encoding: 402 402 166
Width: 1139
VWidth: 2458
Flags: W
LayerCount: 2
Fore
SplineSet
957 946 m 1,0,-1
 957 803 l 1,1,-1
 698 803 l 1,2,-1
 546 -10 l 2,3,4
 507 -219 507 -219 412 -318 c 0,5,6
 357 -375 357 -375 277 -406 c 0,7,8
 207 -434 207 -434 135 -434 c 0,9,10
 64 -434 64 -434 23 -413 c 1,11,-1
 57 -240 l 1,12,13
 106 -274 106 -274 161 -274 c 0,14,15
 314 -274 314 -274 358 -42 c 2,16,-1
 518 803 l 1,17,-1
 287 803 l 1,18,-1
 287 946 l 1,19,-1
 543 946 l 1,20,-1
 588 1159 l 2,21,22
 623 1327 623 1327 714 1414 c 0,23,24
 816 1512 816 1512 949 1512 c 0,25,26
 1023 1512 1023 1512 1110 1473 c 1,27,-1
 1050 1311 l 1,28,29
 984 1348 984 1348 942 1348 c 0,30,31
 879 1348 879 1348 830 1291 c 0,32,33
 775 1227 775 1227 751 1090 c 2,34,-1
 725 946 l 1,35,-1
 957 946 l 1,0,-1
EndSplineSet
Validated: 1
EndChar

StartChar: approxequal
Encoding: 8776 8776 167
Width: 1198
VWidth: 2458
Flags: W
LayerCount: 2
Fore
SplineSet
1017 794 m 1,0,-1
 1095 722 l 1,1,2
 1023 617 1023 617 996 584 c 0,3,4
 925 497 925 497 829 497 c 0,5,6
 782 497 782 497 714 520 c 0,7,8
 700 525 700 525 591 566 c 0,9,10
 435 627 435 627 374 627 c 0,11,12
 308 627 308 627 256 581 c 0,13,14
 220 549 220 549 178 472 c 1,15,-1
 102 544 l 1,16,17
 160 637 160 637 189 676 c 0,18,19
 271 783 271 783 381 783 c 0,20,21
 451 783 451 783 632 709 c 0,22,23
 732 669 732 669 766 661 c 256,24,25
 800 653 800 653 830 653 c 0,26,27
 895 653 895 653 941 692 c 0,28,29
 975 721 975 721 1017 794 c 1,0,-1
1017 466 m 1,30,-1
 1095 394 l 1,31,32
 1022 289 1022 289 996 256 c 0,33,34
 925 169 925 169 829 169 c 0,35,36
 782 169 782 169 714 192 c 0,37,38
 700 197 700 197 591 239 c 0,39,40
 435 299 435 299 374 299 c 0,41,42
 309 299 309 299 256 253 c 0,43,44
 219 221 219 221 178 144 c 1,45,-1
 102 217 l 1,46,47
 160 310 160 310 189 348 c 0,48,49
 271 455 271 455 381 455 c 0,50,51
 452 455 452 455 632 381 c 0,52,53
 732 340 732 340 766 333 c 0,54,55
 800 325 800 325 830 325 c 0,56,57
 895 325 895 325 941 364 c 0,58,59
 975 393 975 393 1017 466 c 1,30,-1
EndSplineSet
Validated: 1
EndChar

StartChar: Delta
Encoding: 8710 8710 168
Width: 1456
VWidth: 2458
Flags: W
LayerCount: 2
Fore
SplineSet
20 0 m 1,0,-1
 622 1493 l 1,1,-1
 827 1493 l 1,2,-1
 1435 0 l 1,3,-1
 20 0 l 1,0,-1
726 1261 m 1,4,-1
 292 168 l 1,5,-1
 1159 168 l 1,6,-1
 726 1261 l 1,4,-1
EndSplineSet
Validated: 2097153
EndChar

StartChar: guillemotleft
Encoding: 171 171 169
Width: 1139
VWidth: 2458
Flags: W
LayerCount: 2
Fore
SplineSet
201 466 m 1,0,-1
 201 648 l 1,1,-1
 512 897 l 1,2,-1
 512 726 l 1,3,-1
 295 557 l 1,4,-1
 512 388 l 1,5,-1
 512 217 l 1,6,-1
 201 466 l 1,0,-1
621 466 m 1,7,-1
 621 648 l 1,8,-1
 932 897 l 1,9,-1
 932 726 l 1,10,-1
 715 557 l 1,11,-1
 932 388 l 1,12,-1
 932 217 l 1,13,-1
 621 466 l 1,7,-1
EndSplineSet
Validated: 1
EndChar

StartChar: guillemotright
Encoding: 187 187 170
Width: 1139
VWidth: 2458
Flags: W
LayerCount: 2
Fore
SplineSet
516 648 m 1,0,-1
 516 467 l 1,1,-1
 201 217 l 1,2,-1
 201 388 l 1,3,-1
 422 557 l 1,4,-1
 201 726 l 1,5,-1
 201 897 l 1,6,-1
 516 648 l 1,0,-1
924 648 m 1,7,-1
 924 467 l 1,8,-1
 609 217 l 1,9,-1
 609 388 l 1,10,-1
 830 557 l 1,11,-1
 609 726 l 1,12,-1
 609 897 l 1,13,-1
 924 648 l 1,7,-1
EndSplineSet
Validated: 1
EndChar

StartChar: ellipsis
Encoding: 8230 8230 171
Width: 2048
VWidth: 2458
Flags: W
LayerCount: 2
Fore
SplineSet
449 213 m 1,0,-1
 449 0 l 1,1,-1
 236 0 l 1,2,-1
 236 213 l 1,3,-1
 449 213 l 1,0,-1
1131 213 m 1,4,-1
 1131 0 l 1,5,-1
 918 0 l 1,6,-1
 918 213 l 1,7,-1
 1131 213 l 1,4,-1
1813 213 m 1,8,-1
 1813 0 l 1,9,-1
 1600 0 l 1,10,-1
 1600 213 l 1,11,-1
 1813 213 l 1,8,-1
EndSplineSet
Validated: 1
EndChar

StartChar: OE
Encoding: 338 338 176
Width: 2048
VWidth: 2458
Flags: W
LayerCount: 2
Fore
SplineSet
1266 670 m 1,0,-1
 1266 168 l 1,1,-1
 1964 168 l 1,2,-1
 1964 0 l 1,3,-1
 1076 0 l 1,4,-1
 1076 151 l 1,5,6
 940 -41 940 -41 699 -41 c 0,7,8
 430 -41 430 -41 267 148 c 0,9,10
 89 354 89 354 89 729 c 0,11,12
 89 1150 89 1150 299 1358 c 0,13,14
 373 1431 373 1431 478 1474 c 0,15,16
 586 1518 586 1518 701 1518 c 0,17,18
 948 1518 948 1518 1076 1337 c 1,19,-1
 1076 1493 l 1,20,-1
 1954 1493 l 1,21,-1
 1954 1325 l 1,22,-1
 1266 1325 l 1,23,-1
 1266 838 l 1,24,-1
 1937 838 l 1,25,-1
 1937 670 l 1,26,-1
 1266 670 l 1,0,-1
1076 1104 m 1,27,28
 955 1350 955 1350 702 1350 c 0,29,30
 492 1350 492 1350 385 1189 c 0,31,32
 321 1094 321 1094 301 983 c 0,33,34
 280 870 280 870 280 738 c 0,35,36
 280 529 280 529 324 407 c 0,37,38
 426 127 426 127 701 127 c 0,39,40
 953 127 953 127 1076 372 c 1,41,-1
 1076 1104 l 1,27,28
EndSplineSet
Validated: 1
EndChar

StartChar: oe
Encoding: 339 339 177
Width: 1933
VWidth: 2458
Flags: W
LayerCount: 2
Fore
SplineSet
965 165 m 1,0,1
 836 -47 836 -47 567 -47 c 0,2,3
 327 -47 327 -47 201 112 c 0,4,5
 82 262 82 262 82 529 c 256,6,7
 82 796 82 796 201 946 c 0,8,9
 327 1104 327 1104 567 1104 c 0,10,11
 844 1104 844 1104 968 886 c 1,12,13
 991 923 991 923 1018 953 c 0,14,15
 1155 1104 1155 1104 1364 1104 c 0,16,17
 1539 1104 1539 1104 1667 1002 c 0,18,19
 1812 886 1812 886 1835 645 c 0,20,21
 1841 578 1841 578 1841 479 c 1,22,-1
 1051 479 l 1,23,24
 1053 334 1053 334 1108 250 c 0,25,26
 1198 111 1198 111 1366 111 c 0,27,28
 1575 111 1575 111 1647 326 c 1,29,-1
 1820 326 l 1,30,31
 1796 197 1796 197 1718 104 c 0,32,33
 1593 -47 1593 -47 1361 -47 c 0,34,35
 1136 -47 1136 -47 1005 109 c 0,36,37
 984 134 984 134 965 165 c 1,0,1
567 946 m 0,38,39
 458 946 458 946 378 874 c 0,40,41
 260 768 260 768 260 529 c 0,42,43
 260 359 260 359 324 249 c 0,44,45
 360 188 360 188 423 150 c 0,46,47
 488 111 488 111 568 111 c 0,48,49
 677 111 677 111 758 184 c 0,50,51
 875 289 875 289 875 524 c 0,52,53
 875 702 875 702 811 809 c 0,54,55
 775 870 775 870 713 907 c 0,56,57
 647 946 647 946 567 946 c 0,38,39
1657 618 m 1,58,59
 1656 736 1656 736 1600 820 c 0,60,61
 1516 946 1516 946 1362 946 c 0,62,63
 1193 946 1193 946 1108 801 c 0,64,65
 1063 723 1063 723 1055 618 c 1,66,-1
 1657 618 l 1,58,59
EndSplineSet
Validated: 1
EndChar

StartChar: endash
Encoding: 8211 8211 178
Width: 1139
VWidth: 2458
Flags: W
LayerCount: 2
Fore
SplineSet
1149 639 m 1,0,-1
 1149 492 l 1,1,-1
 -10 492 l 1,2,-1
 -10 639 l 1,3,-1
 1149 639 l 1,0,-1
EndSplineSet
Validated: 1
EndChar

StartChar: emdash
Encoding: 8212 8212 179
Width: 2048
VWidth: 2458
Flags: W
LayerCount: 2
Fore
SplineSet
2050 639 m 1,0,-1
 2050 492 l 1,1,-1
 -18 492 l 1,2,-1
 -18 639 l 1,3,-1
 2050 639 l 1,0,-1
EndSplineSet
Validated: 1
EndChar

StartChar: quotedblleft
Encoding: 8220 8220 180
Width: 682
VWidth: 2458
Flags: W
LayerCount: 2
Fore
SplineSet
288 977 m 1,0,-1
 98 977 l 1,1,-1
 98 1183 l 2,2,3
 99 1343 99 1343 177 1407 c 0,4,5
 228 1449 228 1449 288 1452 c 1,6,-1
 288 1374 l 1,7,8
 186 1360 186 1360 191 1190 c 1,9,-1
 288 1190 l 1,10,-1
 288 977 l 1,0,-1
612 977 m 1,11,-1
 422 977 l 1,12,-1
 422 1183 l 2,13,14
 423 1343 423 1343 501 1407 c 0,15,16
 552 1449 552 1449 612 1452 c 1,17,-1
 612 1374 l 1,18,19
 510 1360 510 1360 515 1190 c 1,20,-1
 612 1190 l 1,21,-1
 612 977 l 1,11,-1
EndSplineSet
Validated: 33
EndChar

StartChar: quotedblright
Encoding: 8221 8221 181
Width: 682
VWidth: 2458
Flags: W
LayerCount: 2
Fore
SplineSet
100 1452 m 1,0,-1
 290 1452 l 1,1,-1
 290 1246 l 2,2,3
 289 1086 289 1086 212 1022 c 0,4,5
 162 980 162 980 100 977 c 1,6,-1
 100 1055 l 1,7,8
 202 1069 202 1069 198 1239 c 1,9,-1
 100 1239 l 1,10,-1
 100 1452 l 1,0,-1
428 1452 m 1,11,-1
 618 1452 l 1,12,-1
 618 1246 l 2,13,14
 617 1086 617 1086 540 1022 c 0,15,16
 490 980 490 980 428 977 c 1,17,-1
 428 1055 l 1,18,19
 530 1069 530 1069 526 1239 c 1,20,-1
 428 1239 l 1,21,-1
 428 1452 l 1,11,-1
EndSplineSet
Validated: 33
EndChar

StartChar: quoteleft
Encoding: 8216 8216 182
Width: 455
VWidth: 2458
Flags: W
LayerCount: 2
Fore
SplineSet
323 977 m 1,0,-1
 133 977 l 1,1,-1
 133 1183 l 2,2,3
 134 1343 134 1343 212 1407 c 0,4,5
 263 1449 263 1449 323 1452 c 1,6,-1
 323 1374 l 1,7,8
 221 1360 221 1360 226 1190 c 1,9,-1
 323 1190 l 1,10,-1
 323 977 l 1,0,-1
EndSplineSet
Validated: 33
EndChar

StartChar: quoteright
Encoding: 8217 8217 183
Width: 453
VWidth: 2458
Flags: W
LayerCount: 2
Fore
SplineSet
131 1493 m 1,0,-1
 321 1493 l 1,1,-1
 321 1287 l 2,2,3
 320 1127 320 1127 243 1063 c 0,4,5
 193 1021 193 1021 131 1018 c 1,6,-1
 131 1096 l 1,7,8
 233 1110 233 1110 229 1280 c 1,9,-1
 131 1280 l 1,10,-1
 131 1493 l 1,0,-1
EndSplineSet
Validated: 33
EndChar

StartChar: divide
Encoding: 247 247 184
Width: 1196
VWidth: 2458
Flags: W
LayerCount: 2
Fore
SplineSet
1093 555 m 1,0,-1
 1093 412 l 1,1,-1
 102 412 l 1,2,-1
 102 555 l 1,3,-1
 1093 555 l 1,0,-1
704 213 m 1,4,-1
 704 0 l 1,5,-1
 491 0 l 1,6,-1
 491 213 l 1,7,-1
 704 213 l 1,4,-1
704 967 m 1,8,-1
 704 754 l 1,9,-1
 491 754 l 1,10,-1
 491 967 l 1,11,-1
 704 967 l 1,8,-1
EndSplineSet
Validated: 1
EndChar

StartChar: lozenge
Encoding: 9674 9674 185
Width: 1001
VWidth: 2458
Flags: W
LayerCount: 2
Fore
SplineSet
553 1524 m 1,0,-1
 946 762 l 1,1,-1
 553 0 l 1,2,-1
 426 0 l 1,3,-1
 33 762 l 1,4,-1
 426 1524 l 1,5,-1
 553 1524 l 1,0,-1
491 123 m 1,6,-1
 820 762 l 1,7,-1
 491 1401 l 1,8,-1
 162 762 l 1,9,-1
 491 123 l 1,6,-1
EndSplineSet
Validated: 1
EndChar

StartChar: Ydieresis
Encoding: 376 376 187
Width: 1366
VWidth: 2458
Flags: W
LayerCount: 2
Fore
SplineSet
792 585 m 1,0,-1
 792 0 l 1,1,-1
 602 0 l 1,2,-1
 602 585 l 1,3,-1
 27 1493 l 1,4,-1
 261 1493 l 1,5,-1
 701 766 l 1,6,-1
 1125 1493 l 1,7,-1
 1353 1493 l 1,8,-1
 792 585 l 1,0,-1
640 1871 m 1,9,-1
 640 1660 l 1,10,-1
 427 1660 l 1,11,-1
 427 1871 l 1,12,-1
 640 1871 l 1,9,-1
972 1871 m 1,13,-1
 972 1660 l 1,14,-1
 759 1660 l 1,15,-1
 759 1871 l 1,16,-1
 972 1871 l 1,13,-1
EndSplineSet
Validated: 1
EndChar

StartChar: fraction
Encoding: 8260 8260 188
Width: 342
VWidth: 2458
Flags: W
LayerCount: 2
Fore
SplineSet
570 1452 m 1,0,-1
 688 1452 l 1,1,-1
 -237 -41 l 1,2,-1
 -356 -41 l 1,3,-1
 570 1452 l 1,0,-1
EndSplineSet
Validated: 2097153
EndChar

StartChar: currency
Encoding: 164 164 189
Width: 1139
VWidth: 2458
Flags: W
LayerCount: 2
Fore
SplineSet
993 389 m 1,0,-1
 874 278 l 1,1,-1
 766 387 l 1,2,3
 681 325 681 325 562 325 c 0,4,5
 454 325 454 325 369 377 c 1,6,-1
 263 273 l 1,7,-1
 149 389 l 1,8,-1
 247 489 l 1,9,10
 182 579 182 579 182 698 c 0,11,12
 182 815 182 815 248 908 c 1,13,-1
 137 1019 l 1,14,-1
 253 1129 l 1,15,-1
 364 1016 l 1,16,17
 453 1069 453 1069 562 1069 c 0,18,19
 680 1069 680 1069 765 1011 c 1,20,-1
 885 1120 l 1,21,-1
 1001 1001 l 1,22,-1
 888 889 l 1,23,24
 942 805 942 805 942 699 c 0,25,26
 942 595 942 595 883 499 c 1,27,-1
 993 389 l 1,0,-1
562 911 m 0,28,29
 472 911 472 911 408 848 c 0,30,31
 344 786 344 786 344 697 c 0,32,33
 344 609 344 609 408 546 c 256,34,35
 472 483 472 483 562 483 c 256,36,37
 652 483 652 483 716 546 c 256,38,39
 780 609 780 609 780 694 c 0,40,41
 780 787 780 787 716 848 c 0,42,43
 651 911 651 911 562 911 c 0,28,29
EndSplineSet
Validated: 1
EndChar

StartChar: guilsinglleft
Encoding: 8249 8249 190
Width: 682
VWidth: 2458
Flags: W
LayerCount: 2
Fore
SplineSet
186 466 m 1,0,-1
 186 648 l 1,1,-1
 497 897 l 1,2,-1
 497 726 l 1,3,-1
 280 557 l 1,4,-1
 497 388 l 1,5,-1
 497 217 l 1,6,-1
 186 466 l 1,0,-1
EndSplineSet
Validated: 1
EndChar

StartChar: guilsinglright
Encoding: 8250 8250 191
Width: 682
VWidth: 2458
Flags: W
LayerCount: 2
Fore
SplineSet
489 648 m 1,0,-1
 489 467 l 1,1,-1
 174 217 l 1,2,-1
 174 388 l 1,3,-1
 395 557 l 1,4,-1
 174 726 l 1,5,-1
 174 897 l 1,6,-1
 489 648 l 1,0,-1
EndSplineSet
Validated: 1
EndChar

StartChar: fi
Encoding: 61441 61441 192
AltUni2: 00fb01.ffffffff.0
Width: 1024
VWidth: 2458
Flags: W
LayerCount: 2
Fore
SplineSet
517 1073 m 1,0,-1
 517 934 l 1,1,-1
 338 934 l 1,2,-1
 338 0 l 1,3,-1
 168 0 l 1,4,-1
 168 934 l 1,5,-1
 25 934 l 1,6,-1
 25 1073 l 1,7,-1
 168 1073 l 1,8,-1
 168 1255 l 2,9,10
 168 1378 168 1378 245 1443 c 0,11,12
 311 1499 311 1499 420 1499 c 0,13,14
 464 1499 464 1499 517 1489 c 1,15,-1
 517 1347 l 1,16,-1
 498 1348 l 2,17,18
 469 1349 469 1349 458 1349 c 0,19,20
 338 1349 338 1349 338 1241 c 2,21,-1
 338 1073 l 1,22,-1
 517 1073 l 1,0,-1
893 1073 m 1,23,-1
 893 0 l 1,24,-1
 723 0 l 1,25,-1
 723 1073 l 1,26,-1
 893 1073 l 1,23,-1
893 1493 m 1,27,-1
 893 1278 l 1,28,-1
 723 1278 l 1,29,-1
 723 1493 l 1,30,-1
 893 1493 l 1,27,-1
EndSplineSet
Validated: 2097153
EndChar

StartChar: fl
Encoding: 61442 61442 193
AltUni2: 00fb02.ffffffff.0
Width: 1024
VWidth: 2458
Flags: W
LayerCount: 2
Fore
SplineSet
527 1073 m 1,0,-1
 527 934 l 1,1,-1
 348 934 l 1,2,-1
 348 0 l 1,3,-1
 178 0 l 1,4,-1
 178 934 l 1,5,-1
 35 934 l 1,6,-1
 35 1073 l 1,7,-1
 178 1073 l 1,8,-1
 178 1255 l 2,9,10
 178 1378 178 1378 255 1443 c 0,11,12
 321 1499 321 1499 430 1499 c 0,13,14
 474 1499 474 1499 527 1489 c 1,15,-1
 527 1347 l 1,16,-1
 508 1348 l 2,17,18
 479 1349 479 1349 468 1349 c 0,19,20
 348 1349 348 1349 348 1241 c 2,21,-1
 348 1073 l 1,22,-1
 527 1073 l 1,0,-1
881 1493 m 1,23,-1
 881 0 l 1,24,-1
 711 0 l 1,25,-1
 711 1493 l 1,26,-1
 881 1493 l 1,23,-1
EndSplineSet
Validated: 2097153
EndChar

StartChar: daggerdbl
Encoding: 8225 8225 194
Width: 1139
VWidth: 2458
Flags: W
LayerCount: 2
Fore
SplineSet
1051 1028 m 1,0,-1
 1051 860 l 1,1,-1
 653 860 l 1,2,-1
 653 231 l 1,3,-1
 1051 231 l 1,4,-1
 1051 63 l 1,5,-1
 653 63 l 1,6,-1
 653 -362 l 1,7,-1
 473 -362 l 1,8,-1
 473 63 l 1,9,-1
 78 63 l 1,10,-1
 78 231 l 1,11,-1
 473 231 l 1,12,-1
 473 860 l 1,13,-1
 78 860 l 1,14,-1
 78 1028 l 1,15,-1
 473 1028 l 1,16,-1
 473 1452 l 1,17,-1
 653 1452 l 1,18,-1
 653 1028 l 1,19,-1
 1051 1028 l 1,0,-1
EndSplineSet
Validated: 1
EndChar

StartChar: periodcentered
Encoding: 8729 8729 195
Width: 569
VWidth: 2458
Flags: W
LayerCount: 2
Fore
SplineSet
432 874 m 1,0,-1
 432 618 l 1,1,-1
 178 618 l 1,2,-1
 178 874 l 1,3,-1
 432 874 l 1,0,-1
EndSplineSet
Validated: 2097153
EndChar

StartChar: quotesinglbase
Encoding: 8218 8218 196
Width: 455
VWidth: 2458
Flags: W
LayerCount: 2
Fore
SplineSet
133 213 m 1,0,-1
 323 213 l 1,1,-1
 323 7 l 2,2,3
 322 -153 322 -153 244 -217 c 0,4,5
 194 -259 194 -259 131 -262 c 1,6,-1
 131 -184 l 1,7,8
 235 -170 235 -170 231 0 c 1,9,-1
 133 0 l 1,10,-1
 133 213 l 1,0,-1
EndSplineSet
Validated: 33
EndChar

StartChar: quotedblbase
Encoding: 8222 8222 197
Width: 682
VWidth: 2458
Flags: W
LayerCount: 2
Fore
SplineSet
96 213 m 1,0,-1
 286 213 l 1,1,-1
 286 7 l 2,2,3
 285 -153 285 -153 208 -217 c 0,4,5
 158 -259 158 -259 96 -262 c 1,6,-1
 96 -184 l 1,7,8
 198 -170 198 -170 194 0 c 1,9,-1
 96 0 l 1,10,-1
 96 213 l 1,0,-1
424 213 m 1,11,-1
 614 213 l 1,12,-1
 614 7 l 2,13,14
 613 -153 613 -153 536 -217 c 0,15,16
 486 -259 486 -259 424 -262 c 1,17,-1
 424 -184 l 1,18,19
 526 -170 526 -170 522 0 c 1,20,-1
 424 0 l 1,21,-1
 424 213 l 1,11,-1
EndSplineSet
Validated: 33
EndChar

StartChar: perthousand
Encoding: 8240 8240 198
Width: 2048
VWidth: 2458
Flags: W
LayerCount: 2
Fore
SplineSet
324 1491 m 0,0,1
 450 1491 450 1491 540 1401 c 256,2,3
 630 1311 630 1311 630 1179 c 0,4,5
 630 1055 630 1055 540 964 c 0,6,7
 451 874 451 874 324 874 c 256,8,9
 197 874 197 874 108 964 c 0,10,11
 18 1055 18 1055 18 1183 c 0,12,13
 18 1313 18 1313 108 1401 c 0,14,15
 200 1491 200 1491 324 1491 c 0,0,1
324 1368 m 0,16,17
 247 1368 247 1368 193 1314 c 0,18,19
 139 1259 139 1259 139 1183 c 0,20,21
 139 1106 139 1106 193 1051 c 0,22,23
 247 997 247 997 324 997 c 256,24,25
 401 997 401 997 455 1051 c 0,26,27
 509 1106 509 1106 509 1180 c 0,28,29
 509 1261 509 1261 455 1314 c 0,30,31
 400 1368 400 1368 324 1368 c 0,16,17
1007 1511 m 1,32,-1
 1142 1511 l 1,33,-1
 334 -41 l 1,34,-1
 199 -41 l 1,35,-1
 1007 1511 l 1,32,-1
989 572 m 0,36,37
 1116 572 1116 572 1206 482 c 256,38,39
 1296 392 1296 392 1296 260 c 0,40,41
 1296 136 1296 136 1206 45 c 0,42,43
 1116 -45 1116 -45 990 -45 c 0,44,45
 862 -45 862 -45 773 45 c 0,46,47
 683 136 683 136 683 264 c 0,48,49
 683 394 683 394 773 482 c 0,50,51
 865 572 865 572 989 572 c 0,36,37
989 449 m 256,52,53
 913 449 913 449 858 395 c 0,54,55
 804 340 804 340 804 264 c 0,56,57
 804 187 804 187 858 133 c 0,58,59
 913 78 913 78 989 78 c 0,60,61
 1066 78 1066 78 1121 133 c 0,62,63
 1175 187 1175 187 1175 262 c 0,64,65
 1175 342 1175 342 1121 395 c 0,66,67
 1065 449 1065 449 989 449 c 256,52,53
1726 572 m 0,68,69
 1854 572 1854 572 1943 482 c 0,70,71
 2033 392 2033 392 2033 260 c 0,72,73
 2033 136 2033 136 1943 45 c 0,74,75
 1854 -45 1854 -45 1727 -45 c 0,76,77
 1601 -45 1601 -45 1511 45 c 0,78,79
 1421 136 1421 136 1421 264 c 0,80,81
 1421 394 1421 394 1511 482 c 0,82,83
 1603 572 1603 572 1726 572 c 0,68,69
1727 449 m 0,84,85
 1650 449 1650 449 1596 395 c 0,86,87
 1542 340 1542 340 1542 264 c 0,88,89
 1542 187 1542 187 1596 132 c 0,90,91
 1650 78 1650 78 1727 78 c 256,92,93
 1804 78 1804 78 1858 132 c 0,94,95
 1912 187 1912 187 1912 261 c 0,96,97
 1912 342 1912 342 1858 395 c 0,98,99
 1803 449 1803 449 1727 449 c 0,84,85
EndSplineSet
Validated: 1
EndChar

StartChar: Euro
Encoding: 8364 8364 210
Width: 1139
VWidth: 2458
Flags: W
LayerCount: 2
Fore
SplineSet
163 640 m 1,0,1
 162 688 162 688 162 691 c 0,2,3
 162 721 162 721 165 776 c 1,4,-1
 5 776 l 1,5,-1
 50 897 l 1,6,-1
 179 897 l 1,7,8
 210 1092 210 1092 314 1245 c 0,9,10
 456 1452 456 1452 720 1452 c 0,11,12
 920 1452 920 1452 1112 1315 c 1,13,-1
 1047 1152 l 1,14,15
 936 1232 936 1232 871 1259 c 0,16,17
 787 1295 787 1295 705 1295 c 0,18,19
 542 1295 542 1295 448 1138 c 0,20,21
 398 1056 398 1056 365 897 c 1,22,-1
 948 897 l 1,23,-1
 900 776 l 1,24,-1
 346 776 l 1,25,26
 343 739 343 739 343 701 c 0,27,28
 343 672 343 672 345 640 c 1,29,-1
 848 640 l 1,30,-1
 800 519 l 1,31,-1
 361 519 l 1,32,33
 438 113 438 113 707 113 c 0,34,35
 803 113 803 113 914 165 c 0,36,37
 958 186 958 186 1047 239 c 1,38,-1
 1047 48 l 1,39,40
 892 -47 892 -47 707 -47 c 0,41,42
 521 -47 521 -47 389 63 c 0,43,44
 230 195 230 195 175 519 c 1,45,-1
 4 519 l 1,46,-1
 50 640 l 1,47,-1
 163 640 l 1,0,1
EndSplineSet
Validated: 1
EndChar

StartChar: dotlessi
Encoding: 305 305 215
Width: 569
VWidth: 2458
Flags: W
LayerCount: 2
Fore
SplineSet
365 1073 m 1,0,-1
 365 0 l 1,1,-1
 193 0 l 1,2,-1
 193 1073 l 1,3,-1
 365 1073 l 1,0,-1
EndSplineSet
Validated: 1
EndChar

StartChar: circumflex
Encoding: 710 710 216
Width: 682
VWidth: 2458
Flags: W
LayerCount: 2
Fore
SplineSet
238 1518 m 1,0,-1
 431 1518 l 1,1,-1
 629 1210 l 1,2,-1
 499 1210 l 1,3,-1
 334 1407 l 1,4,-1
 172 1210 l 1,5,-1
 41 1210 l 1,6,-1
 238 1518 l 1,0,-1
EndSplineSet
Validated: 1
EndChar

StartChar: tilde
Encoding: 732 732 217
Width: 682
VWidth: 2458
Flags: W
LayerCount: 2
Fore
SplineSet
535 1469 m 1,0,-1
 653 1469 l 1,1,2
 623 1256 623 1256 470 1256 c 0,3,4
 426 1256 426 1256 296 1306 c 0,5,6
 228 1333 228 1333 195 1333 c 0,7,8
 149 1333 149 1333 128 1258 c 1,9,-1
 10 1258 l 1,10,11
 22 1332 22 1332 51 1382 c 0,12,13
 101 1469 101 1469 186 1469 c 0,14,15
 234 1469 234 1469 329 1430 c 0,16,17
 415 1394 415 1394 458 1394 c 0,18,19
 511 1394 511 1394 535 1469 c 1,0,-1
EndSplineSet
Validated: 1
EndChar

StartChar: macron
Encoding: 713 713 218
Width: 682
VWidth: 2458
Flags: W
LayerCount: 2
Fore
SplineSet
618 1435 m 1,0,-1
 618 1292 l 1,1,-1
 57 1292 l 1,2,-1
 57 1435 l 1,3,-1
 618 1435 l 1,0,-1
EndSplineSet
Validated: 2097153
EndChar

StartChar: breve
Encoding: 728 728 219
Width: 682
VWidth: 2458
Flags: W
LayerCount: 2
Fore
SplineSet
31 1500 m 1,0,-1
 151 1500 l 1,1,2
 166 1364 166 1364 341 1364 c 0,3,4
 442 1364 442 1364 493 1418 c 0,5,6
 522 1450 522 1450 527 1500 c 1,7,-1
 647 1500 l 1,8,9
 639 1385 639 1385 584 1322 c 0,10,11
 499 1223 499 1223 336 1223 c 0,12,13
 158 1223 158 1223 74 1339 c 0,14,15
 35 1395 35 1395 31 1500 c 1,0,-1
EndSplineSet
Validated: 1
EndChar

StartChar: dotaccent
Encoding: 729 729 220
Width: 682
VWidth: 2458
Flags: W
LayerCount: 2
Fore
SplineSet
449 1466 m 1,0,-1
 449 1253 l 1,1,-1
 236 1253 l 1,2,-1
 236 1466 l 1,3,-1
 449 1466 l 1,0,-1
EndSplineSet
Validated: 1
EndChar

StartChar: ring
Encoding: 730 730 221
Width: 682
VWidth: 2458
Flags: W
LayerCount: 2
Fore
SplineSet
342 1545 m 0,0,1
 417 1545 417 1545 470 1492 c 0,2,3
 523 1440 523 1440 523 1364 c 0,4,5
 523 1291 523 1291 470 1239 c 0,6,7
 418 1186 418 1186 342 1186 c 0,8,9
 268 1186 268 1186 215 1239 c 256,10,11
 162 1292 162 1292 162 1366 c 0,12,13
 162 1441 162 1441 215 1492 c 0,14,15
 269 1545 269 1545 342 1545 c 0,0,1
342 1456 m 0,16,17
 305 1456 305 1456 278 1430 c 0,18,19
 251 1403 251 1403 251 1366 c 256,20,21
 251 1329 251 1329 278 1302 c 256,22,23
 305 1275 305 1275 343 1275 c 0,24,25
 380 1275 380 1275 407 1302 c 256,26,27
 434 1329 434 1329 434 1364 c 0,28,29
 434 1405 434 1405 408 1430 c 0,30,31
 381 1456 381 1456 342 1456 c 0,16,17
EndSplineSet
Validated: 1
EndChar

StartChar: cedilla
Encoding: 184 184 222
Width: 682
VWidth: 2458
Flags: W
LayerCount: 2
Fore
SplineSet
337 0 m 1,0,-1
 417 0 l 1,1,-1
 369 -114 l 1,2,3
 404 -110 404 -110 426 -110 c 0,4,5
 507 -110 507 -110 550 -150 c 0,6,7
 588 -185 588 -185 588 -247 c 0,8,9
 588 -336 588 -336 523 -386 c 0,10,11
 455 -438 455 -438 336 -438 c 0,12,13
 253 -438 253 -438 168 -406 c 0,14,15
 134 -393 134 -393 80 -369 c 1,16,-1
 123 -286 l 1,17,-1
 141 -295 l 2,18,19
 257 -354 257 -354 324 -354 c 0,20,21
 373 -354 373 -354 405 -325 c 0,22,23
 434 -300 434 -300 434 -262 c 0,24,25
 434 -186 434 -186 340 -186 c 0,26,27
 309 -186 309 -186 276 -201 c 1,28,-1
 253 -188 l 1,29,-1
 337 0 l 1,0,-1
EndSplineSet
Validated: 1
EndChar

StartChar: hungarumlaut
Encoding: 733 733 223
Width: 682
VWidth: 2458
Flags: W
LayerCount: 2
Fore
SplineSet
125 1516 m 1,0,-1
 356 1516 l 1,1,-1
 51 1208 l 1,2,-1
 -72 1208 l 1,3,-1
 125 1516 l 1,0,-1
482 1516 m 1,4,-1
 712 1516 l 1,5,-1
 408 1208 l 1,6,-1
 284 1208 l 1,7,-1
 482 1516 l 1,4,-1
EndSplineSet
Validated: 1
EndChar

StartChar: ogonek
Encoding: 731 731 224
Width: 682
VWidth: 2458
Flags: W
LayerCount: 2
Fore
SplineSet
316 0 m 1,0,-1
 459 0 l 1,1,2
 344 -64 344 -64 308 -106 c 0,3,4
 266 -155 266 -155 266 -216 c 0,5,6
 266 -327 266 -327 413 -327 c 0,7,8
 487 -327 487 -327 543 -307 c 1,9,-1
 543 -398 l 1,10,11
 456 -420 456 -420 388 -420 c 0,12,13
 318 -420 318 -420 246 -393 c 0,14,15
 117 -345 117 -345 117 -228 c 0,16,17
 117 -143 117 -143 192 -72 c 0,18,19
 238 -28 238 -28 316 0 c 1,0,-1
EndSplineSet
Validated: 1
EndChar

StartChar: caron
Encoding: 711 711 225
Width: 682
VWidth: 2458
Flags: W
LayerCount: 2
Fore
SplineSet
430 1210 m 1,0,-1
 236 1210 l 1,1,-1
 39 1518 l 1,2,-1
 169 1518 l 1,3,-1
 334 1321 l 1,4,-1
 495 1518 l 1,5,-1
 627 1518 l 1,6,-1
 430 1210 l 1,0,-1
EndSplineSet
Validated: 1
EndChar

StartChar: brokenbar
Encoding: 166 166 227
Width: 532
VWidth: 2458
Flags: W
LayerCount: 2
Fore
SplineSet
205 1493 m 1,0,-1
 328 1493 l 1,1,-1
 328 672 l 1,2,-1
 205 672 l 1,3,-1
 205 1493 l 1,0,-1
205 387 m 1,4,-1
 328 387 l 1,5,-1
 328 -434 l 1,6,-1
 205 -434 l 1,7,-1
 205 387 l 1,4,-1
EndSplineSet
Validated: 1
EndChar

StartChar: sfthyphen
Encoding: 173 173 228
Width: 682
VWidth: 2458
Flags: W
LayerCount: 2
Fore
SplineSet
581 639 m 1,0,-1
 581 492 l 1,1,-1
 94 492 l 1,2,-1
 94 639 l 1,3,-1
 581 639 l 1,0,-1
EndSplineSet
Validated: 1
EndChar

StartChar: macron
Encoding: 175 175 229
Width: 1139
VWidth: 2458
Flags: W
LayerCount: 2
Fore
SplineSet
1184 1853 m 1,0,-1
 1184 1751 l 1,1,-1
 -45 1751 l 1,2,-1
 -45 1853 l 1,3,-1
 1184 1853 l 1,0,-1
EndSplineSet
Validated: 2097153
EndChar

StartChar: twosuperior
Encoding: 178 178 230
Width: 719
VWidth: 2458
Flags: W
LayerCount: 2
Fore
SplineSet
661 700 m 1,0,-1
 661 581 l 1,1,-1
 39 581 l 1,2,3
 45 721 45 721 89 793 c 0,4,5
 123 849 123 849 183 894 c 0,6,7
 226 926 226 926 298 965 c 2,8,-1
 418 1028 l 2,9,10
 538 1092 538 1092 538 1191 c 0,11,12
 538 1258 538 1258 485 1302 c 0,13,14
 436 1344 436 1344 364 1344 c 0,15,16
 258 1344 258 1344 212 1264 c 0,17,18
 191 1226 191 1226 186 1141 c 1,19,-1
 59 1141 l 1,20,21
 62 1271 62 1271 109 1338 c 0,22,23
 188 1452 188 1452 367 1452 c 0,24,25
 498 1452 498 1452 579 1383 c 0,26,27
 667 1309 667 1309 667 1194 c 0,28,29
 667 1029 667 1029 471 929 c 2,30,-1
 342 863 l 2,31,32
 276 830 276 830 241 791 c 0,33,34
 213 760 213 760 192 700 c 1,35,-1
 661 700 l 1,0,-1
EndSplineSet
Validated: 1
EndChar

StartChar: threesuperior
Encoding: 179 179 231
Width: 720
VWidth: 2458
Flags: W
LayerCount: 2
Fore
SplineSet
278 975 m 1,0,-1
 278 1078 l 1,1,2
 391 1079 391 1079 433 1095 c 0,3,4
 503 1122 503 1122 503 1205 c 0,5,6
 503 1275 503 1275 457 1311 c 0,7,8
 415 1344 415 1344 348 1344 c 0,9,10
 239 1344 239 1344 200 1272 c 0,11,12
 181 1237 181 1237 181 1161 c 1,13,-1
 53 1161 l 1,14,15
 59 1452 59 1452 346 1452 c 0,16,17
 477 1452 477 1452 553 1389 c 0,18,19
 632 1324 632 1324 632 1206 c 0,20,21
 632 1084 632 1084 516 1032 c 1,22,23
 661 984 661 984 661 827 c 0,24,25
 661 701 661 701 570 625 c 0,26,27
 483 553 483 553 344 553 c 0,28,29
 45 553 45 553 33 844 c 1,30,-1
 160 844 l 1,31,32
 164 765 164 765 194 726 c 0,33,34
 242 662 242 662 348 662 c 0,35,36
 438 662 438 662 486 709 c 0,37,38
 532 753 532 753 532 827 c 0,39,40
 532 975 532 975 343 975 c 1,41,-1
 296 974 l 2,42,43
 292 974 292 974 278 975 c 1,0,-1
EndSplineSet
Validated: 1
EndChar

StartChar: periodcentered
Encoding: 183 183 232
Width: 569
VWidth: 2458
Flags: W
LayerCount: 2
Fore
SplineSet
432 874 m 1,0,-1
 432 618 l 1,1,-1
 178 618 l 1,2,-1
 178 874 l 1,3,-1
 432 874 l 1,0,-1
EndSplineSet
Validated: 2097153
EndChar

StartChar: onesuperior
Encoding: 185 185 233
Width: 719
VWidth: 2458
Flags: W
LayerCount: 2
Fore
SplineSet
328 1188 m 1,0,-1
 125 1188 l 1,1,-1
 125 1281 l 1,2,-1
 156 1285 l 2,3,4
 248 1295 248 1295 278 1309 c 0,5,6
 324 1332 324 1332 348 1390 c 0,7,8
 357 1413 357 1413 368 1452 c 1,9,-1
 455 1452 l 1,10,-1
 455 582 l 1,11,-1
 328 582 l 1,12,-1
 328 1188 l 1,0,-1
EndSplineSet
Validated: 1
EndChar

StartChar: onequarter
Encoding: 188 188 234
Width: 1780
VWidth: 2458
Flags: W
LayerCount: 2
Fore
SplineSet
328 1188 m 1,0,-1
 125 1188 l 1,1,-1
 125 1281 l 1,2,-1
 156 1285 l 2,3,4
 248 1295 248 1295 278 1309 c 0,5,6
 324 1332 324 1332 348 1390 c 0,7,8
 357 1413 357 1413 368 1452 c 1,9,-1
 455 1452 l 1,10,-1
 455 582 l 1,11,-1
 328 582 l 1,12,-1
 328 1188 l 1,0,-1
1317 1452 m 1,13,-1
 1436 1452 l 1,14,-1
 510 -41 l 1,15,-1
 391 -41 l 1,16,-1
 1317 1452 l 1,13,-1
1475 205 m 1,17,-1
 1090 205 l 1,18,-1
 1090 326 l 1,19,-1
 1508 870 l 1,20,-1
 1602 870 l 1,21,-1
 1602 314 l 1,22,-1
 1739 314 l 1,23,-1
 1739 205 l 1,24,-1
 1602 205 l 1,25,-1
 1602 0 l 1,26,-1
 1475 0 l 1,27,-1
 1475 205 l 1,17,-1
1475 314 m 1,28,-1
 1475 661 l 1,29,-1
 1210 314 l 1,30,-1
 1475 314 l 1,28,-1
EndSplineSet
Validated: 1
EndChar

StartChar: onehalf
Encoding: 189 189 235
Width: 1780
VWidth: 2458
Flags: W
LayerCount: 2
Fore
SplineSet
328 1188 m 1,0,-1
 125 1188 l 1,1,-1
 125 1281 l 1,2,-1
 156 1285 l 2,3,4
 248 1295 248 1295 278 1309 c 0,5,6
 324 1332 324 1332 348 1390 c 0,7,8
 357 1413 357 1413 368 1452 c 1,9,-1
 455 1452 l 1,10,-1
 455 582 l 1,11,-1
 328 582 l 1,12,-1
 328 1188 l 1,0,-1
1268 1452 m 1,13,-1
 1387 1452 l 1,14,-1
 461 -41 l 1,15,-1
 342 -41 l 1,16,-1
 1268 1452 l 1,13,-1
1722 119 m 1,17,-1
 1722 0 l 1,18,-1
 1100 0 l 1,19,20
 1108 144 1108 144 1150 212 c 0,21,22
 1184 268 1184 268 1244 313 c 0,23,24
 1285 344 1285 344 1359 383 c 2,25,-1
 1479 447 l 2,26,27
 1599 511 1599 511 1599 608 c 0,28,29
 1599 676 1599 676 1546 720 c 0,30,31
 1497 761 1497 761 1425 761 c 0,32,33
 1318 761 1318 761 1273 682 c 0,34,35
 1252 644 1252 644 1247 559 c 1,36,-1
 1120 559 l 1,37,38
 1123 689 1123 689 1170 756 c 0,39,40
 1249 870 1249 870 1428 870 c 0,41,42
 1559 870 1559 870 1640 801 c 0,43,44
 1728 727 1728 727 1728 612 c 0,45,46
 1728 447 1728 447 1532 348 c 2,47,-1
 1403 282 l 2,48,49
 1337 249 1337 249 1302 210 c 0,50,51
 1274 179 1274 179 1253 119 c 1,52,-1
 1722 119 l 1,17,-1
EndSplineSet
Validated: 1
EndChar

StartChar: threequarters
Encoding: 190 190 236
Width: 1781
VWidth: 2458
Flags: W
LayerCount: 2
Fore
SplineSet
278 975 m 1,0,-1
 278 1079 l 1,1,2
 391 1079 391 1079 433 1095 c 0,3,4
 503 1122 503 1122 503 1205 c 0,5,6
 503 1275 503 1275 457 1311 c 0,7,8
 415 1344 415 1344 348 1344 c 0,9,10
 239 1344 239 1344 200 1272 c 0,11,12
 181 1237 181 1237 181 1161 c 1,13,-1
 53 1161 l 1,14,15
 59 1452 59 1452 346 1452 c 0,16,17
 477 1452 477 1452 553 1389 c 0,18,19
 632 1324 632 1324 632 1206 c 0,20,21
 632 1085 632 1085 516 1032 c 1,22,23
 661 983 661 983 661 827 c 0,24,25
 661 700 661 700 570 625 c 0,26,27
 483 553 483 553 344 553 c 0,28,29
 45 553 45 553 33 844 c 1,30,-1
 160 844 l 1,31,32
 164 765 164 765 194 726 c 0,33,34
 242 662 242 662 348 662 c 0,35,36
 438 662 438 662 486 709 c 0,37,38
 532 753 532 753 532 827 c 0,39,40
 532 975 532 975 343 975 c 1,41,-1
 296 974 l 2,42,43
 292 974 292 974 278 975 c 1,0,-1
1338 1452 m 1,44,-1
 1457 1452 l 1,45,-1
 531 -41 l 1,46,-1
 413 -41 l 1,47,-1
 1338 1452 l 1,44,-1
1476 205 m 1,48,-1
 1091 205 l 1,49,-1
 1091 326 l 1,50,-1
 1508 870 l 1,51,-1
 1603 870 l 1,52,-1
 1603 314 l 1,53,-1
 1740 314 l 1,54,-1
 1740 205 l 1,55,-1
 1603 205 l 1,56,-1
 1603 0 l 1,57,-1
 1476 0 l 1,58,-1
 1476 205 l 1,48,-1
1476 314 m 1,59,-1
 1476 661 l 1,60,-1
 1211 314 l 1,61,-1
 1476 314 l 1,59,-1
EndSplineSet
Validated: 1
EndChar

StartChar: Eth
Encoding: 208 208 237
Width: 1479
VWidth: 2458
Flags: W
LayerCount: 2
Fore
SplineSet
182 694 m 1,0,-1
 41 694 l 1,1,-1
 41 831 l 1,2,-1
 182 831 l 1,3,-1
 182 1493 l 1,4,-1
 760 1493 l 2,5,6
 1025 1493 1025 1493 1184 1316 c 0,7,8
 1366 1113 1366 1113 1366 747 c 0,9,10
 1366 380 1366 380 1184 177 c 0,11,12
 1025 0 1025 0 760 0 c 2,13,-1
 182 0 l 1,14,-1
 182 694 l 1,0,-1
372 694 m 1,15,-1
 372 168 l 1,16,-1
 726 168 l 2,17,18
 947 168 947 168 1063 318 c 0,19,20
 1176 464 1176 464 1176 746 c 0,21,22
 1176 1029 1176 1029 1063 1175 c 0,23,24
 947 1325 947 1325 726 1325 c 2,25,-1
 372 1325 l 1,26,-1
 372 831 l 1,27,-1
 723 831 l 1,28,-1
 723 694 l 1,29,-1
 372 694 l 1,15,-1
EndSplineSet
Validated: 1
EndChar

StartChar: multiply
Encoding: 215 215 238
Width: 1196
VWidth: 2458
Flags: W
LayerCount: 2
Fore
SplineSet
897 874 m 1,0,-1
 999 773 l 1,1,-1
 699 473 l 1,2,-1
 1001 172 l 1,3,-1
 898 70 l 1,4,-1
 597 372 l 1,5,-1
 296 71 l 1,6,-1
 195 173 l 1,7,-1
 495 473 l 1,8,-1
 196 771 l 1,9,-1
 298 873 l 1,10,-1
 597 575 l 1,11,-1
 897 874 l 1,0,-1
EndSplineSet
Validated: 1
EndChar

StartChar: Thorn
Encoding: 222 222 240
Width: 1364
VWidth: 2458
Flags: W
LayerCount: 2
Fore
SplineSet
376 387 m 1,0,-1
 376 0 l 1,1,-1
 186 0 l 1,2,-1
 186 1493 l 1,3,-1
 376 1493 l 1,4,-1
 376 1247 l 1,5,-1
 803 1247 l 2,6,7
 995 1247 995 1247 1114 1151 c 0,8,9
 1261 1033 1261 1033 1261 813 c 0,10,11
 1261 618 1261 618 1134 498 c 0,12,13
 1016 387 1016 387 844 387 c 2,14,-1
 376 387 l 1,0,-1
376 555 m 1,15,-1
 774 555 l 2,16,17
 914 555 914 555 986 630 c 0,18,19
 1056 702 1056 702 1056 817 c 256,20,21
 1056 932 1056 932 986 1004 c 0,22,23
 914 1079 914 1079 774 1079 c 2,24,-1
 376 1079 l 1,25,-1
 376 555 l 1,15,-1
EndSplineSet
Validated: 1
EndChar

StartChar: eth
Encoding: 240 240 241
Width: 1139
VWidth: 2458
Flags: W
LayerCount: 2
Fore
SplineSet
448 1256 m 1,0,-1
 249 1164 l 1,1,-1
 176 1244 l 1,2,-1
 351 1324 l 1,3,4
 286 1373 286 1373 183 1431 c 1,5,-1
 273 1521 l 1,6,7
 341 1494 341 1494 500 1393 c 1,8,-1
 699 1485 l 1,9,-1
 780 1408 l 1,10,-1
 597 1324 l 1,11,12
 793 1174 793 1174 898 1017 c 0,13,14
 972 905 972 905 1007 796 c 0,15,16
 1045 680 1045 680 1045 530 c 0,17,18
 1045 261 1045 261 926 111 c 0,19,20
 800 -48 800 -48 560 -48 c 0,21,22
 319 -48 319 -48 193 111 c 0,23,24
 74 261 74 261 74 528 c 0,25,26
 74 891 74 891 286 1029 c 0,27,28
 395 1100 395 1100 520 1100 c 0,29,30
 572 1100 572 1100 649 1072 c 1,31,32
 569 1153 569 1153 448 1256 c 1,0,-1
559 946 m 0,33,34
 451 946 451 946 370 873 c 0,35,36
 252 767 252 767 252 528 c 0,37,38
 252 359 252 359 316 248 c 0,39,40
 352 187 352 187 415 149 c 0,41,42
 481 110 481 110 560 110 c 0,43,44
 670 110 670 110 750 183 c 0,45,46
 867 288 867 288 867 523 c 0,47,48
 867 700 867 700 803 808 c 0,49,50
 767 870 767 870 705 907 c 0,51,52
 639 946 639 946 559 946 c 0,33,34
EndSplineSet
Validated: 1
EndChar

StartChar: thorn
Encoding: 254 254 243
Width: 1137
VWidth: 2458
Flags: W
LayerCount: 2
Fore
SplineSet
111 -446 m 1,0,-1
 111 1462 l 1,1,-1
 281 1462 l 1,2,-1
 281 940 l 1,3,4
 318 992 318 992 365 1027 c 0,5,6
 471 1104 471 1104 610 1104 c 0,7,8
 742 1104 742 1104 852 1031 c 0,9,10
 979 947 979 947 1034 773 c 0,11,12
 1070 658 1070 658 1070 517 c 0,13,14
 1070 245 1070 245 930 91 c 0,15,16
 805 -47 805 -47 611 -47 c 0,17,18
 410 -47 410 -47 281 113 c 1,19,-1
 281 -446 l 1,20,-1
 111 -446 l 1,0,-1
580 944 m 0,21,22
 483 944 483 944 408 881 c 0,23,24
 338 822 338 822 305 708 c 0,25,26
 281 625 281 625 281 528 c 0,27,28
 281 355 281 355 354 238 c 0,29,30
 432 113 432 113 581 113 c 0,31,32
 680 113 680 113 758 175 c 0,33,34
 832 235 832 235 867 349 c 0,35,36
 892 429 892 429 892 523 c 0,37,38
 892 705 892 705 815 819 c 0,39,40
 730 944 730 944 580 944 c 0,21,22
EndSplineSet
Validated: 1
EndChar

StartChar: Aogonek
Encoding: 260 260 248
Width: 1366
VWidth: 2458
Flags: W
LayerCount: 2
Fore
SplineSet
972 449 m 1,0,-1
 395 449 l 1,1,-1
 238 0 l 1,2,-1
 35 0 l 1,3,-1
 567 1493 l 1,4,-1
 814 1493 l 1,5,-1
 1337 0 l 1,6,7
 1141 -92 1141 -92 1141 -215 c 0,8,9
 1141 -327 1141 -327 1288 -327 c 0,10,11
 1362 -327 1362 -327 1418 -307 c 1,12,-1
 1418 -398 l 1,13,14
 1331 -420 1331 -420 1263 -420 c 0,15,16
 1193 -420 1193 -420 1121 -393 c 0,17,18
 992 -345 992 -345 992 -227 c 0,19,20
 992 -139 992 -139 1071 -73 c 0,21,22
 1113 -37 1113 -37 1198 0 c 1,23,-1
 1125 0 l 1,24,-1
 972 449 l 1,0,-1
918 609 m 1,25,-1
 688 1288 l 1,26,-1
 443 609 l 1,27,-1
 918 609 l 1,25,-1
EndSplineSet
Validated: 1
EndChar

StartChar: aogonek
Encoding: 261 261 249
Width: 1139
VWidth: 2458
Flags: W
LayerCount: 2
Fore
SplineSet
1099 101 m 1,0,-1
 1099 -28 l 1,1,2
 1025 -57 1025 -57 986 -105 c 0,3,4
 944 -156 944 -156 944 -215 c 0,5,6
 944 -327 944 -327 1092 -327 c 0,7,8
 1165 -327 1165 -327 1221 -307 c 1,9,-1
 1221 -398 l 1,10,11
 1135 -420 1135 -420 1077 -420 c 0,12,13
 1006 -420 1006 -420 924 -393 c 0,14,15
 795 -351 795 -351 795 -230 c 0,16,17
 795 -164 795 -164 843 -111 c 0,18,19
 869 -83 869 -83 936 -47 c 1,20,21
 818 -24 818 -24 806 111 c 1,22,23
 725 37 725 37 648 -1 c 0,24,25
 554 -47 554 -47 440 -47 c 0,26,27
 277 -47 277 -47 180 41 c 0,28,29
 89 124 89 124 89 271 c 0,30,31
 89 479 89 479 278 558 c 0,32,33
 341 584 341 584 468 603 c 0,34,35
 484 605 484 605 622 623 c 0,36,37
 733 637 733 637 765 663 c 0,38,39
 799 688 799 688 800 741 c 2,40,-1
 800 786 l 2,41,42
 800 872 800 872 727 911 c 0,43,44
 662 946 662 946 559 946 c 0,45,46
 328 946 328 946 309 756 c 1,47,-1
 137 756 l 1,48,49
 143 903 143 903 210 978 c 0,50,51
 323 1104 323 1104 566 1104 c 0,52,53
 790 1104 790 1104 891 1011 c 0,54,55
 970 938 970 938 970 810 c 2,56,-1
 970 181 l 2,57,58
 970 97 970 97 1062 97 c 0,59,60
 1077 97 1077 97 1099 101 c 1,0,-1
797 530 m 1,61,62
 754 510 754 510 698 498 c 0,63,64
 650 489 650 489 522 470 c 0,65,66
 389 451 389 451 330 409 c 0,67,68
 264 362 264 362 264 274 c 0,69,70
 264 202 264 202 313 154 c 0,71,72
 366 102 366 102 476 102 c 0,73,74
 625 102 625 102 730 199 c 0,75,76
 780 245 780 245 792 289 c 0,77,78
 797 307 797 307 797 338 c 2,79,-1
 797 530 l 1,61,62
EndSplineSet
Validated: 1
EndChar

StartChar: cdotaccent
Encoding: 267 267 252
Width: 1024
VWidth: 2458
Flags: W
LayerCount: 2
Fore
SplineSet
964 713 m 1,0,-1
 792 713 l 1,1,2
 780 808 780 808 730 867 c 0,3,4
 662 947 662 947 539 947 c 0,5,6
 406 947 406 947 331 849 c 0,7,8
 241 732 241 732 241 519 c 0,9,10
 241 325 241 325 325 215 c 0,11,12
 404 111 404 111 542 111 c 0,13,14
 761 111 761 111 804 369 c 1,15,-1
 976 369 l 1,16,17
 965 223 965 223 897 124 c 0,18,19
 781 -47 781 -47 538 -47 c 0,20,21
 338 -47 338 -47 215 81 c 0,22,23
 63 239 63 239 63 518 c 0,24,25
 63 788 63 788 198 950 c 0,26,27
 325 1104 325 1104 541 1104 c 0,28,29
 674 1104 674 1104 778 1045 c 0,30,31
 903 974 903 974 944 834 c 0,32,33
 958 785 958 785 964 713 c 1,0,-1
650 1466 m 1,34,-1
 650 1253 l 1,35,-1
 437 1253 l 1,36,-1
 437 1466 l 1,37,-1
 650 1466 l 1,34,-1
EndSplineSet
Validated: 1
EndChar

StartChar: Dcroat
Encoding: 272 272 257
Width: 1479
VWidth: 2458
Flags: W
LayerCount: 2
Fore
SplineSet
182 694 m 1,0,-1
 41 694 l 1,1,-1
 41 831 l 1,2,-1
 182 831 l 1,3,-1
 182 1493 l 1,4,-1
 760 1493 l 2,5,6
 1025 1493 1025 1493 1184 1316 c 0,7,8
 1366 1113 1366 1113 1366 747 c 0,9,10
 1366 380 1366 380 1184 177 c 0,11,12
 1025 0 1025 0 760 0 c 2,13,-1
 182 0 l 1,14,-1
 182 694 l 1,0,-1
372 694 m 1,15,-1
 372 168 l 1,16,-1
 726 168 l 2,17,18
 947 168 947 168 1063 318 c 0,19,20
 1176 464 1176 464 1176 746 c 0,21,22
 1176 1029 1176 1029 1063 1175 c 0,23,24
 947 1325 947 1325 726 1325 c 2,25,-1
 372 1325 l 1,26,-1
 372 831 l 1,27,-1
 723 831 l 1,28,-1
 723 694 l 1,29,-1
 372 694 l 1,15,-1
EndSplineSet
Validated: 1
EndChar

StartChar: dcroat
Encoding: 273 273 258
Width: 1139
VWidth: 2458
Flags: W
LayerCount: 2
Fore
SplineSet
1011 1337 m 1,0,-1
 1141 1337 l 1,1,-1
 1141 1228 l 1,2,-1
 1011 1228 l 1,3,-1
 1011 0 l 1,4,-1
 860 0 l 1,5,-1
 860 122 l 1,6,7
 804 59 804 59 757 26 c 0,8,9
 649 -47 649 -47 515 -47 c 256,10,11
 381 -47 381 -47 272 27 c 0,12,13
 146 113 146 113 90 285 c 0,14,15
 53 399 53 399 53 540 c 0,16,17
 53 812 53 812 193 967 c 0,18,19
 317 1104 317 1104 512 1104 c 0,20,21
 712 1104 712 1104 841 944 c 1,22,-1
 841 1228 l 1,23,-1
 534 1228 l 1,24,-1
 534 1337 l 1,25,-1
 841 1337 l 1,26,-1
 841 1493 l 1,27,-1
 1011 1493 l 1,28,-1
 1011 1337 l 1,0,-1
541 936 m 0,29,30
 444 936 444 936 366 875 c 0,31,32
 231 768 231 768 231 529 c 0,33,34
 231 357 231 357 308 244 c 0,35,36
 348 185 348 185 413 152 c 0,37,38
 473 121 473 121 542 121 c 0,39,40
 690 121 690 121 768 244 c 0,41,42
 841 358 841 358 841 524 c 0,43,44
 841 701 841 701 768 813 c 0,45,46
 688 936 688 936 541 936 c 0,29,30
EndSplineSet
Validated: 1
EndChar

StartChar: Ebreve
Encoding: 276 276 261
Width: 1366
VWidth: 2458
Flags: W
LayerCount: 2
Fore
SplineSet
374 680 m 1,0,-1
 374 168 l 1,1,-1
 1255 168 l 1,2,-1
 1255 0 l 1,3,-1
 184 0 l 1,4,-1
 184 1493 l 1,5,-1
 1218 1493 l 1,6,-1
 1218 1325 l 1,7,-1
 374 1325 l 1,8,-1
 374 848 l 1,9,-1
 1188 848 l 1,10,-1
 1188 680 l 1,11,-1
 374 680 l 1,0,-1
398 1907 m 1,12,-1
 518 1907 l 1,13,14
 533 1771 533 1771 708 1771 c 0,15,16
 809 1771 809 1771 859 1825 c 0,17,18
 889 1857 889 1857 894 1907 c 1,19,-1
 1014 1907 l 1,20,21
 1005 1792 1005 1792 951 1729 c 0,22,23
 866 1630 866 1630 703 1630 c 0,24,25
 524 1630 524 1630 441 1746 c 0,26,27
 401 1802 401 1802 398 1907 c 1,12,-1
EndSplineSet
Validated: 1
EndChar

StartChar: ebreve
Encoding: 277 277 262
Width: 1139
VWidth: 2458
Flags: W
LayerCount: 2
Fore
SplineSet
1051 479 m 1,0,-1
 260 479 l 1,1,2
 262 334 262 334 317 250 c 0,3,4
 408 111 408 111 575 111 c 0,5,6
 784 111 784 111 857 326 c 1,7,-1
 1029 326 l 1,8,9
 1005 197 1005 197 928 104 c 0,10,11
 802 -47 802 -47 570 -47 c 0,12,13
 342 -47 342 -47 210 109 c 0,14,15
 82 259 82 259 82 521 c 0,16,17
 82 797 82 797 223 953 c 0,18,19
 359 1104 359 1104 574 1104 c 0,20,21
 749 1104 749 1104 877 1002 c 0,22,23
 1021 886 1021 886 1044 645 c 0,24,25
 1051 578 1051 578 1051 479 c 1,0,-1
867 618 m 1,26,27
 868 624 868 624 868 630 c 0,28,29
 868 734 868 734 810 820 c 0,30,31
 725 946 725 946 571 946 c 0,32,33
 403 946 403 946 318 800 c 0,34,35
 272 723 272 723 265 618 c 1,36,-1
 867 618 l 1,26,27
279 1500 m 1,37,-1
 399 1500 l 1,38,39
 414 1364 414 1364 589 1364 c 0,40,41
 690 1364 690 1364 740 1418 c 0,42,43
 769 1450 769 1450 775 1500 c 1,44,-1
 895 1500 l 1,45,46
 886 1385 886 1385 832 1322 c 0,47,48
 747 1223 747 1223 584 1223 c 0,49,50
 405 1223 405 1223 322 1339 c 0,51,52
 282 1395 282 1395 279 1500 c 1,37,-1
EndSplineSet
Validated: 1
EndChar

StartChar: Eogonek
Encoding: 280 280 265
Width: 1366
VWidth: 2458
Flags: W
LayerCount: 2
Fore
SplineSet
374 680 m 1,0,-1
 374 168 l 1,1,-1
 1255 168 l 1,2,-1
 1255 0 l 1,3,4
 1059 -91 1059 -91 1059 -216 c 0,5,6
 1059 -327 1059 -327 1206 -327 c 0,7,8
 1279 -327 1279 -327 1336 -307 c 1,9,-1
 1336 -398 l 1,10,11
 1249 -420 1249 -420 1181 -420 c 0,12,13
 1111 -420 1111 -420 1039 -393 c 0,14,15
 910 -345 910 -345 910 -228 c 0,16,17
 910 -138 910 -138 987 -72 c 0,18,19
 1030 -36 1030 -36 1116 0 c 1,20,-1
 184 0 l 1,21,-1
 184 1493 l 1,22,-1
 1218 1493 l 1,23,-1
 1218 1325 l 1,24,-1
 374 1325 l 1,25,-1
 374 848 l 1,26,-1
 1188 848 l 1,27,-1
 1188 680 l 1,28,-1
 374 680 l 1,0,-1
EndSplineSet
Validated: 1
EndChar

StartChar: eogonek
Encoding: 281 281 266
Width: 1139
VWidth: 2458
Flags: W
LayerCount: 2
Fore
SplineSet
1051 479 m 1,0,-1
 261 479 l 1,1,2
 263 334 263 334 318 250 c 0,3,4
 408 111 408 111 576 111 c 0,5,6
 785 111 785 111 858 326 c 1,7,-1
 1030 326 l 1,8,9
 999 165 999 165 865 32 c 0,10,11
 806 -30 806 -30 786 -58 c 0,12,13
 719 -145 719 -145 719 -223 c 0,14,15
 719 -273 719 -273 761 -302 c 0,16,17
 798 -328 798 -328 867 -328 c 0,18,19
 942 -328 942 -328 997 -307 c 1,20,-1
 997 -398 l 1,21,22
 920 -418 920 -418 856 -418 c 0,23,24
 773 -418 773 -418 700 -394 c 0,25,26
 642 -375 642 -375 605 -331 c 0,27,28
 571 -292 571 -292 571 -238 c 0,29,30
 571 -159 571 -159 628 -98 c 0,31,32
 646 -80 646 -80 711 -30 c 1,33,34
 631 -46 631 -46 572 -46 c 0,35,36
 339 -46 339 -46 210 109 c 0,37,38
 82 263 82 263 82 521 c 0,39,40
 82 797 82 797 223 953 c 0,41,42
 359 1104 359 1104 574 1104 c 0,43,44
 749 1104 749 1104 877 1002 c 0,45,46
 1022 886 1022 886 1045 645 c 0,47,48
 1051 578 1051 578 1051 479 c 1,0,-1
868 618 m 2,49,50
 868 620 868 620 868 629 c 0,51,52
 869 661 869 661 855 716 c 0,53,54
 829 823 829 823 749 886 c 0,55,56
 674 946 674 946 572 946 c 0,57,58
 404 946 404 946 318 800 c 0,59,60
 273 723 273 723 266 618 c 1,61,-1
 868 618 l 2,49,50
EndSplineSet
Validated: 33
EndChar

StartChar: Imacron
Encoding: 298 298 273
Width: 569
VWidth: 2458
Flags: W
LayerCount: 2
Fore
SplineSet
398 1493 m 1,0,-1
 398 0 l 1,1,-1
 205 0 l 1,2,-1
 205 1493 l 1,3,-1
 398 1493 l 1,0,-1
561 1843 m 1,4,-1
 561 1700 l 1,5,-1
 41 1700 l 1,6,-1
 41 1843 l 1,7,-1
 561 1843 l 1,4,-1
EndSplineSet
Validated: 1
EndChar

StartChar: imacron
Encoding: 299 299 274
Width: 455
VWidth: 2458
Flags: W
LayerCount: 2
Fore
SplineSet
306 1073 m 1,0,-1
 306 0 l 1,1,-1
 136 0 l 1,2,-1
 136 1073 l 1,3,-1
 306 1073 l 1,0,-1
475 1435 m 1,4,-1
 475 1292 l 1,5,-1
 -32 1292 l 1,6,-1
 -32 1435 l 1,7,-1
 475 1435 l 1,4,-1
EndSplineSet
Validated: 1
EndChar

StartChar: Iogonek
Encoding: 302 302 275
Width: 569
VWidth: 2458
Flags: W
LayerCount: 2
Fore
SplineSet
397 0 m 1,0,1
 283 -104 283 -104 283 -218 c 0,2,3
 283 -270 283 -270 317 -301 c 0,4,5
 345 -325 345 -325 387 -325 c 0,6,7
 427 -325 427 -325 479 -307 c 1,8,-1
 479 -398 l 1,9,10
 418 -417 418 -417 357 -417 c 0,11,12
 289 -417 289 -417 230 -388 c 0,13,14
 135 -342 135 -342 135 -238 c 0,15,16
 135 -161 135 -161 185 -95 c 0,17,18
 214 -57 214 -57 294 0 c 1,19,-1
 205 0 l 1,20,-1
 205 1493 l 1,21,-1
 397 1493 l 1,22,-1
 397 0 l 1,0,1
EndSplineSet
Validated: 1
EndChar

StartChar: iogonek
Encoding: 303 303 276
Width: 455
VWidth: 2458
Flags: W
LayerCount: 2
Fore
SplineSet
306 1073 m 1,0,-1
 306 0 l 1,1,2
 266 -35 266 -35 230 -100 c 0,3,4
 197 -158 197 -158 197 -210 c 0,5,6
 197 -267 197 -267 233 -301 c 0,7,8
 259 -325 259 -325 300 -325 c 0,9,10
 338 -325 338 -325 388 -307 c 1,11,-1
 388 -398 l 1,12,13
 327 -417 327 -417 270 -417 c 0,14,15
 205 -417 205 -417 145 -388 c 0,16,17
 50 -343 50 -343 50 -237 c 0,18,19
 50 -162 50 -162 101 -95 c 0,20,21
 128 -60 128 -60 202 0 c 1,22,-1
 136 0 l 1,23,-1
 136 1073 l 1,24,-1
 306 1073 l 1,0,-1
307 1493 m 1,25,-1
 307 1278 l 1,26,-1
 135 1278 l 1,27,-1
 135 1493 l 1,28,-1
 307 1493 l 1,25,-1
EndSplineSet
Validated: 1
EndChar

StartChar: Ldot
Encoding: 319 319 286
Width: 1139
VWidth: 2458
Flags: W
LayerCount: 2
Fore
SplineSet
354 1493 m 1,0,-1
 354 168 l 1,1,-1
 1092 168 l 1,2,-1
 1092 0 l 1,3,-1
 164 0 l 1,4,-1
 164 1493 l 1,5,-1
 354 1493 l 1,0,-1
699 836 m 1,6,-1
 908 836 l 1,7,-1
 908 621 l 1,8,-1
 699 621 l 1,9,-1
 699 836 l 1,6,-1
EndSplineSet
Validated: 1
EndChar

StartChar: ldot
Encoding: 320 320 287
Width: 655
VWidth: 2458
Flags: W
LayerCount: 2
Fore
SplineSet
309 1493 m 1,0,-1
 309 0 l 1,1,-1
 139 0 l 1,2,-1
 139 1493 l 1,3,-1
 309 1493 l 1,0,-1
446 836 m 1,4,-1
 655 836 l 1,5,-1
 655 621 l 1,6,-1
 446 621 l 1,7,-1
 446 836 l 1,4,-1
EndSplineSet
Validated: 1
EndChar

StartChar: Lslash
Encoding: 321 321 288
Width: 1139
VWidth: 2458
Flags: W
LayerCount: 2
Fore
SplineSet
354 831 m 1,0,-1
 705 1080 l 1,1,-1
 705 923 l 1,2,-1
 354 674 l 1,3,-1
 354 168 l 1,4,-1
 1130 168 l 1,5,-1
 1130 0 l 1,6,-1
 164 0 l 1,7,-1
 164 573 l 1,8,-1
 0 457 l 1,9,-1
 0 614 l 1,10,-1
 164 730 l 1,11,-1
 164 1493 l 1,12,-1
 354 1493 l 1,13,-1
 354 831 l 1,0,-1
EndSplineSet
Validated: 1
EndChar

StartChar: lslash
Encoding: 322 322 289
Width: 455
VWidth: 2458
Flags: W
LayerCount: 2
Fore
SplineSet
299 861 m 1,0,-1
 434 966 l 1,1,-1
 434 835 l 1,2,-1
 299 730 l 1,3,-1
 299 0 l 1,4,-1
 129 0 l 1,5,-1
 129 641 l 1,6,-1
 0 539 l 1,7,-1
 0 670 l 1,8,-1
 129 772 l 1,9,-1
 129 1493 l 1,10,-1
 299 1493 l 1,11,-1
 299 861 l 1,0,-1
EndSplineSet
Validated: 1
EndChar

StartChar: Eng
Encoding: 330 330 296
Width: 1436
VWidth: 2458
Flags: W
LayerCount: 2
Fore
SplineSet
817 -606 m 1,0,-1
 817 -432 l 1,1,2
 869 -437 869 -437 901 -437 c 0,3,4
 1023 -437 1023 -437 1064 -376 c 0,5,6
 1082 -349 1082 -349 1085 -293 c 0,7,8
 1086 -271 1086 -271 1086 -185 c 2,9,-1
 1086 1024 l 2,10,11
 1086 1181 1086 1181 1021 1257 c 0,12,13
 987 1296 987 1296 934 1318 c 0,14,15
 859 1350 859 1350 772 1350 c 0,16,17
 588 1350 588 1350 473 1220 c 0,18,19
 360 1091 360 1091 360 852 c 2,20,-1
 360 0 l 1,21,-1
 170 0 l 1,22,-1
 170 1475 l 1,23,-1
 340 1475 l 1,24,-1
 340 1228 l 1,25,26
 429 1353 429 1353 506 1412 c 0,27,28
 645 1518 645 1518 823 1518 c 0,29,30
 1025 1518 1025 1518 1157 1402 c 0,31,32
 1276 1296 1276 1296 1276 1088 c 2,33,-1
 1276 -242 l 2,34,35
 1276 -359 1276 -359 1256 -420 c 0,36,37
 1194 -612 1194 -612 923 -612 c 0,38,39
 886 -612 886 -612 817 -606 c 1,0,-1
EndSplineSet
Validated: 1
EndChar

StartChar: eng
Encoding: 331 331 297
Width: 1137
VWidth: 2458
Flags: W
LayerCount: 2
Fore
SplineSet
647 -441 m 1,0,-1
 647 -293 l 1,1,2
 682 -296 682 -296 698 -296 c 0,3,4
 784 -296 784 -296 809 -253 c 0,5,6
 821 -233 821 -233 824 -193 c 0,7,8
 825 -175 825 -175 825 -87 c 2,9,-1
 825 746 l 2,10,11
 825 831 825 831 776 888 c 0,12,13
 720 954 720 954 614 954 c 0,14,15
 486 954 486 954 404 866 c 0,16,17
 315 771 315 771 315 591 c 2,18,-1
 315 0 l 1,19,-1
 143 0 l 1,20,-1
 143 1073 l 1,21,-1
 301 1073 l 1,22,-1
 301 894 l 1,23,24
 369 987 369 987 421 1027 c 0,25,26
 523 1104 523 1104 663 1104 c 0,27,28
 833 1104 833 1104 926 1002 c 0,29,30
 995 927 995 927 995 784 c 2,31,-1
 995 -135 l 2,32,33
 995 -256 995 -256 981 -302 c 0,34,35
 954 -388 954 -388 859 -426 c 0,36,37
 806 -447 806 -447 731 -447 c 0,38,39
 694 -447 694 -447 647 -441 c 1,0,-1
EndSplineSet
Validated: 1
EndChar

StartChar: scircumflex
Encoding: 349 349 310
Width: 1024
VWidth: 2458
Flags: W
LayerCount: 2
Fore
SplineSet
898 774 m 1,0,-1
 718 774 l 1,1,2
 714 857 714 857 666 896 c 0,3,4
 606 946 606 946 503 946 c 0,5,6
 407 946 407 946 343 908 c 0,7,8
 274 867 274 867 274 785 c 0,9,10
 274 718 274 718 330 684 c 0,11,12
 385 651 385 651 473 630 c 2,13,-1
 637 591 l 2,14,15
 788 556 788 556 855 497 c 0,16,17
 941 421 941 421 941 293 c 0,18,19
 941 133 941 133 812 38 c 0,20,21
 695 -48 695 -48 499 -48 c 0,22,23
 240 -48 240 -48 136 92 c 0,24,25
 75 175 75 175 70 319 c 1,26,-1
 250 319 l 1,27,28
 264 221 264 221 300 182 c 0,29,30
 367 110 367 110 512 110 c 0,31,32
 613 110 613 110 683 149 c 0,33,34
 763 194 763 194 763 279 c 0,35,36
 763 336 763 336 720 375 c 0,37,38
 686 407 686 407 597 428 c 2,39,-1
 437 467 l 2,40,41
 251 512 251 512 179 573 c 0,42,43
 96 643 96 643 96 776 c 0,44,45
 96 932 96 932 214 1019 c 0,46,47
 330 1104 330 1104 508 1104 c 0,48,49
 728 1104 728 1104 829 985 c 0,50,51
 897 906 897 906 898 774 c 1,0,-1
415 1518 m 1,52,-1
 608 1518 l 1,53,-1
 806 1210 l 1,54,-1
 676 1210 l 1,55,-1
 511 1407 l 1,56,-1
 350 1210 l 1,57,-1
 218 1210 l 1,58,-1
 415 1518 l 1,52,-1
EndSplineSet
Validated: 1
EndChar

StartChar: Scedilla
Encoding: 350 350 311
Width: 1366
VWidth: 2458
Flags: W
LayerCount: 2
Fore
SplineSet
686 -48 m 1,0,-1
 656 -114 l 1,1,2
 693 -110 693 -110 713 -110 c 0,3,4
 794 -110 794 -110 837 -150 c 0,5,6
 875 -185 875 -185 875 -247 c 0,7,8
 875 -336 875 -336 810 -386 c 0,9,10
 742 -438 742 -438 623 -438 c 0,11,12
 540 -438 540 -438 455 -406 c 0,13,14
 421 -393 421 -393 367 -369 c 1,15,-1
 410 -286 l 1,16,-1
 428 -295 l 2,17,18
 544 -354 544 -354 611 -354 c 0,19,20
 661 -354 661 -354 692 -325 c 0,21,22
 721 -299 721 -299 721 -262 c 0,23,24
 721 -186 721 -186 627 -186 c 0,25,26
 596 -186 596 -186 563 -201 c 1,27,-1
 540 -188 l 1,28,-1
 603 -46 l 1,29,30
 584 -41 584 -41 491 -26 c 0,31,32
 387 -11 387 -11 282 69 c 0,33,34
 131 188 131 188 106 367 c 0,35,36
 99 421 99 421 98 475 c 1,37,-1
 278 475 l 1,38,39
 277 340 277 340 356 247 c 0,40,41
 462 121 462 121 701 121 c 0,42,43
 884 121 884 121 975 184 c 0,44,45
 1025 218 1025 218 1055 279 c 0,46,47
 1082 333 1082 333 1082 391 c 0,48,49
 1082 477 1082 477 1015 538 c 0,50,51
 951 595 951 595 807 633 c 2,52,-1
 435 730 l 2,53,54
 143 807 143 807 143 1081 c 0,55,56
 143 1275 143 1275 279 1395 c 0,57,58
 418 1518 418 1518 673 1518 c 0,59,60
 1000 1518 1000 1518 1140 1325 c 0,61,62
 1221 1213 1221 1213 1221 1082 c 0,63,64
 1221 1070 1221 1070 1221 1055 c 1,65,-1
 1041 1055 l 1,66,67
 1038 1184 1038 1184 965 1258 c 0,68,69
 867 1358 867 1358 668 1358 c 0,70,71
 516 1358 516 1358 427 1290 c 0,72,73
 334 1219 334 1219 334 1106 c 0,74,75
 334 1012 334 1012 401 960 c 0,76,77
 454 919 454 919 580 885 c 2,78,-1
 953 784 l 2,79,80
 1107 743 1107 743 1187 649 c 0,81,82
 1272 549 1272 549 1272 410 c 0,83,84
 1272 254 1272 254 1169 129 c 0,85,86
 1064 1 1064 1 853 -34 c 0,87,88
 790 -45 790 -45 686 -48 c 1,0,-1
EndSplineSet
Validated: 33
EndChar

StartChar: scedilla
Encoding: 351 351 312
Width: 1024
VWidth: 2458
Flags: W
LayerCount: 2
Fore
SplineSet
500 -49 m 1,0,-1
 472 -114 l 1,1,2
 506 -110 506 -110 529 -110 c 0,3,4
 610 -110 610 -110 653 -150 c 0,5,6
 691 -185 691 -185 691 -247 c 0,7,8
 691 -336 691 -336 626 -386 c 0,9,10
 558 -438 558 -438 439 -438 c 0,11,12
 356 -438 356 -438 271 -406 c 0,13,14
 238 -393 238 -393 183 -369 c 1,15,-1
 226 -286 l 1,16,17
 235 -290 235 -290 244 -295 c 0,18,19
 360 -354 360 -354 427 -354 c 0,20,21
 477 -354 477 -354 509 -325 c 0,22,23
 537 -299 537 -299 537 -262 c 0,24,25
 537 -186 537 -186 443 -186 c 0,26,27
 413 -186 413 -186 379 -202 c 1,28,-1
 356 -188 l 1,29,-1
 421 -44 l 1,30,31
 77 -10 77 -10 70 319 c 1,32,-1
 250 319 l 1,33,34
 264 221 264 221 300 182 c 0,35,36
 367 110 367 110 512 110 c 0,37,38
 613 110 613 110 683 149 c 0,39,40
 763 194 763 194 763 279 c 0,41,42
 763 336 763 336 720 375 c 0,43,44
 686 407 686 407 597 428 c 2,45,-1
 437 467 l 2,46,47
 252 512 252 512 179 573 c 0,48,49
 96 643 96 643 96 776 c 0,50,51
 96 931 96 931 214 1019 c 0,52,53
 330 1104 330 1104 508 1104 c 0,54,55
 728 1104 728 1104 829 985 c 0,56,57
 897 906 897 906 898 774 c 1,58,-1
 718 774 l 1,59,60
 714 857 714 857 666 896 c 0,61,62
 605 946 605 946 503 946 c 0,63,64
 407 946 407 946 343 908 c 0,65,66
 274 867 274 867 274 785 c 0,67,68
 274 718 274 718 330 684 c 0,69,70
 385 651 385 651 473 630 c 2,71,-1
 637 591 l 2,72,73
 787 556 787 556 855 497 c 0,74,75
 941 421 941 421 941 293 c 0,76,77
 941 173 941 173 861 83 c 0,78,79
 777 -9 777 -9 632 -35 c 0,80,81
 585 -43 585 -43 500 -49 c 1,0,-1
EndSplineSet
Validated: 1
EndChar

StartChar: Tbar
Encoding: 358 358 319
Width: 1251
VWidth: 2458
Flags: W
LayerCount: 2
Fore
SplineSet
535 825 m 1,0,-1
 207 825 l 1,1,-1
 207 962 l 1,2,-1
 535 962 l 1,3,-1
 535 1325 l 1,4,-1
 43 1325 l 1,5,-1
 43 1493 l 1,6,-1
 1214 1493 l 1,7,-1
 1214 1325 l 1,8,-1
 725 1325 l 1,9,-1
 725 962 l 1,10,-1
 1053 962 l 1,11,-1
 1053 825 l 1,12,-1
 725 825 l 1,13,-1
 725 0 l 1,14,-1
 535 0 l 1,15,-1
 535 825 l 1,0,-1
EndSplineSet
Validated: 1
EndChar

StartChar: tbar
Encoding: 359 359 320
Width: 569
VWidth: 2458
Flags: W
LayerCount: 2
Fore
SplineSet
521 112 m 1,0,-1
 521 -32 l 1,1,2
 440 -47 440 -47 381 -47 c 0,3,4
 281 -47 281 -47 227 -2 c 0,5,6
 174 42 174 42 174 124 c 2,7,-1
 174 656 l 1,8,-1
 49 656 l 1,9,-1
 49 765 l 1,10,-1
 174 765 l 1,11,-1
 174 934 l 1,12,-1
 29 934 l 1,13,-1
 29 1073 l 1,14,-1
 174 1073 l 1,15,-1
 174 1368 l 1,16,-1
 344 1368 l 1,17,-1
 344 1073 l 1,18,-1
 521 1073 l 1,19,-1
 521 934 l 1,20,-1
 344 934 l 1,21,-1
 344 765 l 1,22,-1
 500 765 l 1,23,-1
 500 656 l 1,24,-1
 344 656 l 1,25,-1
 344 199 l 2,26,27
 344 139 344 139 364 122 c 0,28,29
 387 103 387 103 439 103 c 0,30,31
 487 103 487 103 521 112 c 1,0,-1
EndSplineSet
Validated: 1
EndChar

StartChar: uring
Encoding: 367 367 324
Width: 1139
VWidth: 2458
Flags: W
LayerCount: 2
Fore
SplineSet
987 0 m 1,0,-1
 833 0 l 1,1,-1
 833 149 l 1,2,3
 773 63 773 63 713 21 c 0,4,5
 613 -48 613 -48 475 -48 c 0,6,7
 333 -48 333 -48 243 17 c 0,8,9
 133 97 133 97 133 245 c 2,10,-1
 133 1073 l 1,11,-1
 303 1073 l 1,12,-1
 303 314 l 2,13,14
 303 205 303 205 374 150 c 0,15,16
 436 102 436 102 525 102 c 0,17,18
 645 102 645 102 728 190 c 0,19,20
 817 285 817 285 817 466 c 2,21,-1
 817 1073 l 1,22,-1
 987 1073 l 1,23,-1
 987 0 l 1,0,-1
560 1545 m 0,24,25
 635 1545 635 1545 687 1492 c 0,26,27
 740 1440 740 1440 740 1363 c 0,28,29
 740 1291 740 1291 687 1239 c 0,30,31
 635 1186 635 1186 560 1186 c 256,32,33
 485 1186 485 1186 433 1239 c 0,34,35
 380 1292 380 1292 380 1366 c 256,36,37
 380 1440 380 1440 433 1492 c 0,38,39
 487 1545 487 1545 560 1545 c 0,24,25
560 1456 m 256,40,41
 522 1456 522 1456 496 1430 c 0,42,43
 469 1403 469 1403 469 1365 c 0,44,45
 469 1329 469 1329 496 1302 c 0,46,47
 522 1275 522 1275 560 1275 c 0,48,49
 597 1275 597 1275 624 1302 c 0,50,51
 651 1328 651 1328 651 1364 c 0,52,53
 651 1405 651 1405 625 1430 c 0,54,55
 598 1456 598 1456 560 1456 c 256,40,41
EndSplineSet
Validated: 1
EndChar

StartChar: Uogonek
Encoding: 370 370 327
Width: 1479
VWidth: 2458
Flags: W
LayerCount: 2
Fore
SplineSet
1233 -307 m 1,0,-1
 1233 -398 l 1,1,2
 1147 -420 1147 -420 1079 -420 c 0,3,4
 1009 -420 1009 -420 937 -393 c 0,5,6
 808 -345 808 -345 808 -229 c 0,7,8
 808 -161 808 -161 853 -102 c 0,9,10
 881 -66 881 -66 957 -20 c 1,11,12
 843 -47 843 -47 750 -47 c 0,13,14
 500 -47 500 -47 344 72 c 0,15,16
 174 203 174 203 174 446 c 2,17,-1
 174 1493 l 1,18,-1
 364 1493 l 1,19,-1
 364 446 l 2,20,21
 364 281 364 281 473 200 c 0,22,23
 579 121 579 121 745 121 c 0,24,25
 910 121 910 121 1017 200 c 0,26,27
 1131 284 1131 284 1131 446 c 2,28,-1
 1131 1493 l 1,29,-1
 1321 1493 l 1,30,-1
 1321 446 l 2,31,32
 1320 270 1320 270 1218 136 c 0,33,34
 1180 87 1180 87 1089 1 c 0,35,36
 957 -126 957 -126 957 -215 c 0,37,38
 957 -327 957 -327 1104 -327 c 0,39,40
 1178 -327 1178 -327 1233 -307 c 1,0,-1
EndSplineSet
Validated: 1
EndChar

StartChar: uogonek
Encoding: 371 371 328
Width: 1139
VWidth: 2458
Flags: W
LayerCount: 2
Fore
SplineSet
987 1073 m 1,0,-1
 987 0 l 1,1,2
 935 -29 935 -29 898 -69 c 0,3,4
 830 -145 830 -145 830 -221 c 0,5,6
 830 -272 830 -272 872 -302 c 0,7,8
 907 -327 907 -327 967 -327 c 0,9,10
 1010 -327 1010 -327 1068 -307 c 1,11,-1
 1068 -398 l 1,12,13
 1047 -403 1047 -403 1041 -404 c 0,14,15
 990 -417 990 -417 960 -417 c 0,16,17
 885 -417 885 -417 811 -393 c 0,18,19
 682 -351 682 -351 682 -226 c 0,20,21
 682 -98 682 -98 879 0 c 1,22,-1
 833 0 l 1,23,-1
 833 149 l 1,24,25
 773 63 773 63 713 22 c 0,26,27
 613 -47 613 -47 475 -47 c 0,28,29
 333 -47 333 -47 243 18 c 0,30,31
 133 98 133 98 133 245 c 2,32,-1
 133 1073 l 1,33,-1
 303 1073 l 1,34,-1
 303 314 l 2,35,36
 303 206 303 206 374 151 c 0,37,38
 436 103 436 103 525 103 c 0,39,40
 646 103 646 103 728 191 c 0,41,42
 817 286 817 286 817 466 c 2,43,-1
 817 1073 l 1,44,-1
 987 1073 l 1,0,-1
EndSplineSet
Validated: 1
EndChar

StartChar: semicolon
Encoding: 894 894 337
Width: 569
VWidth: 2458
Flags: W
LayerCount: 2
Fore
SplineSet
440 1073 m 1,0,-1
 440 860 l 1,1,-1
 227 860 l 1,2,-1
 227 1073 l 1,3,-1
 440 1073 l 1,0,-1
225 213 m 1,4,-1
 440 213 l 1,5,-1
 440 -32 l 2,6,7
 438 -215 438 -215 335 -275 c 0,8,9
 289 -302 289 -302 225 -302 c 1,10,-1
 225 -224 l 1,11,12
 275 -222 275 -222 297 -205 c 0,13,14
 341 -172 341 -172 346 -91 c 0,15,16
 347 -66 347 -66 347 0 c 1,17,-1
 225 0 l 1,18,-1
 225 213 l 1,4,-1
EndSplineSet
Validated: 2097153
EndChar

StartChar: tonos
Encoding: 900 900 338
Width: 1024
VWidth: 2458
Flags: W
LayerCount: 2
Fore
SplineSet
428 1595 m 1,0,-1
 596 1595 l 1,1,-1
 596 1409 l 1,2,-1
 543 1196 l 1,3,-1
 481 1196 l 1,4,-1
 428 1409 l 1,5,-1
 428 1595 l 1,0,-1
EndSplineSet
Validated: 1
EndChar

StartChar: dieresistonos
Encoding: 901 901 339
Width: 1024
VWidth: 2458
Flags: W
LayerCount: 2
Fore
SplineSet
428 1759 m 1,0,-1
 596 1759 l 1,1,-1
 596 1573 l 1,2,-1
 543 1360 l 1,3,-1
 481 1360 l 1,4,-1
 428 1573 l 1,5,-1
 428 1759 l 1,0,-1
785 1450 m 1,6,-1
 785 1239 l 1,7,-1
 597 1239 l 1,8,-1
 597 1450 l 1,9,-1
 785 1450 l 1,6,-1
428 1450 m 1,10,-1
 428 1239 l 1,11,-1
 240 1239 l 1,12,-1
 240 1450 l 1,13,-1
 428 1450 l 1,10,-1
EndSplineSet
Validated: 1
EndChar

StartChar: anoteleia
Encoding: 903 903 341
Width: 569
VWidth: 2458
Flags: W
LayerCount: 2
Fore
SplineSet
432 874 m 1,0,-1
 432 618 l 1,1,-1
 178 618 l 1,2,-1
 178 874 l 1,3,-1
 432 874 l 1,0,-1
EndSplineSet
Validated: 1
EndChar

StartChar: Alpha
Encoding: 913 913 349
Width: 1366
VWidth: 2458
Flags: W
LayerCount: 2
Fore
SplineSet
972 449 m 1,0,-1
 395 449 l 1,1,-1
 238 0 l 1,2,-1
 35 0 l 1,3,-1
 568 1493 l 1,4,-1
 814 1493 l 1,5,-1
 1338 0 l 1,6,-1
 1125 0 l 1,7,-1
 972 449 l 1,0,-1
918 609 m 1,8,-1
 688 1288 l 1,9,-1
 443 609 l 1,10,-1
 918 609 l 1,8,-1
EndSplineSet
Validated: 1
EndChar

StartChar: Beta
Encoding: 914 914 350
Width: 1366
VWidth: 2458
Flags: W
LayerCount: 2
Fore
SplineSet
162 0 m 1,0,-1
 162 1493 l 1,1,-1
 768 1493 l 2,2,3
 976 1493 976 1493 1092 1388 c 0,4,5
 1210 1282 1210 1282 1210 1113 c 0,6,7
 1210 883 1210 883 1003 789 c 1,8,9
 1104 750 1104 750 1160 701 c 0,10,11
 1276 600 1276 600 1276 425 c 0,12,13
 1276 246 1276 246 1161 124 c 0,14,15
 1043 0 1043 0 834 0 c 2,16,-1
 162 0 l 1,0,-1
352 850 m 1,17,-1
 721 850 l 2,18,19
 833 850 833 850 887 874 c 0,20,21
 1019 930 1019 930 1019 1087 c 0,22,23
 1019 1211 1019 1211 937 1273 c 0,24,25
 896 1303 896 1303 851 1313 c 0,26,27
 795 1325 795 1325 721 1325 c 2,28,-1
 352 1325 l 1,29,-1
 352 850 l 1,17,-1
352 168 m 1,30,-1
 816 168 l 2,31,32
 950 168 950 168 1017 239 c 0,33,34
 1086 312 1086 312 1086 425 c 256,35,36
 1086 538 1086 538 1017 611 c 0,37,38
 950 682 950 682 816 682 c 2,39,-1
 352 682 l 1,40,-1
 352 168 l 1,30,-1
EndSplineSet
Validated: 1
EndChar

StartChar: Gamma
Encoding: 915 915 351
Width: 1147
VWidth: 2458
Flags: W
LayerCount: 2
Fore
SplineSet
168 1493 m 1,0,-1
 1129 1493 l 1,1,-1
 1129 1325 l 1,2,-1
 358 1325 l 1,3,-1
 358 0 l 1,4,-1
 168 0 l 1,5,-1
 168 1493 l 1,0,-1
EndSplineSet
Validated: 1
EndChar

StartChar: Delta
Encoding: 916 916 352
Width: 1463
VWidth: 2458
Flags: W
LayerCount: 2
Fore
SplineSet
24 0 m 1,0,-1
 626 1493 l 1,1,-1
 831 1493 l 1,2,-1
 1439 0 l 1,3,-1
 24 0 l 1,0,-1
730 1261 m 1,4,-1
 296 168 l 1,5,-1
 1163 168 l 1,6,-1
 730 1261 l 1,4,-1
EndSplineSet
Validated: 2097153
EndChar

StartChar: Epsilon
Encoding: 917 917 353
Width: 1366
VWidth: 2458
Flags: W
LayerCount: 2
Fore
SplineSet
374 680 m 1,0,-1
 374 168 l 1,1,-1
 1255 168 l 1,2,-1
 1255 0 l 1,3,-1
 184 0 l 1,4,-1
 184 1493 l 1,5,-1
 1218 1493 l 1,6,-1
 1218 1325 l 1,7,-1
 374 1325 l 1,8,-1
 374 848 l 1,9,-1
 1188 848 l 1,10,-1
 1188 680 l 1,11,-1
 374 680 l 1,0,-1
EndSplineSet
Validated: 1
EndChar

StartChar: Zeta
Encoding: 918 918 354
Width: 1251
VWidth: 2458
Flags: W
LayerCount: 2
Fore
SplineSet
1190 1493 m 1,0,-1
 1190 1321 l 1,1,-1
 296 168 l 1,2,-1
 1194 168 l 1,3,-1
 1194 0 l 1,4,-1
 57 0 l 1,5,-1
 57 168 l 1,6,-1
 954 1325 l 1,7,-1
 114 1325 l 1,8,-1
 114 1493 l 1,9,-1
 1190 1493 l 1,0,-1
EndSplineSet
Validated: 1
EndChar

StartChar: Eta
Encoding: 919 919 355
Width: 1479
VWidth: 2458
Flags: W
LayerCount: 2
Fore
SplineSet
1129 680 m 1,0,-1
 363 680 l 1,1,-1
 363 0 l 1,2,-1
 170 0 l 1,3,-1
 170 1493 l 1,4,-1
 360 1493 l 1,5,-1
 360 848 l 1,6,-1
 1129 848 l 1,7,-1
 1129 1493 l 1,8,-1
 1319 1493 l 1,9,-1
 1319 0 l 1,10,-1
 1129 0 l 1,11,-1
 1129 680 l 1,0,-1
EndSplineSet
Validated: 1
EndChar

StartChar: Theta
Encoding: 920 920 356
Width: 1600
VWidth: 2458
Flags: W
LayerCount: 2
Fore
SplineSet
1107 811 m 1,0,-1
 1107 661 l 1,1,-1
 495 661 l 1,2,-1
 495 811 l 1,3,-1
 1107 811 l 1,0,-1
799 1518 m 0,4,5
 1076 1518 1076 1518 1263 1359 c 0,6,7
 1395 1248 1395 1248 1460 1076 c 0,8,9
 1521 914 1521 914 1521 724 c 0,10,11
 1521 469 1521 469 1398 270 c 0,12,13
 1286 88 1286 88 1093 8 c 0,14,15
 960 -47 960 -47 800 -47 c 0,16,17
 523 -47 523 -47 337 112 c 0,18,19
 206 223 206 223 140 395 c 0,20,21
 79 556 79 556 79 736 c 0,22,23
 79 1002 79 1002 202 1201 c 0,24,25
 315 1385 315 1385 507 1463 c 0,26,27
 641 1518 641 1518 799 1518 c 0,4,5
799 1350 m 0,28,29
 655 1350 655 1350 533 1280 c 0,30,31
 398 1202 398 1202 331 1049 c 0,32,33
 269 908 269 908 269 736 c 0,34,35
 269 533 269 533 352 380 c 0,36,37
 428 239 428 239 571 171 c 0,38,39
 677 121 677 121 800 121 c 0,40,41
 1023 121 1023 121 1167 268 c 0,42,43
 1244 348 1244 348 1286 465 c 0,44,45
 1331 593 1331 593 1331 727 c 0,46,47
 1331 1034 1331 1034 1167 1203 c 0,48,49
 1094 1278 1094 1278 990 1316 c 0,50,51
 898 1350 898 1350 799 1350 c 0,28,29
EndSplineSet
Validated: 1
EndChar

StartChar: Iota
Encoding: 921 921 357
Width: 569
VWidth: 2458
Flags: W
LayerCount: 2
Fore
SplineSet
398 1493 m 1,0,-1
 398 0 l 1,1,-1
 205 0 l 1,2,-1
 205 1493 l 1,3,-1
 398 1493 l 1,0,-1
EndSplineSet
Validated: 1
EndChar

StartChar: Kappa
Encoding: 922 922 358
Width: 1366
VWidth: 2458
Flags: W
LayerCount: 2
Fore
SplineSet
352 523 m 1,0,-1
 352 0 l 1,1,-1
 162 0 l 1,2,-1
 162 1493 l 1,3,-1
 352 1493 l 1,4,-1
 352 738 l 1,5,-1
 1096 1493 l 1,6,-1
 1342 1493 l 1,7,-1
 732 885 l 1,8,-1
 1347 0 l 1,9,-1
 1121 0 l 1,10,-1
 596 766 l 1,11,-1
 352 523 l 1,0,-1
EndSplineSet
Validated: 1
EndChar

StartChar: Lambda
Encoding: 923 923 359
Width: 1373
VWidth: 2458
Flags: W
LayerCount: 2
Fore
SplineSet
814 1493 m 1,0,-1
 1338 0 l 1,1,-1
 1125 0 l 1,2,-1
 686 1288 l 1,3,-1
 247 0 l 1,4,-1
 35 0 l 1,5,-1
 559 1493 l 1,6,-1
 814 1493 l 1,0,-1
EndSplineSet
Validated: 1
EndChar

StartChar: Mu
Encoding: 924 924 360
Width: 1706
VWidth: 2458
Flags: W
LayerCount: 2
Fore
SplineSet
959 0 m 1,0,-1
 759 0 l 1,1,-1
 334 1252 l 1,2,-1
 334 0 l 1,3,-1
 154 0 l 1,4,-1
 154 1493 l 1,5,-1
 417 1493 l 1,6,-1
 861 193 l 1,7,-1
 1295 1493 l 1,8,-1
 1559 1493 l 1,9,-1
 1559 0 l 1,10,-1
 1379 0 l 1,11,-1
 1379 1252 l 1,12,-1
 959 0 l 1,0,-1
EndSplineSet
Validated: 1
EndChar

StartChar: Nu
Encoding: 925 925 361
Width: 1479
VWidth: 2458
Flags: W
LayerCount: 2
Fore
SplineSet
1323 1493 m 1,0,-1
 1323 0 l 1,1,-1
 1109 0 l 1,2,-1
 336 1211 l 1,3,-1
 336 0 l 1,4,-1
 156 0 l 1,5,-1
 156 1493 l 1,6,-1
 363 1493 l 1,7,-1
 1143 273 l 1,8,-1
 1143 1493 l 1,9,-1
 1323 1493 l 1,0,-1
EndSplineSet
Validated: 1
EndChar

StartChar: Xi
Encoding: 926 926 362
Width: 1373
VWidth: 2458
Flags: W
LayerCount: 2
Fore
SplineSet
151 0 m 1,0,-1
 151 168 l 1,1,-1
 1222 168 l 1,2,-1
 1222 0 l 1,3,-1
 151 0 l 1,0,-1
214 680 m 1,4,-1
 214 848 l 1,5,-1
 1155 848 l 1,6,-1
 1155 680 l 1,7,-1
 214 680 l 1,4,-1
154 1325 m 1,8,-1
 154 1493 l 1,9,-1
 1219 1493 l 1,10,-1
 1219 1325 l 1,11,-1
 154 1325 l 1,8,-1
EndSplineSet
Validated: 1
EndChar

StartChar: Omicron
Encoding: 927 927 363
Width: 1593
VWidth: 2458
Flags: W
LayerCount: 2
Fore
SplineSet
798 1518 m 0,0,1
 1075 1518 1075 1518 1262 1359 c 0,2,3
 1394 1248 1394 1248 1459 1076 c 0,4,5
 1520 914 1520 914 1520 724 c 0,6,7
 1520 469 1520 469 1397 270 c 0,8,9
 1286 88 1286 88 1092 8 c 0,10,11
 959 -47 959 -47 799 -47 c 0,12,13
 522 -47 522 -47 336 112 c 0,14,15
 205 223 205 223 139 395 c 0,16,17
 78 556 78 556 78 736 c 0,18,19
 78 1002 78 1002 201 1201 c 0,20,21
 314 1385 314 1385 506 1463 c 0,22,23
 640 1518 640 1518 798 1518 c 0,0,1
798 1350 m 0,24,25
 654 1350 654 1350 532 1280 c 0,26,27
 397 1202 397 1202 330 1049 c 0,28,29
 268 908 268 908 268 736 c 0,30,31
 268 533 268 533 351 380 c 0,32,33
 427 239 427 239 570 171 c 0,34,35
 676 121 676 121 799 121 c 0,36,37
 1022 121 1022 121 1166 268 c 0,38,39
 1243 348 1243 348 1285 465 c 0,40,41
 1330 593 1330 593 1330 727 c 0,42,43
 1330 1034 1330 1034 1166 1203 c 0,44,45
 1093 1278 1093 1278 989 1316 c 0,46,47
 897 1350 897 1350 798 1350 c 0,24,25
EndSplineSet
Validated: 1
EndChar

StartChar: Pi
Encoding: 928 928 364
Width: 1486
VWidth: 2458
Flags: W
LayerCount: 2
Fore
SplineSet
361 1325 m 1,0,-1
 361 0 l 1,1,-1
 168 0 l 1,2,-1
 168 1493 l 1,3,-1
 1317 1493 l 1,4,-1
 1317 0 l 1,5,-1
 1124 0 l 1,6,-1
 1124 1325 l 1,7,-1
 361 1325 l 1,0,-1
EndSplineSet
Validated: 1
EndChar

StartChar: Rho
Encoding: 929 929 365
Width: 1366
VWidth: 2458
Flags: W
LayerCount: 2
Fore
SplineSet
376 633 m 1,0,-1
 376 0 l 1,1,-1
 186 0 l 1,2,-1
 186 1493 l 1,3,-1
 803 1493 l 2,4,5
 999 1493 999 1493 1116 1401 c 0,6,7
 1263 1286 1263 1286 1263 1056 c 0,8,9
 1263 858 1263 858 1134 740 c 0,10,11
 1017 633 1017 633 844 633 c 2,12,-1
 376 633 l 1,0,-1
376 801 m 1,13,-1
 774 801 l 2,14,15
 918 801 918 801 992 875 c 0,16,17
 1064 948 1064 948 1064 1063 c 256,18,19
 1064 1178 1064 1178 992 1250 c 0,20,21
 918 1325 918 1325 774 1325 c 2,22,-1
 376 1325 l 1,23,-1
 376 801 l 1,13,-1
EndSplineSet
Validated: 1
EndChar

StartChar: Sigma
Encoding: 931 931 366
Width: 1256
VWidth: 2458
Flags: W
LayerCount: 2
Fore
SplineSet
86 0 m 1,0,-1
 86 165 l 1,1,-1
 660 757 l 1,2,-1
 88 1326 l 1,3,-1
 88 1493 l 1,4,-1
 1140 1493 l 1,5,-1
 1140 1325 l 1,6,-1
 340 1325 l 1,7,-1
 902 757 l 1,8,-1
 328 168 l 1,9,-1
 1176 168 l 1,10,-1
 1176 0 l 1,11,-1
 86 0 l 1,0,-1
EndSplineSet
Validated: 1
EndChar

StartChar: Tau
Encoding: 932 932 367
Width: 1251
VWidth: 2458
Flags: W
LayerCount: 2
Fore
SplineSet
725 1325 m 1,0,-1
 725 0 l 1,1,-1
 535 0 l 1,2,-1
 535 1325 l 1,3,-1
 43 1325 l 1,4,-1
 43 1493 l 1,5,-1
 1214 1493 l 1,6,-1
 1214 1325 l 1,7,-1
 725 1325 l 1,0,-1
EndSplineSet
Validated: 1
EndChar

StartChar: Upsilon
Encoding: 933 933 368
Width: 1366
VWidth: 2458
Flags: W
LayerCount: 2
Fore
SplineSet
792 585 m 1,0,-1
 792 0 l 1,1,-1
 602 0 l 1,2,-1
 602 585 l 1,3,-1
 27 1493 l 1,4,-1
 261 1493 l 1,5,-1
 701 766 l 1,6,-1
 1125 1493 l 1,7,-1
 1353 1493 l 1,8,-1
 792 585 l 1,0,-1
EndSplineSet
Validated: 1
EndChar

StartChar: Phi
Encoding: 934 934 369
Width: 1483
VWidth: 2458
Flags: W
LayerCount: 2
Fore
SplineSet
647 -20 m 1,0,-1
 647 167 l 1,1,2
 482 177 482 177 366 242 c 0,3,4
 221 324 221 324 145 472 c 0,5,6
 83 595 83 595 83 747 c 0,7,8
 83 972 83 972 217 1129 c 0,9,10
 371 1310 371 1310 647 1327 c 1,11,-1
 647 1513 l 1,12,-1
 837 1513 l 1,13,-1
 837 1327 l 1,14,15
 1019 1317 1019 1317 1144 1243 c 0,16,17
 1401 1091 1401 1091 1401 747 c 0,18,19
 1401 404 1401 404 1144 251 c 0,20,21
 1019 177 1019 177 837 167 c 1,22,-1
 837 -20 l 1,23,-1
 647 -20 l 1,0,-1
647 1162 m 1,24,25
 530 1152 530 1152 451 1102 c 0,26,27
 274 991 274 991 274 746 c 0,28,29
 274 576 274 576 356 478 c 0,30,31
 465 347 465 347 647 332 c 1,32,-1
 647 1162 l 1,24,25
837 1162 m 1,33,-1
 837 332 l 1,34,35
 951 341 951 341 1031 393 c 0,36,37
 1134 459 1134 459 1175 552 c 0,38,39
 1211 633 1211 633 1211 746 c 0,40,41
 1211 990 1211 990 1033 1102 c 0,42,43
 955 1152 955 1152 837 1162 c 1,33,-1
EndSplineSet
Validated: 1
EndChar

StartChar: Chi
Encoding: 935 935 370
Width: 1366
VWidth: 2458
Flags: W
LayerCount: 2
Fore
SplineSet
800 766 m 1,0,-1
 1329 0 l 1,1,-1
 1093 0 l 1,2,-1
 687 623 l 1,3,-1
 276 0 l 1,4,-1
 45 0 l 1,5,-1
 574 766 l 1,6,-1
 78 1493 l 1,7,-1
 309 1493 l 1,8,-1
 692 907 l 1,9,-1
 1077 1493 l 1,10,-1
 1305 1493 l 1,11,-1
 800 766 l 1,0,-1
EndSplineSet
Validated: 1
EndChar

StartChar: Psi
Encoding: 936 936 371
Width: 1671
VWidth: 2458
Flags: W
LayerCount: 2
Fore
SplineSet
930 1493 m 1,0,-1
 930 450 l 1,1,2
 1144 459 1144 459 1264 570 c 0,3,4
 1341 645 1341 645 1358 805 c 0,5,6
 1364 844 1364 844 1364 1048 c 2,7,-1
 1364 1493 l 1,8,-1
 1557 1493 l 1,9,-1
 1557 1048 l 2,10,11
 1556 776 1556 776 1520 651 c 0,12,13
 1449 394 1449 394 1134 310 c 0,14,15
 1042 286 1042 286 930 282 c 1,16,-1
 930 0 l 1,17,-1
 741 0 l 1,18,-1
 741 282 l 1,19,20
 449 289 449 289 275 445 c 0,21,22
 157 556 157 556 128 763 c 0,23,24
 115 853 115 853 115 1048 c 2,25,-1
 115 1493 l 1,26,-1
 308 1493 l 1,27,-1
 308 1048 l 2,28,29
 308 899 308 899 312 835 c 128,-1,30
 316 771 316 771 329 717 c 0,31,32
 370 541 370 541 582 475 c 0,33,34
 653 455 653 455 741 450 c 1,35,-1
 741 1493 l 1,36,-1
 930 1493 l 1,0,-1
EndSplineSet
Validated: 1
EndChar

StartChar: Omega
Encoding: 937 937 372
Width: 1531
VWidth: 2458
Flags: W
LayerCount: 2
Fore
SplineSet
56 0 m 1,0,-1
 56 168 l 1,1,-1
 450 168 l 1,2,3
 352 226 352 226 303 270 c 0,4,5
 86 461 86 461 86 810 c 0,6,7
 86 1133 86 1133 268 1318 c 0,8,9
 466 1518 466 1518 766 1518 c 0,10,11
 981 1518 981 1518 1154 1407 c 0,12,13
 1445 1219 1445 1219 1445 810 c 0,14,15
 1445 543 1445 543 1318 368 c 0,16,17
 1252 278 1252 278 1158 216 c 0,18,19
 1125 194 1125 194 1081 168 c 1,20,-1
 1475 168 l 1,21,-1
 1475 0 l 1,22,-1
 885 0 l 1,23,-1
 885 168 l 1,24,25
 1052 268 1052 268 1128 371 c 0,26,27
 1255 544 1255 544 1255 807 c 0,28,29
 1255 1049 1255 1049 1134 1192 c 0,30,31
 1001 1350 1001 1350 766 1350 c 0,32,33
 597 1350 597 1350 474 1262 c 0,34,35
 277 1121 277 1121 277 807 c 0,36,37
 277 544 277 544 404 371 c 0,38,39
 480 268 480 268 646 168 c 1,40,-1
 646 0 l 1,41,-1
 56 0 l 1,0,-1
EndSplineSet
Validated: 2097153
EndChar

StartChar: Iotadieresis
Encoding: 938 938 373
Width: 569
VWidth: 2458
Flags: W
LayerCount: 2
Fore
SplineSet
398 1493 m 1,0,-1
 398 0 l 1,1,-1
 205 0 l 1,2,-1
 205 1493 l 1,3,-1
 398 1493 l 1,0,-1
225 1871 m 1,4,-1
 225 1660 l 1,5,-1
 12 1660 l 1,6,-1
 12 1871 l 1,7,-1
 225 1871 l 1,4,-1
557 1871 m 1,8,-1
 557 1660 l 1,9,-1
 344 1660 l 1,10,-1
 344 1871 l 1,11,-1
 557 1871 l 1,8,-1
EndSplineSet
Validated: 1
EndChar

StartChar: Upsilondieresis
Encoding: 939 939 374
Width: 1366
VWidth: 2458
Flags: W
LayerCount: 2
Fore
SplineSet
792 585 m 1,0,-1
 792 0 l 1,1,-1
 602 0 l 1,2,-1
 602 585 l 1,3,-1
 27 1493 l 1,4,-1
 261 1493 l 1,5,-1
 701 766 l 1,6,-1
 1125 1493 l 1,7,-1
 1353 1493 l 1,8,-1
 792 585 l 1,0,-1
624 1871 m 1,9,-1
 624 1660 l 1,10,-1
 411 1660 l 1,11,-1
 411 1871 l 1,12,-1
 624 1871 l 1,9,-1
956 1871 m 1,13,-1
 956 1660 l 1,14,-1
 743 1660 l 1,15,-1
 743 1871 l 1,16,-1
 956 1871 l 1,13,-1
EndSplineSet
Validated: 1
EndChar

StartChar: alpha
Encoding: 945 945 380
Width: 1341
VWidth: 2458
Flags: W
LayerCount: 2
Fore
SplineSet
1280 1075 m 1,0,-1
 1081 555 l 1,1,-1
 1295 0 l 1,2,-1
 1106 0 l 1,3,-1
 991 335 l 1,4,5
 936 204 936 204 880 124 c 0,6,7
 759 -47 759 -47 555 -47 c 0,8,9
 344 -47 344 -47 213 127 c 0,10,11
 91 287 91 287 91 526 c 0,12,13
 91 687 91 687 155 827 c 0,14,15
 215 957 215 957 336 1036 c 0,16,17
 441 1104 441 1104 566 1104 c 0,18,19
 692 1104 692 1104 797 1030 c 0,20,21
 901 957 901 957 988 764 c 1,22,-1
 1095 1075 l 1,23,-1
 1280 1075 l 1,0,-1
910 555 m 0,24,25
 831 763 831 763 767 844 c 0,26,27
 685 947 685 947 575 947 c 0,28,29
 430 947 430 947 340 808 c 0,30,31
 269 698 269 698 269 530 c 0,32,33
 269 320 269 320 373 206 c 0,34,35
 458 112 458 112 568 112 c 0,36,37
 684 112 684 112 776 248 c 0,38,39
 823 316 823 316 867 432 c 0,40,41
 912 548 912 548 910 555 c 0,24,25
EndSplineSet
Validated: 33
EndChar

StartChar: beta
Encoding: 946 946 381
Width: 1143
VWidth: 2458
Flags: W
LayerCount: 2
Fore
SplineSet
145 -446 m 1,0,-1
 145 1023 l 2,1,2
 145 1202 145 1202 171 1279 c 0,3,4
 213 1405 213 1405 340 1468 c 0,5,6
 441 1518 441 1518 564 1518 c 0,7,8
 759 1518 759 1518 873 1397 c 0,9,10
 972 1293 972 1293 972 1140 c 0,11,12
 972 939 972 939 798 844 c 1,13,14
 1056 741 1056 741 1056 439 c 0,15,16
 1056 210 1056 210 922 76 c 0,17,18
 798 -47 798 -47 599 -47 c 0,19,20
 429 -47 429 -47 315 47 c 1,21,-1
 315 -446 l 1,22,-1
 145 -446 l 1,0,-1
315 225 m 1,23,24
 414 111 414 111 573 111 c 0,25,26
 721 111 721 111 804 209 c 0,27,28
 878 295 878 295 878 439 c 0,29,30
 878 595 878 595 791 681 c 0,31,32
 709 761 709 761 586 761 c 0,33,34
 553 761 553 761 505 757 c 1,35,-1
 505 897 l 1,36,37
 629 904 629 904 679 927 c 0,38,39
 735 953 735 953 767 1020 c 0,40,41
 794 1076 794 1076 794 1140 c 0,42,43
 794 1250 794 1250 724 1311 c 0,44,45
 656 1369 656 1369 550 1369 c 0,46,47
 423 1369 423 1369 364 1292 c 0,48,49
 330 1248 330 1248 323 1188 c 0,50,51
 315 1123 315 1123 315 1031 c 2,52,-1
 315 225 l 1,23,24
EndSplineSet
Validated: 1
EndChar

StartChar: gamma
Encoding: 947 947 382
Width: 1031
VWidth: 2458
Flags: W
LayerCount: 2
Fore
SplineSet
437 -446 m 1,0,-1
 437 32 l 1,1,-1
 28 1073 l 1,2,-1
 221 1073 l 1,3,-1
 524 277 l 1,4,-1
 810 1073 l 1,5,-1
 1003 1073 l 1,6,-1
 609 32 l 1,7,-1
 609 -446 l 1,8,-1
 437 -446 l 1,0,-1
EndSplineSet
Validated: 1
EndChar

StartChar: delta
Encoding: 948 948 383
Width: 1146
VWidth: 2458
Flags: W
LayerCount: 2
Fore
SplineSet
529 1090 m 1,0,-1
 201 1347 l 1,1,-1
 201 1493 l 1,2,-1
 957 1493 l 1,3,-1
 957 1341 l 1,4,-1
 443 1341 l 1,5,-1
 747 1106 l 2,6,7
 871 1010 871 1010 895 987 c 0,8,9
 1058 831 1058 831 1058 528 c 0,10,11
 1058 266 1058 266 936 113 c 0,12,13
 807 -48 807 -48 573 -48 c 0,14,15
 338 -48 338 -48 209 113 c 0,16,17
 87 266 87 266 87 527 c 0,18,19
 87 885 87 885 308 1025 c 0,20,21
 401 1085 401 1085 529 1090 c 1,0,-1
572 946 m 0,22,23
 463 946 463 946 382 873 c 0,24,25
 265 768 265 768 265 528 c 0,26,27
 265 358 265 358 329 248 c 0,28,29
 364 187 364 187 427 149 c 0,30,31
 493 110 493 110 572 110 c 0,32,33
 682 110 682 110 763 183 c 0,34,35
 880 288 880 288 880 523 c 0,36,37
 880 700 880 700 816 808 c 0,38,39
 780 870 780 870 718 907 c 0,40,41
 652 946 652 946 572 946 c 0,22,23
EndSplineSet
Validated: 1
EndChar

StartChar: epsilon
Encoding: 949 949 384
Width: 1021
VWidth: 2458
Flags: W
LayerCount: 2
Fore
SplineSet
639 623 m 1,0,-1
 639 480 l 1,1,2
 523 480 523 480 476 474 c 0,3,4
 272 447 272 447 272 304 c 0,5,6
 272 209 272 209 355 152 c 0,7,8
 419 109 419 109 519 109 c 0,9,10
 657 109 657 109 732 194 c 0,11,12
 777 245 777 245 805 344 c 1,13,-1
 974 344 l 1,14,15
 941 196 941 196 864 107 c 0,16,17
 730 -47 730 -47 505 -47 c 0,18,19
 321 -47 321 -47 208 52 c 0,20,21
 94 152 94 152 94 294 c 0,22,23
 94 405 94 405 169 487 c 0,24,25
 213 535 213 535 289 561 c 1,26,27
 224 596 224 596 187 642 c 0,28,29
 123 721 123 721 123 814 c 256,30,31
 123 907 123 907 183 975 c 0,32,33
 235 1034 235 1034 311 1065 c 0,34,35
 407 1104 407 1104 514 1104 c 0,36,37
 728 1104 728 1104 851 963 c 0,38,39
 904 903 904 903 922 831 c 0,40,41
 930 802 930 802 937 756 c 1,42,-1
 770 756 l 1,43,44
 747 846 747 846 702 887 c 0,45,46
 636 948 636 948 521 948 c 0,47,48
 425 948 425 948 362 901 c 0,49,50
 301 856 301 856 301 787 c 0,51,52
 301 739 301 739 332 705 c 0,53,54
 407 622 407 622 596 622 c 0,55,56
 610 622 610 622 639 623 c 1,0,-1
EndSplineSet
Validated: 1
EndChar

StartChar: zeta
Encoding: 950 950 385
Width: 930
VWidth: 2458
Flags: W
LayerCount: 2
Fore
SplineSet
185 1341 m 1,0,-1
 185 1493 l 1,1,-1
 890 1493 l 1,2,-1
 890 1341 l 1,3,4
 663 1212 663 1212 520 1041 c 0,5,6
 272 743 272 743 272 456 c 0,7,8
 272 262 272 262 375 201 c 0,9,10
 416 176 416 176 482 168 c 0,11,12
 507 165 507 165 580 158 c 2,13,-1
 675 148 l 2,14,15
 788 136 788 136 845 107 c 0,16,17
 939 60 939 60 939 -68 c 0,18,19
 939 -166 939 -166 885 -319 c 0,20,21
 875 -348 875 -348 839 -446 c 1,22,-1
 664 -446 l 1,23,24
 682 -397 682 -397 701 -348 c 0,25,26
 764 -184 764 -184 764 -109 c 0,27,28
 764 -63 764 -63 746 -43 c 0,29,30
 729 -24 729 -24 702 -16 c 128,-1,31
 675 -8 675 -8 607 -2 c 2,32,-1
 517 6 l 2,33,34
 370 19 370 19 288 57 c 0,35,36
 189 104 189 104 142 205 c 0,37,38
 94 309 94 309 94 438 c 0,39,40
 94 802 94 802 389 1127 c 0,41,42
 509 1258 509 1258 643 1341 c 1,43,-1
 185 1341 l 1,0,-1
EndSplineSet
Validated: 1
EndChar

StartChar: eta
Encoding: 951 951 386
Width: 1144
VWidth: 2458
Flags: W
LayerCount: 2
Fore
SplineSet
145 1073 m 1,0,-1
 303 1073 l 1,1,-1
 303 894 l 1,2,3
 360 985 360 985 421 1030 c 0,4,5
 521 1104 521 1104 659 1104 c 0,6,7
 800 1104 800 1104 890 1039 c 0,8,9
 999 959 999 959 999 812 c 2,10,-1
 999 -446 l 1,11,-1
 827 -446 l 1,12,-1
 827 743 l 2,13,14
 827 851 827 851 757 906 c 0,15,16
 696 954 696 954 608 954 c 0,17,18
 490 954 490 954 406 866 c 0,19,20
 356 814 356 814 338 755 c 0,21,22
 317 685 317 685 317 591 c 2,23,-1
 317 0 l 1,24,-1
 145 0 l 1,25,-1
 145 1073 l 1,0,-1
EndSplineSet
Validated: 1
EndChar

StartChar: theta
Encoding: 952 952 387
Width: 1146
VWidth: 2458
Flags: W
LayerCount: 2
Fore
SplineSet
573 1525 m 0,0,1
 808 1525 808 1525 924 1348 c 0,2,3
 1004 1227 1004 1227 1023 1080 c 0,4,5
 1044 930 1044 930 1044 741 c 0,6,7
 1044 435 1044 435 1000 291 c 0,8,9
 896 -48 896 -48 565 -48 c 0,10,11
 322 -48 322 -48 206 153 c 0,12,13
 142 265 142 265 124 389 c 0,14,15
 102 548 102 548 102 744 c 0,16,17
 102 1050 102 1050 147 1193 c 0,18,19
 253 1525 253 1525 573 1525 c 0,0,1
276 850 m 1,20,-1
 873 850 l 1,21,22
 867 1032 867 1032 850 1106 c 0,23,24
 815 1259 815 1259 733 1320 c 0,25,26
 670 1367 670 1367 575 1367 c 0,27,28
 411 1367 411 1367 344 1232 c 0,29,30
 296 1135 296 1135 286 1019 c 0,31,32
 280 945 280 945 276 850 c 1,20,-1
274 712 m 1,33,34
 278 422 278 422 311 316 c 0,35,36
 378 108 378 108 573 108 c 0,37,38
 783 108 783 108 843 347 c 0,39,40
 869 447 869 447 872 712 c 1,41,-1
 274 712 l 1,33,34
EndSplineSet
Validated: 1
EndChar

StartChar: iota
Encoding: 953 953 388
Width: 461
VWidth: 2458
Flags: W
LayerCount: 2
Fore
SplineSet
145 0 m 1,0,-1
 145 1073 l 1,1,-1
 317 1073 l 1,2,-1
 317 0 l 1,3,-1
 145 0 l 1,0,-1
EndSplineSet
Validated: 1
EndChar

StartChar: kappa
Encoding: 954 954 389
Width: 1079
VWidth: 2458
Flags: W
LayerCount: 2
Fore
SplineSet
317 620 m 1,0,-1
 769 1073 l 1,1,-1
 993 1073 l 1,2,-1
 617 701 l 1,3,-1
 1054 0 l 1,4,-1
 844 0 l 1,5,-1
 486 574 l 1,6,-1
 317 407 l 1,7,-1
 317 0 l 1,8,-1
 145 0 l 1,9,-1
 145 1073 l 1,10,-1
 317 1073 l 1,11,-1
 317 620 l 1,0,-1
EndSplineSet
Validated: 1
EndChar

StartChar: lambda
Encoding: 955 955 390
Width: 991
VWidth: 2458
Flags: W
LayerCount: 2
Fore
SplineSet
28 0 m 1,0,-1
 398 1043 l 1,1,-1
 230 1493 l 1,2,-1
 417 1493 l 1,3,-1
 966 0 l 1,4,-1
 777 0 l 1,5,-1
 489 801 l 1,6,-1
 212 0 l 1,7,-1
 28 0 l 1,0,-1
EndSplineSet
Validated: 1
EndChar

StartChar: mu
Encoding: 956 956 391
Width: 1143
VWidth: 2458
Flags: W
LayerCount: 2
Fore
SplineSet
827 1073 m 1,0,-1
 999 1073 l 1,1,-1
 999 0 l 1,2,-1
 845 0 l 1,3,-1
 845 149 l 1,4,5
 789 69 789 69 736 29 c 0,6,7
 634 -47 634 -47 497 -47 c 0,8,9
 395 -47 395 -47 315 -7 c 1,10,-1
 315 -446 l 1,11,-1
 145 -446 l 1,12,-1
 145 1073 l 1,13,-1
 317 1073 l 1,14,-1
 317 314 l 2,15,16
 317 205 317 205 388 151 c 0,17,18
 451 103 451 103 537 103 c 0,19,20
 662 103 662 103 747 201 c 0,21,22
 797 259 797 259 812 328 c 0,23,24
 827 398 827 398 827 493 c 2,25,-1
 827 1073 l 1,0,-1
EndSplineSet
Validated: 2097153
EndChar

StartChar: nu
Encoding: 957 957 392
Width: 1031
VWidth: 2458
Flags: W
LayerCount: 2
Fore
SplineSet
591 0 m 1,0,-1
 405 0 l 1,1,-1
 28 1073 l 1,2,-1
 221 1073 l 1,3,-1
 507 228 l 1,4,-1
 811 1073 l 1,5,-1
 1003 1073 l 1,6,-1
 591 0 l 1,0,-1
EndSplineSet
Validated: 1
EndChar

StartChar: xi
Encoding: 958 958 393
Width: 984
VWidth: 2458
Flags: W
LayerCount: 2
Fore
SplineSet
128 1341 m 1,0,-1
 128 1493 l 1,1,-1
 889 1493 l 1,2,-1
 889 1341 l 1,3,-1
 706 1341 l 2,4,5
 552 1341 552 1341 477 1297 c 0,6,7
 423 1266 423 1266 389 1205 c 0,8,9
 360 1152 360 1152 360 1095 c 0,10,11
 360 1004 360 1004 428 940 c 0,12,13
 515 858 515 858 737 858 c 2,14,-1
 835 858 l 1,15,-1
 835 707 l 1,16,-1
 731 707 l 2,17,18
 544 707 544 707 438 663 c 0,19,20
 357 630 357 630 310 552 c 0,21,22
 273 490 273 490 273 414 c 0,23,24
 273 326 273 326 322 257 c 0,25,26
 366 197 366 197 459 177 c 0,27,28
 496 169 496 169 589 161 c 2,29,-1
 706 150 l 2,30,31
 855 136 855 136 913 91 c 0,32,33
 978 41 978 41 978 -67 c 0,34,35
 978 -189 978 -189 878 -446 c 1,36,-1
 702 -446 l 1,37,38
 804 -195 804 -195 804 -108 c 0,39,40
 804 -49 804 -49 768 -28 c 0,41,42
 733 -9 733 -9 619 -1 c 2,43,-1
 502 7 l 2,44,45
 330 18 330 18 242 82 c 0,46,47
 167 137 167 137 129 228 c 0,48,49
 93 313 93 313 93 407 c 0,50,51
 93 591 93 591 218 693 c 0,52,53
 288 750 288 750 411 787 c 1,54,55
 323 812 323 812 274 858 c 0,56,57
 179 946 179 946 179 1077 c 0,58,59
 179 1247 179 1247 343 1341 c 1,60,-1
 128 1341 l 1,0,-1
EndSplineSet
Validated: 1
EndChar

StartChar: omicron
Encoding: 959 959 394
Width: 1146
VWidth: 2458
Flags: W
LayerCount: 2
Fore
SplineSet
571 1104 m 0,0,1
 806 1104 806 1104 936 943 c 0,2,3
 1058 792 1058 792 1058 521 c 0,4,5
 1058 267 1058 267 936 114 c 0,6,7
 807 -47 807 -47 572 -47 c 0,8,9
 338 -47 338 -47 209 114 c 0,10,11
 87 267 87 267 87 529 c 0,12,13
 87 790 87 790 209 943 c 0,14,15
 338 1104 338 1104 571 1104 c 0,0,1
572 946 m 0,16,17
 463 946 463 946 382 873 c 0,18,19
 265 768 265 768 265 529 c 0,20,21
 265 359 265 359 329 249 c 0,22,23
 364 188 364 188 427 150 c 0,24,25
 493 111 493 111 572 111 c 0,26,27
 682 111 682 111 763 184 c 0,28,29
 880 289 880 289 880 523 c 0,30,31
 880 700 880 700 816 808 c 0,32,33
 780 870 780 870 718 907 c 0,34,35
 652 946 652 946 572 946 c 0,16,17
EndSplineSet
Validated: 1
EndChar

StartChar: rho
Encoding: 961 961 395
Width: 1174
VWidth: 2458
Flags: W
LayerCount: 2
Fore
SplineSet
126 -446 m 1,0,-1
 126 498 l 2,1,2
 126 709 126 709 165 808 c 0,3,4
 227 963 227 963 370 1043 c 0,5,6
 479 1104 479 1104 612 1104 c 0,7,8
 844 1104 844 1104 974 928 c 0,9,10
 1087 775 1087 775 1087 524 c 0,11,12
 1087 351 1087 351 1021 203 c 0,13,14
 965 80 965 80 845 11 c 0,15,16
 745 -47 745 -47 624 -47 c 0,17,18
 485 -47 485 -47 381 29 c 0,19,20
 343 57 343 57 298 113 c 1,21,-1
 298 -446 l 1,22,-1
 126 -446 l 1,0,-1
606 946 m 0,23,24
 453 946 453 946 365 810 c 0,25,26
 298 706 298 706 298 528 c 0,27,28
 298 326 298 326 388 213 c 0,29,30
 468 113 468 113 600 113 c 0,31,32
 756 113 756 113 840 246 c 0,33,34
 877 304 877 304 895 395 c 0,35,36
 909 463 909 463 909 521 c 0,37,38
 909 723 909 723 823 837 c 0,39,40
 740 946 740 946 606 946 c 0,23,24
EndSplineSet
Validated: 1
EndChar

StartChar: sigma1
Encoding: 962 962 396
Width: 1043
VWidth: 2458
Flags: W
LayerCount: 2
Fore
SplineSet
711 -446 m 1,0,1
 808 -188 808 -188 808 -130 c 0,2,3
 808 -67 808 -67 708 -33 c 2,4,-1
 475 46 l 2,5,6
 300 105 300 105 218 197 c 0,7,8
 158 262 158 262 122 357 c 0,9,10
 81 465 81 465 81 573 c 0,11,12
 81 723 81 723 155 860 c 0,13,14
 225 989 225 989 353 1052 c 0,15,16
 457 1104 457 1104 579 1104 c 0,17,18
 728 1104 728 1104 842 1030 c 0,19,20
 968 948 968 948 1007 807 c 0,21,22
 1017 771 1017 771 1023 705 c 1,23,-1
 843 705 l 1,24,25
 831 795 831 795 794 845 c 0,26,27
 718 947 718 947 576 947 c 0,28,29
 424 947 424 947 336 826 c 0,30,31
 259 720 259 720 259 582 c 0,32,33
 259 466 259 466 315 369 c 0,34,35
 365 281 365 281 468 231 c 0,36,37
 510 211 510 211 609 175 c 2,38,-1
 702 142 l 2,39,40
 833 96 833 96 864.5 81.5 c 128,-1,41
 896 67 896 67 933 33 c 0,42,43
 986 -15 986 -15 986 -93 c 0,44,45
 986 -179 986 -179 886 -446 c 1,46,-1
 711 -446 l 1,0,1
EndSplineSet
Validated: 1
EndChar

StartChar: sigma
Encoding: 963 963 397
Width: 1191
VWidth: 2458
Flags: W
LayerCount: 2
Fore
SplineSet
1157 1073 m 1,0,-1
 1157 921 l 1,1,-1
 921 921 l 1,2,3
 982 854 982 854 1010 790 c 0,4,5
 1058 679 1058 679 1058 520 c 0,6,7
 1058 267 1058 267 936 113 c 0,8,9
 808 -48 808 -48 572 -48 c 0,10,11
 338 -48 338 -48 209 113 c 0,12,13
 87 266 87 266 87 527 c 0,14,15
 87 790 87 790 212 942 c 0,16,17
 279 1025 279 1025 382 1067 c 0,18,19
 470 1104 470 1104 570 1104 c 0,20,21
 658 1104 658 1104 785 1073 c 1,22,-1
 1157 1073 l 1,0,-1
573 946 m 0,23,24
 463 946 463 946 382 873 c 0,25,26
 265 768 265 768 265 528 c 0,27,28
 265 358 265 358 329 248 c 0,29,30
 364 187 364 187 427 149 c 0,31,32
 493 110 493 110 572 110 c 0,33,34
 682 110 682 110 763 183 c 0,35,36
 880 288 880 288 880 523 c 0,37,38
 880 701 880 701 816 809 c 0,39,40
 736 946 736 946 573 946 c 0,23,24
EndSplineSet
Validated: 1
EndChar

StartChar: tau
Encoding: 964 964 398
Width: 952
VWidth: 2458
Flags: W
LayerCount: 2
Fore
SplineSet
389 0 m 1,0,-1
 389 921 l 1,1,-1
 34 921 l 1,2,-1
 34 1073 l 1,3,-1
 917 1073 l 1,4,-1
 917 921 l 1,5,-1
 561 921 l 1,6,-1
 561 0 l 1,7,-1
 389 0 l 1,0,-1
EndSplineSet
Validated: 1
EndChar

StartChar: upsilon
Encoding: 965 965 399
Width: 1143
VWidth: 2458
Flags: W
LayerCount: 2
Fore
SplineSet
145 1073 m 1,0,-1
 317 1073 l 1,1,-1
 317 379 l 2,2,3
 317 256 317 256 347 209 c 0,4,5
 380 159 380 159 452 132 c 0,6,7
 510 111 510 111 573 111 c 0,8,9
 682 111 682 111 756 167 c 0,10,11
 800 200 800 200 813 246 c 0,12,13
 827 295 827 295 827 379 c 2,14,-1
 827 1073 l 1,15,-1
 999 1073 l 1,16,-1
 999 379 l 2,17,18
 999 225 999 225 972 159 c 0,19,20
 925 46 925 46 796 -7 c 0,21,22
 700 -47 700 -47 573 -47 c 0,23,24
 348 -47 348 -47 233 69 c 0,25,26
 171 131 171 131 156 217 c 0,27,28
 145 283 145 283 145 379 c 2,29,-1
 145 1073 l 1,0,-1
EndSplineSet
Validated: 1
EndChar

StartChar: phi
Encoding: 966 966 400
Width: 1370
VWidth: 2458
Flags: W
LayerCount: 2
Fore
SplineSet
601 -446 m 1,0,-1
 601 -44 l 1,1,2
 436 -33 436 -33 332 33 c 0,3,4
 212 108 212 108 154 234 c 0,5,6
 91 371 91 371 91 530 c 0,7,8
 91 766 91 766 211 919 c 0,9,10
 321 1058 321 1058 500 1093 c 0,11,12
 536 1100 536 1100 601 1104 c 1,13,-1
 601 1357 l 1,14,-1
 770 1357 l 1,15,-1
 770 1104 l 1,16,17
 935 1093 935 1093 1039 1027 c 0,18,19
 1159 952 1159 952 1217 826 c 0,20,21
 1280 689 1280 689 1280 530 c 0,22,23
 1280 294 1280 294 1160 141 c 0,24,25
 1050 2 1050 2 871 -33 c 0,26,27
 834 -40 834 -40 770 -44 c 1,28,-1
 770 -446 l 1,29,-1
 601 -446 l 1,0,-1
601 951 m 1,30,31
 491 941 491 941 424 892 c 0,32,33
 269 781 269 781 269 529 c 0,34,35
 269 279 269 279 424 168 c 0,36,37
 492 119 492 119 601 109 c 1,38,-1
 601 951 l 1,30,31
768 951 m 1,39,-1
 768 109 l 1,40,41
 878 119 878 119 946 168 c 0,42,43
 1101 279 1101 279 1101 529 c 0,44,45
 1101 781 1101 781 946 892 c 0,46,47
 878 941 878 941 768 951 c 1,39,-1
EndSplineSet
Validated: 1
EndChar

StartChar: chi
Encoding: 967 967 401
Width: 984
VWidth: 2458
Flags: W
LayerCount: 2
Fore
SplineSet
489 533 m 1,0,-1
 746 1073 l 1,1,-1
 935 1073 l 1,2,-1
 583 348 l 1,3,-1
 970 -446 l 1,4,-1
 775 -446 l 1,5,-1
 486 154 l 1,6,-1
 198 -446 l 1,7,-1
 14 -446 l 1,8,-1
 392 338 l 1,9,-1
 33 1073 l 1,10,-1
 230 1073 l 1,11,-1
 489 533 l 1,0,-1
EndSplineSet
Validated: 1
EndChar

StartChar: psi
Encoding: 968 968 402
Width: 1412
VWidth: 2458
Flags: W
LayerCount: 2
Fore
SplineSet
792 1073 m 1,0,-1
 792 119 l 1,1,2
 884 128 884 128 928 146 c 0,3,4
 1045 193 1045 193 1079 304 c 0,5,6
 1095 354 1095 354 1095 482 c 2,7,-1
 1095 1073 l 1,8,-1
 1267 1073 l 1,9,-1
 1267 478 l 2,10,11
 1266 299 1266 299 1238 231 c 0,12,13
 1207 150 1207 150 1147 95 c 0,14,15
 1013 -18 1013 -18 792 -39 c 1,16,-1
 792 -446 l 1,17,-1
 620 -446 l 1,18,-1
 620 -39 l 1,19,20
 350 -15 350 -15 228 136 c 0,21,22
 175 202 175 202 158 284 c 0,23,24
 145 344 145 344 145 478 c 2,25,-1
 145 1073 l 1,26,-1
 317 1073 l 1,27,-1
 317 482 l 2,28,29
 318 328 318 328 345 274 c 0,30,31
 392 170 392 170 514 136 c 0,32,33
 543 126 543 126 620 119 c 1,34,-1
 620 1073 l 1,35,-1
 792 1073 l 1,0,-1
EndSplineSet
Validated: 1
EndChar

StartChar: omega
Encoding: 969 969 403
Width: 1420
VWidth: 2458
Flags: W
LayerCount: 2
Fore
SplineSet
624 814 m 1,0,-1
 796 814 l 1,1,-1
 796 404 l 2,2,3
 796 272 796 272 816 212 c 0,4,5
 852 107 852 107 957 107 c 0,6,7
 1012 107 1012 107 1048 140 c 0,8,9
 1097 184 1097 184 1120 258 c 0,10,11
 1151 357 1151 357 1151 468 c 0,12,13
 1151 819 1151 819 908 1073 c 1,14,-1
 1109 1073 l 1,15,16
 1329 832 1329 832 1329 476 c 0,17,18
 1329 211 1329 211 1205 62 c 0,19,20
 1115 -47 1115 -47 975 -47 c 0,21,22
 856 -47 856 -47 779 33 c 0,23,24
 744 70 744 70 710 136 c 1,25,26
 673 69 673 69 640 33 c 0,27,28
 566 -47 566 -47 442 -47 c 0,29,30
 303 -47 303 -47 213 62 c 0,31,32
 91 211 91 211 91 476 c 0,33,34
 91 835 91 835 311 1073 c 1,35,-1
 512 1073 l 1,36,37
 269 819 269 819 269 466 c 0,38,39
 269 302 269 302 321 203 c 0,40,41
 372 106 372 106 460 106 c 0,42,43
 566 106 566 106 603 211 c 0,44,45
 624 271 624 271 624 404 c 2,46,-1
 624 814 l 1,0,-1
EndSplineSet
Validated: 1
EndChar

StartChar: upsilondieresis
Encoding: 971 971 405
Width: 1143
VWidth: 2458
Flags: W
LayerCount: 2
Fore
SplineSet
145 1073 m 1,0,-1
 317 1073 l 1,1,-1
 317 379 l 2,2,3
 317 256 317 256 347 209 c 0,4,5
 380 159 380 159 452 132 c 0,6,7
 510 111 510 111 573 111 c 0,8,9
 682 111 682 111 756 167 c 0,10,11
 800 200 800 200 813 246 c 0,12,13
 827 295 827 295 827 379 c 2,14,-1
 827 1073 l 1,15,-1
 999 1073 l 1,16,-1
 999 379 l 2,17,18
 999 225 999 225 972 159 c 0,19,20
 925 46 925 46 796 -7 c 0,21,22
 700 -47 700 -47 573 -47 c 0,23,24
 348 -47 348 -47 233 69 c 0,25,26
 171 131 171 131 156 217 c 0,27,28
 145 283 145 283 145 379 c 2,29,-1
 145 1073 l 1,0,-1
513 1464 m 1,30,-1
 513 1253 l 1,31,-1
 300 1253 l 1,32,-1
 300 1464 l 1,33,-1
 513 1464 l 1,30,-1
844 1464 m 1,34,-1
 844 1253 l 1,35,-1
 631 1253 l 1,36,-1
 631 1464 l 1,37,-1
 844 1464 l 1,34,-1
EndSplineSet
Validated: 1
EndChar

StartChar: theta1
Encoding: 977 977 409
Width: 1146
VWidth: 2458
Flags: W
LayerCount: 2
Fore
SplineSet
21 603 m 1,0,-1
 262 603 l 1,1,2
 269 375 269 375 295 296 c 0,3,4
 358 108 358 108 541 108 c 0,5,6
 760 108 760 108 817 370 c 0,7,8
 838 466 838 466 840 687 c 1,9,10
 666 686 666 686 532 726 c 0,11,12
 393 767 393 767 291 867 c 0,13,14
 170 985 170 985 170 1162 c 0,15,16
 170 1340 170 1340 294 1443 c 0,17,18
 391 1525 391 1525 534 1525 c 0,19,20
 687 1525 687 1525 801 1435 c 0,21,22
 914 1346 914 1346 963 1201 c 0,23,24
 1002 1085 1002 1085 1009 830 c 1,25,26
 1055 831 1055 831 1101 836 c 1,27,-1
 1101 695 l 1,28,29
 1055 690 1055 690 1009 690 c 1,30,31
 1008 384 1008 384 947 234 c 0,32,33
 834 -48 834 -48 537 -48 c 0,34,35
 277 -48 277 -48 172 173 c 0,36,37
 114 294 114 294 108 466 c 1,38,-1
 21 466 l 1,39,-1
 21 603 l 1,0,-1
840 828 m 1,40,-1
 841 889 l 1,41,42
 841 1150 841 1150 741 1278 c 0,43,44
 703 1326 703 1326 641 1353 c 0,45,46
 590 1376 590 1376 532 1376 c 0,47,48
 455 1376 455 1376 402 1327 c 0,49,50
 334 1265 334 1265 334 1163 c 0,51,52
 334 1041 334 1041 423 958 c 0,53,54
 564 828 564 828 840 828 c 1,40,-1
EndSplineSet
Validated: 33
EndChar

StartChar: phi1
Encoding: 981 981 410
Width: 1370
VWidth: 2458
Flags: W
LayerCount: 2
Fore
SplineSet
591 -446 m 1,0,-1
 591 -45 l 1,1,2
 481 -34 481 -34 413.5 -11 c 128,-1,3
 346 12 346 12 285 59 c 0,4,5
 185 136 185 136 136 259 c 0,6,7
 82 393 82 393 82 545 c 0,8,9
 82 753 82 753 200 902 c 0,10,11
 271 993 271 993 362 1042 c 0,12,13
 389 1057 389 1057 445 1080 c 1,14,-1
 445 910 l 1,15,16
 366 866 366 866 331 802 c 0,17,18
 272 692 272 692 272 535 c 0,19,20
 272 381 272 381 328 270 c 0,21,22
 385 157 385 157 501 124 c 0,23,24
 532 114 532 114 591 108 c 1,25,-1
 591 1102 l 1,26,27
 627 1104 627 1104 657 1104 c 0,28,29
 831 1104 831 1104 958 1047 c 0,30,31
 1117 977 1117 977 1197 820 c 0,32,33
 1267 683 1267 683 1267 523 c 0,34,35
 1267 326 1267 326 1171 182 c 0,36,37
 1065 22 1065 22 882 -27 c 0,38,39
 838 -38 838 -38 763 -45 c 1,40,-1
 763 -446 l 1,41,-1
 591 -446 l 1,0,-1
763 108 m 1,42,43
 901 122 901 122 969 200 c 0,44,45
 1077 324 1077 324 1077 545 c 0,46,47
 1077 761 1077 761 959 871 c 0,48,49
 884 941 884 941 763 948 c 1,50,-1
 763 108 l 1,42,43
EndSplineSet
Validated: 1
EndChar

StartChar: afii10051
Encoding: 1026 1026 412
Width: 1375
VWidth: 2458
Flags: W
LayerCount: 2
Fore
SplineSet
330 0 m 1,0,-1
 330 1325 l 1,1,-1
 7 1325 l 1,2,-1
 7 1493 l 1,3,-1
 869 1493 l 1,4,-1
 869 1325 l 1,5,-1
 523 1325 l 1,6,-1
 523 846 l 1,7,8
 653 1007 653 1007 858 1007 c 0,9,10
 1040 1007 1040 1007 1157 888 c 0,11,12
 1249 795 1249 795 1249 658 c 2,13,-1
 1249 318 l 2,14,15
 1250 187 1250 187 1152 89 c 0,16,17
 1059 0 1059 0 942 0 c 2,18,-1
 642 0 l 1,19,-1
 642 168 l 1,20,-1
 940 168 l 2,21,22
 992 168 992 168 1026 207 c 0,23,24
 1056 241 1056 241 1056 303 c 2,25,-1
 1056 649 l 2,26,27
 1056 720 1056 720 1020 763 c 0,28,29
 955 839 955 839 824 839 c 0,30,31
 684 839 684 839 588 749 c 0,32,33
 523 688 523 688 523 596 c 2,34,-1
 523 0 l 1,35,-1
 330 0 l 1,0,-1
EndSplineSet
Validated: 33
EndChar

StartChar: afii10053
Encoding: 1028 1028 414
Width: 1564
VWidth: 2458
Flags: W
LayerCount: 2
Fore
SplineSet
270 662 m 1,0,1
 289 470 289 470 373 341 c 0,2,3
 445 230 445 230 568 171 c 0,4,5
 675 121 675 121 797 121 c 0,6,7
 1019 121 1019 121 1164 269 c 0,8,9
 1253 359 1253 359 1302 526 c 1,10,-1
 1489 493 l 1,11,12
 1451 367 1451 367 1412 297 c 0,13,14
 1310 113 1310 113 1122 23 c 0,15,16
 978 -47 978 -47 797 -47 c 0,17,18
 520 -47 520 -47 334 112 c 0,19,20
 202 224 202 224 137 395 c 0,21,22
 76 557 76 557 76 736 c 0,23,24
 76 1002 76 1002 199 1201 c 0,25,26
 311 1383 311 1383 504 1463 c 0,27,28
 637 1518 637 1518 797 1518 c 0,29,30
 1090 1518 1090 1518 1281 1341 c 0,31,32
 1391 1240 1391 1240 1462 1063 c 1,33,-1
 1275 1026 l 1,34,35
 1229 1136 1229 1136 1164 1203 c 0,36,37
 1020 1350 1020 1350 797 1350 c 0,38,39
 628 1350 628 1350 495 1257 c 0,40,41
 312 1130 312 1130 272 832 c 1,42,-1
 914 832 l 1,43,-1
 914 662 l 1,44,-1
 270 662 l 1,0,1
EndSplineSet
Validated: 1
EndChar

StartChar: afii10054
Encoding: 1029 1029 415
Width: 1366
VWidth: 2458
Flags: W
LayerCount: 2
Fore
SplineSet
1220 1055 m 1,0,-1
 1040 1055 l 1,1,2
 1038 1183 1038 1183 965 1258 c 0,3,4
 867 1358 867 1358 668 1358 c 0,5,6
 516 1358 516 1358 427 1290 c 0,7,8
 334 1219 334 1219 334 1105 c 0,9,10
 334 1012 334 1012 401 960 c 0,11,12
 454 918 454 918 580 885 c 2,13,-1
 953 784 l 2,14,15
 1107 743 1107 743 1187 649 c 0,16,17
 1272 549 1272 549 1272 410 c 0,18,19
 1272 279 1272 279 1194 163 c 0,20,21
 1053 -47 1053 -47 689 -47 c 0,22,23
 341 -47 341 -47 185 166 c 0,24,25
 102 281 102 281 98 475 c 1,26,-1
 278 475 l 1,27,28
 277 340 277 340 356 247 c 0,29,30
 462 121 462 121 700 121 c 0,31,32
 884 121 884 121 975 184 c 0,33,34
 1024 218 1024 218 1054 279 c 0,35,36
 1081 333 1081 333 1081 392 c 0,37,38
 1081 477 1081 477 1014 538 c 0,39,40
 950 595 950 595 807 633 c 2,41,-1
 435 730 l 2,42,43
 143 807 143 807 143 1081 c 0,44,45
 143 1275 143 1275 279 1395 c 0,46,47
 418 1518 418 1518 673 1518 c 0,48,49
 911 1518 911 1518 1054 1412 c 0,50,51
 1136 1352 1136 1352 1181 1255 c 0,52,53
 1221 1170 1221 1170 1221 1080 c 0,54,55
 1221 1072 1221 1072 1220 1055 c 1,0,-1
EndSplineSet
Validated: 33
EndChar

StartChar: afii10055
Encoding: 1030 1030 416
Width: 569
VWidth: 2458
Flags: W
LayerCount: 2
Fore
SplineSet
381 1493 m 1,0,-1
 381 0 l 1,1,-1
 188 0 l 1,2,-1
 188 1493 l 1,3,-1
 381 1493 l 1,0,-1
EndSplineSet
Validated: 1
EndChar

StartChar: afii10057
Encoding: 1032 1032 418
Width: 1031
VWidth: 2458
Flags: W
LayerCount: 2
Fore
SplineSet
680 1493 m 1,0,-1
 873 1493 l 1,1,-1
 873 372 l 2,2,3
 873 183 873 183 761 69 c 0,4,5
 645 -48 645 -48 447 -48 c 0,6,7
 261 -48 261 -48 148 60 c 256,8,9
 35 168 35 168 35 348 c 2,10,-1
 35 479 l 1,11,-1
 228 479 l 1,12,-1
 228 383 l 2,13,14
 228 258 228 258 281 191 c 0,15,16
 343 112 343 112 452 112 c 0,17,18
 534 112 534 112 595 161 c 0,19,20
 650 206 650 206 668 289 c 0,21,22
 680 345 680 345 680 441 c 2,23,-1
 680 1493 l 1,0,-1
EndSplineSet
Validated: 1
EndChar

StartChar: afii10058
Encoding: 1033 1033 419
Width: 2313
VWidth: 2458
Flags: W
LayerCount: 2
Fore
SplineSet
1122 1325 m 1,0,-1
 509 1325 l 1,1,-1
 509 570 l 2,2,3
 509 439 509 439 481.5 339 c 128,-1,4
 454 239 454 239 396 160 c 0,5,6
 315 50 315 50 220 16 c 0,7,8
 174 0 174 0 100 0 c 2,9,-1
 67 0 l 1,10,-1
 67 168 l 1,11,12
 177 174 177 174 247 267 c 1,13,14
 316 368 316 368 316 565 c 2,15,-1
 316 1493 l 1,16,-1
 1315 1493 l 1,17,-1
 1315 860 l 1,18,-1
 1763 860 l 2,19,20
 1921 860 1921 860 2011 817 c 0,21,22
 2237 711 2237 711 2237 435 c 0,23,24
 2237 207 2237 207 2090 92 c 0,25,26
 1973 0 1973 0 1776 0 c 2,27,-1
 1122 0 l 1,28,-1
 1122 1325 l 1,0,-1
1315 692 m 1,29,-1
 1315 168 l 1,30,-1
 1746 168 l 2,31,32
 1893 168 1893 168 1970 243 c 0,33,34
 2044 315 2044 315 2044 430 c 256,35,36
 2044 545 2044 545 1970 618 c 0,37,38
 1893 692 1893 692 1746 692 c 2,39,-1
 1315 692 l 1,29,-1
EndSplineSet
Validated: 1
EndChar

StartChar: afii10059
Encoding: 1034 1034 420
Width: 2314
VWidth: 2458
Flags: W
LayerCount: 2
Fore
SplineSet
1123 692 m 1,0,-1
 358 692 l 1,1,-1
 358 0 l 1,2,-1
 165 0 l 1,3,-1
 165 1493 l 1,4,-1
 355 1493 l 1,5,-1
 355 860 l 1,6,-1
 1123 860 l 1,7,-1
 1123 1493 l 1,8,-1
 1316 1493 l 1,9,-1
 1316 860 l 1,10,-1
 1764 860 l 2,11,12
 1922 860 1922 860 2012 818 c 0,13,14
 2238 712 2238 712 2238 431 c 0,15,16
 2238 207 2238 207 2091 92 c 0,17,18
 1974 0 1974 0 1777 0 c 2,19,-1
 1123 0 l 1,20,-1
 1123 692 l 1,0,-1
1316 692 m 1,21,-1
 1316 168 l 1,22,-1
 1747 168 l 2,23,24
 1894 168 1894 168 1971 243 c 0,25,26
 2045 315 2045 315 2045 430 c 256,27,28
 2045 545 2045 545 1971 618 c 0,29,30
 1894 692 1894 692 1747 692 c 2,31,-1
 1316 692 l 1,21,-1
EndSplineSet
Validated: 1
EndChar

StartChar: afii10060
Encoding: 1035 1035 421
Width: 1375
VWidth: 2458
Flags: W
LayerCount: 2
Fore
SplineSet
330 0 m 1,0,-1
 330 1325 l 1,1,-1
 7 1325 l 1,2,-1
 7 1493 l 1,3,-1
 869 1493 l 1,4,-1
 869 1325 l 1,5,-1
 523 1325 l 1,6,-1
 523 846 l 1,7,8
 653 1006 653 1006 858 1006 c 0,9,10
 1040 1006 1040 1006 1157 887 c 0,11,12
 1249 795 1249 795 1249 658 c 2,13,-1
 1249 0 l 1,14,-1
 1056 0 l 1,15,-1
 1056 649 l 2,16,17
 1056 720 1056 720 1020 762 c 0,18,19
 955 838 955 838 824 838 c 0,20,21
 684 838 684 838 588 749 c 0,22,23
 523 688 523 688 523 596 c 2,24,-1
 523 0 l 1,25,-1
 330 0 l 1,0,-1
EndSplineSet
Validated: 1
EndChar

StartChar: afii10145
Encoding: 1039 1039 424
Width: 1481
VWidth: 2458
Flags: W
LayerCount: 2
Fore
SplineSet
165 0 m 1,0,-1
 165 1493 l 1,1,-1
 358 1493 l 1,2,-1
 358 168 l 1,3,-1
 1123 168 l 1,4,-1
 1123 1493 l 1,5,-1
 1316 1493 l 1,6,-1
 1316 0 l 1,7,-1
 835 0 l 1,8,-1
 835 -340 l 1,9,-1
 642 -340 l 1,10,-1
 642 0 l 1,11,-1
 165 0 l 1,0,-1
EndSplineSet
Validated: 1
EndChar

StartChar: afii10017
Encoding: 1040 1040 425
Width: 1366
VWidth: 2458
Flags: W
LayerCount: 2
Fore
SplineSet
969 449 m 1,0,-1
 392 449 l 1,1,-1
 235 0 l 1,2,-1
 32 0 l 1,3,-1
 565 1493 l 1,4,-1
 811 1493 l 1,5,-1
 1335 0 l 1,6,-1
 1122 0 l 1,7,-1
 969 449 l 1,0,-1
915 609 m 1,8,-1
 685 1288 l 1,9,-1
 440 609 l 1,10,-1
 915 609 l 1,8,-1
EndSplineSet
Validated: 1
EndChar

StartChar: afii10018
Encoding: 1041 1041 426
Width: 1361
VWidth: 2458
Flags: W
LayerCount: 2
Fore
SplineSet
358 860 m 1,0,-1
 806 860 l 2,1,2
 964 860 964 860 1054 818 c 0,3,4
 1173 762 1173 762 1231 652 c 0,5,6
 1280 559 1280 559 1280 431 c 0,7,8
 1280 207 1280 207 1133 92 c 0,9,10
 1016 0 1016 0 819 0 c 2,11,-1
 165 0 l 1,12,-1
 165 1493 l 1,13,-1
 1144 1493 l 1,14,-1
 1144 1325 l 1,15,-1
 358 1325 l 1,16,-1
 358 860 l 1,0,-1
358 692 m 1,17,-1
 358 168 l 1,18,-1
 789 168 l 2,19,20
 936 168 936 168 1013 243 c 0,21,22
 1087 315 1087 315 1087 430 c 256,23,24
 1087 545 1087 545 1013 618 c 0,25,26
 936 692 936 692 789 692 c 2,27,-1
 358 692 l 1,17,-1
EndSplineSet
Validated: 1
EndChar

StartChar: afii10019
Encoding: 1042 1042 427
Width: 1365
VWidth: 2458
Flags: W
LayerCount: 2
Fore
SplineSet
165 0 m 1,0,-1
 165 1493 l 1,1,-1
 772 1493 l 2,2,3
 980 1493 980 1493 1096 1388 c 0,4,5
 1214 1282 1214 1282 1214 1113 c 0,6,7
 1214 884 1214 884 1007 790 c 1,8,9
 1108 750 1108 750 1164 701 c 0,10,11
 1280 600 1280 600 1280 425 c 0,12,13
 1280 246 1280 246 1165 124 c 0,14,15
 1047 0 1047 0 838 0 c 2,16,-1
 165 0 l 1,0,-1
358 848 m 1,17,-1
 725 848 l 2,18,19
 837 848 837 848 892 872 c 0,20,21
 1023 929 1023 929 1023 1087 c 0,22,23
 1023 1211 1023 1211 941 1273 c 0,24,25
 900 1303 900 1303 855 1313 c 0,26,27
 799 1325 799 1325 725 1325 c 2,28,-1
 358 1325 l 1,29,-1
 358 848 l 1,17,-1
358 168 m 1,30,-1
 820 168 l 2,31,32
 954 168 954 168 1021 239 c 0,33,34
 1090 311 1090 311 1090 425 c 0,35,36
 1090 537 1090 537 1021 609 c 0,37,38
 954 680 954 680 820 680 c 2,39,-1
 358 680 l 1,40,-1
 358 168 l 1,30,-1
EndSplineSet
Validated: 1
EndChar

StartChar: afii10020
Encoding: 1043 1043 428
Width: 1101
VWidth: 2458
Flags: W
LayerCount: 2
Fore
SplineSet
165 1493 m 1,0,-1
 1095 1493 l 1,1,-1
 1095 1325 l 1,2,-1
 358 1325 l 1,3,-1
 358 0 l 1,4,-1
 165 0 l 1,5,-1
 165 1493 l 1,0,-1
EndSplineSet
Validated: 1
EndChar

StartChar: afii10021
Encoding: 1044 1044 429
Width: 1547
VWidth: 2458
Flags: W
LayerCount: 2
Fore
SplineSet
1278 0 m 1,0,-1
 241 0 l 1,1,-1
 241 -340 l 1,2,-1
 48 -340 l 1,3,-1
 48 168 l 1,4,5
 204 177 204 177 312 328 c 0,6,7
 376 420 376 420 397 549 c 0,8,9
 411 632 411 632 411 754 c 2,10,-1
 411 1493 l 1,11,-1
 1358 1493 l 1,12,-1
 1358 168 l 1,13,-1
 1471 168 l 1,14,-1
 1471 -340 l 1,15,-1
 1278 -340 l 1,16,-1
 1278 0 l 1,0,-1
1165 168 m 1,17,-1
 1165 1325 l 1,18,-1
 604 1325 l 1,19,-1
 604 759 l 2,20,21
 604 522 604 522 534 368 c 0,22,23
 471 233 471 233 370 168 c 1,24,-1
 1165 168 l 1,17,-1
EndSplineSet
Validated: 1
EndChar

StartChar: afii10022
Encoding: 1045 1045 430
Width: 1346
VWidth: 2458
Flags: W
LayerCount: 2
Fore
SplineSet
358 680 m 1,0,-1
 358 168 l 1,1,-1
 1236 168 l 1,2,-1
 1236 0 l 1,3,-1
 165 0 l 1,4,-1
 165 1493 l 1,5,-1
 1199 1493 l 1,6,-1
 1199 1325 l 1,7,-1
 358 1325 l 1,8,-1
 358 848 l 1,9,-1
 1169 848 l 1,10,-1
 1169 680 l 1,11,-1
 358 680 l 1,0,-1
EndSplineSet
Validated: 1
EndChar

StartChar: afii10024
Encoding: 1046 1046 431
Width: 2004
VWidth: 2458
Flags: W
LayerCount: 2
Fore
SplineSet
904 0 m 1,0,-1
 904 707 l 1,1,-1
 677 707 l 1,2,-1
 219 0 l 1,3,-1
 3 0 l 1,4,-1
 517 787 l 1,5,-1
 94 1493 l 1,6,-1
 309 1493 l 1,7,-1
 677 875 l 1,8,-1
 904 875 l 1,9,-1
 904 1493 l 1,10,-1
 1097 1493 l 1,11,-1
 1097 875 l 1,12,-1
 1325 875 l 1,13,-1
 1693 1493 l 1,14,-1
 1905 1493 l 1,15,-1
 1486 787 l 1,16,-1
 2002 0 l 1,17,-1
 1792 0 l 1,18,-1
 1331 707 l 1,19,-1
 1097 707 l 1,20,-1
 1097 0 l 1,21,-1
 904 0 l 1,0,-1
EndSplineSet
Validated: 1
EndChar

StartChar: afii10025
Encoding: 1047 1047 432
Width: 1158
VWidth: 2458
Flags: W
LayerCount: 2
Fore
SplineSet
76 458 m 1,0,-1
 269 458 l 1,1,-1
 269 423 l 2,2,3
 269 310 269 310 328 233 c 0,4,5
 416 120 416 120 584 120 c 0,6,7
 742 120 742 120 817 208 c 0,8,9
 884 286 884 286 884 406 c 0,10,11
 884 565 884 565 771 638 c 0,12,13
 698 685 698 685 568 685 c 2,14,-1
 487 685 l 1,15,-1
 487 850 l 1,16,-1
 554 850 l 2,17,18
 663 850 663 850 735 900 c 0,19,20
 838 971 838 971 838 1101 c 0,21,22
 838 1220 838 1220 754 1294 c 0,23,24
 691 1350 691 1350 583 1350 c 0,25,26
 446 1350 446 1350 370 1257 c 0,27,28
 316 1190 316 1190 316 1094 c 2,29,-1
 316 1025 l 1,30,-1
 124 1025 l 1,31,-1
 124 1059 l 2,32,33
 124 1254 124 1254 232 1373 c 0,34,35
 362 1518 362 1518 581 1518 c 0,36,37
 790 1518 790 1518 916 1392 c 0,38,39
 1031 1277 1031 1277 1031 1113 c 0,40,41
 1031 967 1031 967 943 863 c 0,42,43
 896 807 896 807 803 777 c 1,44,45
 907 757 907 757 969 697 c 0,46,47
 1077 593 1077 593 1077 421 c 0,48,49
 1077 295 1077 295 1017 181 c 0,50,51
 896 -48 896 -48 587 -48 c 0,52,53
 280 -48 280 -48 145 177 c 0,54,55
 96 258 96 258 83 352 c 0,56,57
 77 389 77 389 76 458 c 1,0,-1
EndSplineSet
Validated: 1
EndChar

StartChar: afii10026
Encoding: 1048 1048 433
Width: 1486
VWidth: 2458
Flags: W
LayerCount: 2
Fore
SplineSet
165 0 m 1,0,-1
 165 1493 l 1,1,-1
 358 1493 l 1,2,-1
 358 449 l 1,3,-1
 1128 1326 l 1,4,-1
 1128 1493 l 1,5,-1
 1321 1493 l 1,6,-1
 1321 0 l 1,7,-1
 1128 0 l 1,8,-1
 1128 1050 l 1,9,-1
 358 171 l 1,10,-1
 358 0 l 1,11,-1
 165 0 l 1,0,-1
EndSplineSet
Validated: 1
EndChar

StartChar: afii10028
Encoding: 1050 1050 435
Width: 1265
VWidth: 2458
Flags: W
LayerCount: 2
Fore
SplineSet
165 0 m 1,0,-1
 165 1493 l 1,1,-1
 358 1493 l 1,2,-1
 358 875 l 1,3,-1
 586 875 l 1,4,-1
 954 1493 l 1,5,-1
 1167 1493 l 1,6,-1
 747 787 l 1,7,-1
 1263 0 l 1,8,-1
 1050 0 l 1,9,-1
 589 707 l 1,10,-1
 358 707 l 1,11,-1
 358 0 l 1,12,-1
 165 0 l 1,0,-1
EndSplineSet
Validated: 1
EndChar

StartChar: afii10029
Encoding: 1051 1051 436
Width: 1479
VWidth: 2458
Flags: W
LayerCount: 2
Fore
SplineSet
1121 0 m 1,0,-1
 1121 1325 l 1,1,-1
 509 1325 l 1,2,-1
 509 570 l 2,3,4
 509 439 509 439 481.5 339 c 128,-1,5
 454 239 454 239 396 160 c 0,6,7
 315 50 315 50 220 16 c 0,8,9
 174 0 174 0 100 0 c 2,10,-1
 67 0 l 1,11,-1
 67 168 l 1,12,13
 177 174 177 174 247 267 c 1,14,15
 316 368 316 368 316 565 c 2,16,-1
 316 1493 l 1,17,-1
 1314 1493 l 1,18,-1
 1314 0 l 1,19,-1
 1121 0 l 1,0,-1
EndSplineSet
Validated: 1
EndChar

StartChar: afii10030
Encoding: 1052 1052 437
Width: 1735
VWidth: 2458
Flags: W
LayerCount: 2
Fore
SplineSet
970 0 m 1,0,-1
 770 0 l 1,1,-1
 345 1252 l 1,2,-1
 345 0 l 1,3,-1
 165 0 l 1,4,-1
 165 1493 l 1,5,-1
 428 1493 l 1,6,-1
 872 193 l 1,7,-1
 1306 1493 l 1,8,-1
 1570 1493 l 1,9,-1
 1570 0 l 1,10,-1
 1390 0 l 1,11,-1
 1390 1252 l 1,12,-1
 970 0 l 1,0,-1
EndSplineSet
Validated: 1
EndChar

StartChar: afii10031
Encoding: 1053 1053 438
Width: 1479
VWidth: 2458
Flags: W
LayerCount: 2
Fore
SplineSet
1121 680 m 1,0,-1
 358 680 l 1,1,-1
 358 0 l 1,2,-1
 165 0 l 1,3,-1
 165 1493 l 1,4,-1
 355 1493 l 1,5,-1
 355 848 l 1,6,-1
 1121 848 l 1,7,-1
 1121 1493 l 1,8,-1
 1314 1493 l 1,9,-1
 1314 0 l 1,10,-1
 1121 0 l 1,11,-1
 1121 680 l 1,0,-1
EndSplineSet
Validated: 1
EndChar

StartChar: afii10032
Encoding: 1054 1054 439
Width: 1593
VWidth: 2458
Flags: W
LayerCount: 2
Fore
SplineSet
796 1518 m 0,0,1
 1073 1518 1073 1518 1260 1359 c 0,2,3
 1392 1248 1392 1248 1457 1076 c 0,4,5
 1518 914 1518 914 1518 724 c 0,6,7
 1518 469 1518 469 1395 270 c 0,8,9
 1283 88 1283 88 1090 8 c 0,10,11
 957 -47 957 -47 797 -47 c 0,12,13
 520 -47 520 -47 334 112 c 0,14,15
 203 223 203 223 137 395 c 0,16,17
 76 556 76 556 76 736 c 0,18,19
 76 1002 76 1002 199 1201 c 0,20,21
 312 1385 312 1385 504 1463 c 0,22,23
 638 1518 638 1518 796 1518 c 0,0,1
796 1350 m 0,24,25
 652 1350 652 1350 530 1280 c 0,26,27
 395 1202 395 1202 328 1049 c 0,28,29
 266 908 266 908 266 736 c 0,30,31
 266 533 266 533 349 380 c 0,32,33
 425 239 425 239 568 171 c 0,34,35
 674 121 674 121 797 121 c 0,36,37
 1020 121 1020 121 1164 268 c 0,38,39
 1241 348 1241 348 1283 465 c 0,40,41
 1328 593 1328 593 1328 727 c 0,42,43
 1328 1034 1328 1034 1164 1203 c 0,44,45
 1091 1278 1091 1278 987 1316 c 0,46,47
 895 1350 895 1350 796 1350 c 0,24,25
EndSplineSet
Validated: 1
EndChar

StartChar: afii10033
Encoding: 1055 1055 440
Width: 1479
VWidth: 2458
Flags: W
LayerCount: 2
Fore
SplineSet
358 1325 m 1,0,-1
 358 0 l 1,1,-1
 165 0 l 1,2,-1
 165 1493 l 1,3,-1
 1314 1493 l 1,4,-1
 1314 0 l 1,5,-1
 1121 0 l 1,6,-1
 1121 1325 l 1,7,-1
 358 1325 l 1,0,-1
EndSplineSet
Validated: 1
EndChar

StartChar: afii10034
Encoding: 1056 1056 441
Width: 1319
VWidth: 2458
Flags: W
LayerCount: 2
Fore
SplineSet
358 633 m 1,0,-1
 358 0 l 1,1,-1
 165 0 l 1,2,-1
 165 1493 l 1,3,-1
 783 1493 l 2,4,5
 980 1493 980 1493 1096 1401 c 0,6,7
 1243 1286 1243 1286 1243 1056 c 0,8,9
 1243 858 1243 858 1114 740 c 0,10,11
 997 633 997 633 824 633 c 2,12,-1
 358 633 l 1,0,-1
358 801 m 1,13,-1
 754 801 l 2,14,15
 898 801 898 801 972 875 c 0,16,17
 1044 948 1044 948 1044 1063 c 0,18,19
 1044 1177 1044 1177 972 1250 c 0,20,21
 898 1325 898 1325 754 1325 c 2,22,-1
 358 1325 l 1,23,-1
 358 801 l 1,13,-1
EndSplineSet
Validated: 1
EndChar

